<svg width="82" height="77" viewBox="0 0 82 77" fill="none" xmlns="http://www.w3.org/2000/svg">
<path d="M45.1683 75.9364L42.2043 70.4267M15.8243 21.3899L23.2344 35.1643M23.2344 35.1643L26.6353 23.5938M23.2344 35.1643L11.7059 31.8584M23.2344 35.1643L29.7553 47.2857M29.7553 47.2857L34.3574 29.6545M29.7553 47.2857L14.2799 42.8779M29.7553 47.2857L37.4618 61.6111M37.4618 61.6111L43.6239 38.4701M37.4618 61.6111L15.8243 55.5504M37.4618 61.6111L42.2043 70.4267M42.2043 70.4267C64.583 40.8016 68.2819 24.8588 6.04297 1.55481" stroke="#344F10"/>
<path d="M6.02918 1C-7.9954 67.9324 8.35849 71.5268 42.08 70.427M55.9796 48.388L58.0388 45.1669M69.3646 27.4509L62.6721 37.9194M62.6721 37.9194H71.4238M62.6721 37.9194L60.0981 29.6548M62.6721 37.9194L58.0388 45.1669M58.0388 45.1669H69.3646M58.0388 45.1669L52.3759 55.5506L65.7609 56.6526" stroke="#344F10"/>
<path d="M44.6543 67.1208C75.9058 66.6853 87.7539 60.0382 77.2709 13.2117" stroke="#344F10"/>
<path d="M77.6014 13.6765C66.3007 16.2928 60.4287 18.5369 52.8906 27.4509" stroke="#344F10"/>
</svg>
