<svg width="80" height="69" viewBox="0 0 80 69" fill="none" xmlns="http://www.w3.org/2000/svg">
<path d="M60.7011 11.8367L56.5475 14.8326C45.3405 -0.176625 39.2707 -8.18588 19.9209 18.5775L33.5143 26.8163C35.4464 20.3744 37.0725 17.0924 41.0662 11.8367L45.5973 20.8245L41.0662 24.1949C46.5473 24.719 49.4827 24.7876 54.282 24.1949C57.5351 20.2909 59.0364 17.6989 60.7011 11.8367Z" stroke="#344F10"/>
<path d="M51.1431 61.8702L50.5151 56.7528C68.9139 53.9465 78.7745 52.3695 64.7055 22.4283L51.0609 30.5802C55.7457 35.3657 57.8267 38.3739 60.4972 44.4259L50.5182 44.1697L49.7442 38.5384C46.6769 43.1583 45.2188 45.7336 43.4481 50.2798C45.2953 55.0299 46.8354 57.5985 51.1431 61.8702Z" stroke="#344F10"/>
<path d="M9.04007 28.313L13.7739 30.2392C7.28207 47.8599 3.86608 57.3389 36.6024 59.4225L36.1624 43.4115C29.749 45.2314 26.1363 45.6119 19.6033 45.0377L24.6634 36.3429L29.9127 38.3892C27.4012 33.4386 25.8792 30.9013 22.8028 27.1322C17.7959 26.4615 14.826 26.5773 9.04007 28.313Z" stroke="#344F10"/>
</svg>
