<svg width="130" height="38" fill="none" xmlns="http://www.w3.org/2000/svg"><path d="M29.411 3.53v25.023h-6.326V13.546l-5.808 15.008H12.17L6.326 13.51v15.043H0V3.53h7.473l7.288 17.325 7.214-17.325h7.436ZM54.18 8.662 41.232 38h-6.807l4.735-10.124-8.397-19.214h7.066L42.6 21.103l4.735-12.44h6.844ZM71.324 15.72c1.504.31 2.713 1.034 3.625 2.175a5.912 5.912 0 0 1 1.37 3.85c0 2.091-.765 3.755-2.294 4.99-1.505 1.213-3.614 1.819-6.327 1.819H55.601V3.529h11.69c2.64 0 4.699.582 6.179 1.747 1.504 1.164 2.256 2.745 2.256 4.74 0 1.474-.407 2.698-1.22 3.673-.79.974-1.85 1.651-3.182 2.031Zm-9.397-2.067h4.143c1.036 0 1.826-.214 2.368-.642.567-.451.851-1.105.851-1.96 0-.856-.284-1.51-.85-1.96-.543-.452-1.333-.678-2.368-.678h-4.144v5.24Zm4.661 9.981c1.061 0 1.875-.226 2.442-.677.592-.475.888-1.153.888-2.032 0-.88-.308-1.569-.925-2.068-.592-.499-1.418-.748-2.478-.748h-4.588v5.525h4.661ZM82.302 6.595c-1.11 0-2.023-.31-2.738-.927-.69-.642-1.036-1.426-1.036-2.353 0-.95.346-1.735 1.036-2.353C80.28.321 81.192 0 82.302 0c1.085 0 1.973.32 2.663.962.716.618 1.073 1.403 1.073 2.353 0 .927-.357 1.711-1.072 2.353-.691.618-1.579.927-2.664.927Zm3.144 2.067v19.892H79.12V8.662h6.326ZM104.221 28.553l-8.731-11.05v11.05h-6.326V3.53h6.326v10.98l8.657-10.98h7.436L101.52 15.792l10.433 12.761h-7.732ZM120.418 8.413v5.062h8.472v4.705h-8.472v5.49H130v4.883h-15.908V3.53H130v4.884h-9.582Z" fill="#1D1D1D"/></svg>