<svg width="32" height="32" viewBox="0 0 32 32" fill="none" xmlns="http://www.w3.org/2000/svg">
<path d="M25.5923 8.55623C26.1856 7.96292 26.1856 7.00097 25.5923 6.40766C24.999 5.81435 24.037 5.81435 23.4437 6.40766L15.9999 13.8515L8.55611 6.40766C7.9628 5.81435 7.00085 5.81435 6.40754 6.40766C5.81423 7.00097 5.81423 7.96292 6.40754 8.55623L13.8513 16L6.40754 23.4439C5.81422 24.0372 5.81423 24.9991 6.40754 25.5924C7.00085 26.1857 7.9628 26.1857 8.55611 25.5924L15.9999 18.1486L23.4437 25.5924C24.037 26.1857 24.999 26.1857 25.5923 25.5924C26.1856 24.9991 26.1856 24.0372 25.5923 23.4438L18.1485 16L25.5923 8.55623Z" fill="#292929"/>
</svg>
