<svg width="35" height="35" viewBox="0 0 35 35" fill="none" xmlns="http://www.w3.org/2000/svg">
<g filter="url(#filter0_d_138_4)">
<path d="M9.52273 13.5001H7.68182V6.00029H5.22727V3.00033H12.5909V6.00029H10.1364V10.1927L22.1796 6.24929L21.4678 3.00033H17.5V0.000365163H22.3821C22.6568 -0.00704352 22.9257 0.0984674 23.1455 0.299996C23.3654 0.501524 23.5235 0.787408 23.5946 1.11185L25.5006 9.80573L23.1295 10.5812L22.8153 9.14724L9.52273 13.5001ZM8.90909 24C9.56008 24 10.1844 23.684 10.6447 23.1214C11.105 22.5588 11.3636 21.7957 11.3636 21C11.3636 20.2044 11.105 19.4414 10.6447 18.8788C10.1844 18.3162 9.56008 18.0002 8.90909 18.0002C8.2581 18.0002 7.63378 18.3162 7.17346 18.8788C6.71315 19.4414 6.45454 20.2044 6.45454 21C6.45454 21.7957 6.71315 22.5588 7.17346 23.1214C7.63378 23.684 8.2581 24 8.90909 24ZM8.90909 27C7.60712 27 6.35847 26.3679 5.43784 25.2426C4.51721 24.1174 4 22.5913 4 21C4 19.4087 4.51721 17.8826 5.43784 16.7575C6.35847 15.6323 7.60712 15.0002 8.90909 15.0002C10.2111 15.0002 11.4597 15.6323 12.3803 16.7575C13.301 17.8826 13.8182 19.4087 13.8182 21C13.8182 22.5913 13.301 24.1174 12.3803 25.2426C11.4597 26.3679 10.2111 27 8.90909 27ZM24.8636 24C25.8401 24 26.7766 23.526 27.4671 22.682C28.1575 21.8381 28.5454 20.6936 28.5454 19.5001C28.5454 18.3066 28.1575 17.1621 27.4671 16.3182C26.7766 15.4742 25.8401 15.0002 24.8636 15.0002C23.8871 15.0002 22.9507 15.4742 22.2602 16.3182C21.5697 17.1621 21.1818 18.3066 21.1818 19.5001C21.1818 20.6936 21.5697 21.8381 22.2602 22.682C22.9507 23.526 23.8871 24 24.8636 24ZM24.8636 27C23.2361 27 21.6754 26.2098 20.5246 24.8033C19.3737 23.3969 18.7273 21.4892 18.7273 19.5001C18.7273 17.511 19.3737 15.6033 20.5246 14.1969C21.6754 12.7904 23.2361 12.0002 24.8636 12.0002C26.4912 12.0002 28.0519 12.7904 29.2027 14.1969C30.3535 15.6033 31 17.511 31 19.5001C31 21.4892 30.3535 23.3969 29.2027 24.8033C28.0519 26.2098 26.4912 27 24.8636 27Z" fill="white"/>
</g>
<defs>
<filter id="filter0_d_138_4" x="0" y="0" width="35" height="35" filterUnits="userSpaceOnUse" color-interpolation-filters="sRGB">
<feFlood flood-opacity="0" result="BackgroundImageFix"/>
<feColorMatrix in="SourceAlpha" type="matrix" values="0 0 0 0 0 0 0 0 0 0 0 0 0 0 0 0 0 0 127 0" result="hardAlpha"/>
<feOffset dy="4"/>
<feGaussianBlur stdDeviation="2"/>
<feComposite in2="hardAlpha" operator="out"/>
<feColorMatrix type="matrix" values="0 0 0 0 0 0 0 0 0 0 0 0 0 0 0 0 0 0 0.25 0"/>
<feBlend mode="normal" in2="BackgroundImageFix" result="effect1_dropShadow_138_4"/>
<feBlend mode="normal" in="SourceGraphic" in2="effect1_dropShadow_138_4" result="shape"/>
</filter>
</defs>
</svg>
