<svg width="87.000000" height="62.000000" viewBox="0 0 87 62" fill="none" xmlns="http://www.w3.org/2000/svg" xmlns:xlink="http://www.w3.org/1999/xlink">
	<desc>
			Created with Pixso.
	</desc>
	<defs/>
	<path id="THE MET" d="M18.19 25.1L18.19 1.62L23.55 1.62C24.38 1.64 25.08 1.83 25.67 2.18C26.92 2.87 27.55 4.04 27.55 5.7L27.55 6.18L27.95 6.18L27.95 -0.79C27.58 -0.63 26.9 -0.47 25.91 -0.31C24.95 -0.15 24.06 -0.07 23.23 -0.07L7.11 -0.07C5.06 -0.09 3.48 -0.33 2.39 -0.79L2.39 6.18L2.79 6.18L2.79 5.7C2.79 4.5 3.15 3.52 3.87 2.78C4.59 2.03 5.56 1.64 6.79 1.62L12.19 1.62L12.19 25.14C12.14 25.8 11.86 26.38 11.35 26.86C10.87 27.34 10.3 27.58 9.63 27.58L9.11 27.58L9.11 27.98L21.27 27.98L21.23 27.58L20.75 27.58C20.06 27.58 19.46 27.34 18.95 26.86C18.47 26.38 18.22 25.79 18.19 25.1ZM63.88 26.86C63.4 27.34 62.82 27.58 62.12 27.58L61.6 27.58L61.6 27.98L82.32 27.98L84.16 19.82L83.76 19.82Q82.8 22.9 80.8 24.58C79.5 25.7 77.87 26.26 75.92 26.26L70.68 26.26L70.68 15.02L76.04 15.02C77 15.04 77.79 15.38 78.4 16.02C79.04 16.66 79.36 17.47 79.36 18.45L79.36 18.78L79.76 18.78L79.76 9.54L79.36 9.54L79.36 9.89C79.36 10.86 79.04 11.67 78.4 12.34C77.76 12.98 76.95 13.31 75.96 13.34L70.68 13.34L70.68 1.7L77.4 1.7C78.2 1.72 78.9 1.91 79.48 2.26C80.71 2.95 81.32 4.12 81.32 5.78L81.32 6.22L81.72 6.26L81.72 -0.75C81.54 -0.67 81.02 -0.52 80.16 -0.31C79.31 -0.12 78.23 -0.03 76.92 -0.03L61.6 -0.03L61.6 0.37L62.12 0.37C62.79 0.37 63.44 0.67 64.08 1.26C64.43 1.58 64.63 2.08 64.68 2.78L64.68 25.06C64.66 25.75 64.39 26.35 63.88 26.86ZM49.73 27.06C49.36 27.4 48.82 27.58 48.13 27.58L47.61 27.58L47.61 27.98L59.77 27.98L59.77 27.58L59.25 27.58C58.56 27.58 57.96 27.34 57.45 26.86C56.94 26.35 56.69 25.75 56.69 25.06L56.69 2.9Q56.69 2.39 56.87 1.95Q57.06 1.5 57.45 1.14C57.96 0.63 58.56 0.37 59.25 0.37L59.77 0.37L59.77 -0.03L47.61 -0.03L47.61 0.37L48.13 0.37C48.82 0.37 49.41 0.63 49.89 1.14C50.4 1.62 50.66 2.2 50.69 2.9L50.69 13.18L37.73 13.18L37.73 2.9C37.73 2.2 37.98 1.62 38.49 1.14C39 0.63 39.6 0.37 40.29 0.37L40.77 0.37L40.81 -0.03L28.65 -0.03L28.65 0.37L29.17 0.37Q29.68 0.37 30.11 0.56Q30.56 0.75 30.93 1.14Q31.32 1.5 31.52 1.95Q31.71 2.39 31.73 2.9L31.73 25.06Q31.71 25.51 31.56 25.92Q31.36 26.43 30.93 26.86C30.45 27.34 29.86 27.58 29.17 27.58L28.65 27.58L28.65 27.98L40.81 27.98L40.77 27.58L40.29 27.58C39.6 27.58 39 27.34 38.49 26.86C37.98 26.35 37.73 25.75 37.73 25.06L37.73 14.9L50.69 14.9L50.69 25.1Q50.69 25.21 50.67 25.33Q50.55 26.24 49.73 27.06ZM76.71 58.1L76.71 34.62L82.07 34.62C82.9 34.64 83.61 34.83 84.19 35.18C85.45 35.87 86.07 37.04 86.07 38.7L86.07 39.18L86.47 39.18L86.47 32.22C86.1 32.38 85.42 32.54 84.43 32.7C83.47 32.86 82.58 32.93 81.75 32.93L65.63 32.93C63.58 32.91 62.01 32.67 60.91 32.22L60.91 39.18L61.31 39.18L61.31 38.7C61.31 37.5 61.67 36.52 62.39 35.78C63.11 35.03 64.09 34.64 65.31 34.62L70.71 34.62L70.71 58.14C70.66 58.8 70.38 59.38 69.87 59.86C69.39 60.34 68.82 60.58 68.15 60.58L67.63 60.58L67.63 60.98L79.79 60.98L79.75 60.58L79.27 60.58C78.58 60.58 77.98 60.34 77.47 59.86C76.99 59.38 76.74 58.79 76.71 58.1ZM40.58 59.86C40.1 60.34 39.51 60.58 38.82 60.58L37.88 60.58C37.16 60.58 36.52 60.35 35.96 59.9C35.42 59.44 35.09 58.83 34.96 58.06L31.56 32.41L31.2 32.41L19.28 52.82L6.88 32.41L6.52 32.41L3.2 58.06C3.09 58.83 2.76 59.44 2.2 59.9C1.66 60.35 1.02 60.58 0.28 60.58L-0.36 60.58L-0.36 60.98L8 60.98L8 60.62L7.4 60.62C6.94 60.62 6.56 60.44 6.24 60.1C5.92 59.72 5.78 59.32 5.84 58.9L7.4 44.5L17.68 61.78L18.08 61.78C18.1 60.47 18.61 58.99 19.6 57.34L27.12 44.38L28.68 58.9C28.73 59.32 28.6 59.71 28.28 60.06C27.96 60.4 27.57 60.59 27.12 60.62L26.52 60.62L26.52 60.98L59.02 60.98L60.86 52.82L60.46 52.82C59.82 54.87 58.83 56.46 57.5 57.58C56.19 58.7 54.57 59.26 52.62 59.26L47.38 59.26L47.38 48.02L52.74 48.02C53.7 48.04 54.49 48.38 55.1 49.02C55.74 49.66 56.06 50.47 56.06 51.46L56.06 51.78L56.46 51.78L56.46 42.54L56.06 42.54L56.06 42.9C56.06 43.86 55.74 44.67 55.1 45.34C54.46 45.98 53.65 46.31 52.66 46.34L47.38 46.34L47.38 34.7L54.1 34.7C54.9 34.72 55.59 34.91 56.18 35.25C57.41 35.95 58.02 37.12 58.02 38.78L58.02 39.22L58.42 39.25L58.42 32.25C58.23 32.34 57.71 32.48 56.86 32.7C56.01 32.88 54.93 32.98 53.62 32.98L38.3 32.98L38.3 33.38L38.82 33.38C39.49 33.38 40.14 33.67 40.78 34.25C41.13 34.58 41.33 35.08 41.38 35.78L41.38 58.06C41.35 58.75 41.09 59.35 40.58 59.86Z" fill="#FFFFFF" fill-opacity="1.000000" fill-rule="evenodd"/>
</svg>
