<svg width="24.000000" height="24.000000" viewBox="0 0 24 24" fill="none" xmlns="http://www.w3.org/2000/svg" xmlns:xlink="http://www.w3.org/1999/xlink">
	<desc>
			Created with Pixso.
	</desc>
	<defs>
		<clipPath id="clip8590_195">
			<rect id="Icon-Phone-call" width="24.000000" height="24.000000" fill="white" fill-opacity="0"/>
		</clipPath>
	</defs>
	<rect id="Icon-Phone-call" width="24.000000" height="24.000000" fill="#FFFFFF" fill-opacity="0"/>
	<g clip-path="url(#clip8590_195)">
		<path id="Vector" d="M20 15.37C18.78 15.37 17.58 15.17 16.48 14.82C16.12 14.7 15.74 14.79 15.46 15.06L13.9 17.03C11.07 15.67 8.41 13.12 7 10.2L8.95 8.54C9.23 8.26 9.3 7.87 9.2 7.52C8.83 6.4 8.63 5.21 8.63 3.98C8.63 3.44 8.19 3 7.65 3L4.19 3C3.65 3 3 3.23 3 3.98C3 13.28 10.73 21 20 21C20.71 21 21 20.37 21 19.82L21 16.37C21 15.83 20.54 15.37 20 15.37Z" fill="#FFFFFF" fill-opacity="1.000000" fill-rule="nonzero"/>
	</g>
</svg>
