<svg width="24" height="24" fill="none" xmlns="http://www.w3.org/2000/svg"><defs><clipPath id="clip0_200"><rect id="Icon-Phone-call" rx="-.5" width="23" height="23" transform="translate(.5 .5)" fill="#fff" fill-opacity="0"/></clipPath></defs><rect id="Icon-Phone-call" rx="-.5" width="23" height="23" transform="translate(.5 .5)" fill="#FFF" fill-opacity="0"/><g clip-path="url('#clip0_200')"><path id="Vector" d="M20.01 15.38c-1.23 0-2.42-.2-3.53-.57a.997.997 0 0 0-1.01.25l-1.58 1.97c-2.82-1.35-5.48-3.9-6.88-6.83l1.94-1.66c.27-.28.36-.67.24-1.02-.36-1.11-.56-2.31-.56-3.54A.99.99 0 0 0 7.64 3H4.18C3.64 3 3 3.23 3 3.98 3 13.28 10.73 21 20.01 21c.71 0 .99-.63.99-1.19v-3.44c0-.54-.45-.99-.99-.99Z" fill="#FFF" fill-opacity="1" fill-rule="nonzero"/></g></svg>