<svg width="24" height="24" fill="none" xmlns="http://www.w3.org/2000/svg"><defs><clipPath id="clip26_312"><rect id="Icon-Burger-menu" rx="-.5" width="23" height="23" transform="translate(.5 .5)" fill="#fff" fill-opacity="0"/></clipPath></defs><rect id="Icon-Burger-menu" rx="-.5" width="23" height="23" transform="translate(.5 .5)" fill="#FFF" fill-opacity="0"/><g clip-path="url('#clip26_312')"><path id="Vector" d="M4 18h16c.55 0 1-.45 1-1 0-.56-.45-1-1-1H4c-.56 0-1 .44-1 1 0 .55.44 1 1 1Zm0-5h16c.55 0 1-.45 1-1 0-.56-.45-1-1-1H4c-.56 0-1 .44-1 1 0 .55.44 1 1 1Zm0-7c-.56 0-1 .44-1 1 0 .55.44 1 1 1h16c.55 0 1-.45 1-1 0-.56-.45-1-1-1H4Z" fill="#FFF" fill-opacity="1" fill-rule="nonzero"/></g></svg>