<svg width="72" height="24" viewBox="0 0 72 24" fill="none" xmlns="http://www.w3.org/2000/svg">
<g clip-path="url(#clip0_41317_372)">
<path d="M20.01 15.38C18.78 15.38 17.59 15.18 16.48 14.82C16.13 14.7 15.74 14.79 15.47 15.06L13.9 17.03C11.07 15.68 8.42 13.13 7.01 10.2L8.96 8.54C9.23 8.26 9.31 7.87 9.2 7.52C8.83 6.41 8.64 5.22 8.64 3.99C8.64 3.45 8.19 3 7.65 3H4.19C3.65 3 3 3.24 3 3.99C3 13.28 10.73 21 20.01 21C20.72 21 21 20.37 21 19.82V16.37C21 15.83 20.55 15.38 20.01 15.38Z" fill="white"/>
</g>
<g clip-path="url(#clip1_41317_372)">
<path d="M51 17C51 17.5523 51.4477 18 52 18H68C68.5523 18 69 17.5523 69 17C69 16.4477 68.5523 16 68 16H52C51.4477 16 51 16.4477 51 17ZM51 12C51 12.5523 51.4477 13 52 13H68C68.5523 13 69 12.5523 69 12C69 11.4477 68.5523 11 68 11H52C51.4477 11 51 11.4477 51 12ZM52 6C51.4477 6 51 6.44772 51 7C51 7.55228 51.4477 8 52 8H68C68.5523 8 69 7.55228 69 7C69 6.44772 68.5523 6 68 6H52Z" fill="white"/>
</g>
<defs>
<clipPath id="clip0_41317_372">
<rect width="24" height="24" fill="white"/>
</clipPath>
<clipPath id="clip1_41317_372">
<rect width="24" height="24" fill="white" transform="translate(48)"/>
</clipPath>
</defs>
</svg>
