<svg width="24" height="24" viewBox="0 0 24 24" fill="none" xmlns="http://www.w3.org/2000/svg">
<path d="M11.9999 2.25C9.94039 2.25 8.24989 3.9405 8.24989 6V6.75H4.54639L4.49989 7.4535L3.74989 20.9535L3.70264 21.75H20.2964L20.2499 20.9528L19.4999 7.45275L19.4526 6.75H15.7499V6C15.7499 3.9405 14.0594 2.25 11.9999 2.25ZM11.9999 3.75C12.5966 3.75 13.1689 3.98705 13.5909 4.40901C14.0128 4.83097 14.2499 5.40326 14.2499 6V6.75H9.74989V6C9.74989 5.40326 9.98694 4.83097 10.4089 4.40901C10.8309 3.98705 11.4031 3.75 11.9999 3.75ZM5.95264 8.25H8.24989V10.5H9.74989V8.25H14.2499V10.5H15.7499V8.25H18.0471L18.7034 20.25H5.29714L5.95264 8.25Z" fill="#344F10"/>
</svg>
