<svg width="141" height="57" viewBox="0 0 141 57" fill="none" xmlns="http://www.w3.org/2000/svg">
<path d="M0.215 55.2137V1.57367H20.926C23.9308 1.57367 26.5508 2.19451 28.7858 3.43617C31.0208 4.67784 32.7591 6.35409 34.0008 8.46492C35.2424 10.5509 35.8633 12.8604 35.8633 15.3934C35.8633 18.2741 35.0934 20.8443 33.5538 23.1042C32.0141 25.3392 29.9529 26.8913 27.3703 27.7604L27.2958 25.9352C30.7724 26.9285 33.5041 28.6668 35.4908 31.1502C37.4774 33.6335 38.4708 36.6383 38.4708 40.1647C38.4708 43.2688 37.8127 45.9508 36.4965 48.2107C35.1803 50.4457 33.3303 52.1716 30.9463 53.3884C28.5623 54.6053 25.7933 55.2137 22.6395 55.2137H0.215ZM5.728 49.9614H21.2985C23.4838 49.9614 25.4457 49.5765 27.184 48.8067C28.9223 48.012 30.2882 46.8945 31.2815 45.4542C32.2997 44.0138 32.8088 42.2755 32.8088 40.2392C32.8088 38.2525 32.3493 36.4645 31.4305 34.8752C30.5117 33.2858 29.2576 32.0193 27.6683 31.0757C26.1038 30.1072 24.3158 29.6229 22.3043 29.6229H5.728V49.9614ZM5.728 24.4452H20.8888C22.6023 24.4452 24.1668 24.0603 25.5823 23.2904C26.9978 22.4958 28.1153 21.4155 28.9348 20.0497C29.7791 18.6838 30.2013 17.1069 30.2013 15.3189C30.2013 12.7859 29.3197 10.7248 27.5565 9.13542C25.8182 7.54609 23.5956 6.75142 20.8888 6.75142H5.728V24.4452ZM63.1512 56.3312C60.1712 56.3312 57.4023 55.909 54.8445 55.0647C52.3115 54.1955 50.1882 52.8421 48.4747 51.0044C47.1337 49.5641 46.1404 47.9623 45.4947 46.1992C44.849 44.4112 44.489 42.5238 44.4145 40.5372C44.3896 38.6498 44.6628 36.7749 45.234 34.9124C45.8051 33.0499 46.6991 31.3985 47.916 29.9582C48.6361 29.0642 49.4432 28.3192 50.3372 27.7232C51.256 27.1272 52.1997 26.6181 53.1682 26.1959C51.3057 24.2589 49.8778 22.4709 48.8845 20.8319C47.916 19.1681 47.4317 17.1318 47.4317 14.7229C47.4317 11.9664 48.127 9.44584 49.5177 7.16117C50.9332 4.87651 52.8826 3.17542 55.366 2.05792C56.6325 1.48676 57.9238 1.08942 59.24 0.865922C60.581 0.617589 61.9095 0.493423 63.2257 0.493423C65.2372 0.493423 67.2115 0.779006 69.1485 1.35017C71.0855 1.89651 72.7369 2.76568 74.1027 3.95767C75.0215 4.67784 75.8286 5.53459 76.524 6.52792C77.2193 7.49643 77.7656 8.51459 78.163 9.58243L72.8735 11.1469C72.352 9.80592 71.4828 8.67601 70.266 7.75717C69.3223 7.01218 68.2296 6.49067 66.988 6.19267C65.7711 5.89467 64.5419 5.74567 63.3002 5.74567C61.1894 5.74567 59.2772 6.15542 57.5637 6.97492C56.0737 7.71992 54.9562 8.75051 54.2112 10.0667C53.4662 11.3828 53.0937 12.9225 53.0937 14.6857C53.0937 16.2005 53.342 17.4546 53.8387 18.4479C54.3354 19.4164 55.0555 20.4718 55.9992 21.6142C56.5455 22.2102 57.154 22.8186 57.8245 23.4394C58.495 24.0354 59.1779 24.6563 59.8732 25.3019L76.8592 41.0587C76.9585 40.3633 77.0206 39.6928 77.0455 39.0472C77.0703 38.3767 77.0827 37.7186 77.0827 37.0729L77.0455 29.2132H82.2232V37.4454C82.2232 39.4073 82.1487 41.009 81.9997 42.2507C81.8507 43.4923 81.652 44.5229 81.4037 45.3424L88.3322 51.7122L84.719 55.5489L78.7962 49.9614C77.9767 51.0293 76.9337 51.9853 75.6672 52.8297C74.4255 53.674 73.1839 54.3321 71.9422 54.8039C70.6012 55.3999 69.1857 55.7973 67.6957 55.9959C66.2057 56.2194 64.6909 56.3312 63.1512 56.3312ZM63.2257 51.0417C64.6412 51.0417 65.9201 50.9548 67.0625 50.7809C68.2048 50.6071 69.2975 50.247 70.3405 49.7007C71.6566 49.0053 72.6375 48.3597 73.2832 47.7637C73.9289 47.1428 74.4504 46.5965 74.8477 46.1247L57.4147 30.1817C56.3717 30.5045 55.3908 30.9515 54.472 31.5227C53.578 32.069 52.8081 32.7271 52.1625 33.4969C51.4423 34.3909 50.9084 35.4215 50.5607 36.5887C50.213 37.7558 50.0392 38.9851 50.0392 40.2764C50.0889 41.6423 50.3124 42.9088 50.7097 44.0759C51.1319 45.2183 51.7527 46.2364 52.5722 47.1304C53.7394 48.4963 55.3039 49.4896 57.2657 50.1104C59.2275 50.7313 61.2142 51.0417 63.2257 51.0417ZM116.148 56.3312C110.809 56.3312 106.302 55.1516 102.626 52.7924C98.951 50.4084 96.1696 47.118 94.2823 42.9212C92.395 38.7243 91.4513 33.8818 91.4513 28.3937C91.4513 22.9055 92.395 18.063 94.2823 13.8662C96.1696 9.66934 98.951 6.39134 102.626 4.03217C106.302 1.64817 110.809 0.456175 116.148 0.456175C121.512 0.456175 126.019 1.64817 129.67 4.03217C133.345 6.39134 136.126 9.66934 138.014 13.8662C139.926 18.063 140.882 22.9055 140.882 28.3937C140.882 33.8818 139.926 38.7243 138.014 42.9212C136.126 47.118 133.345 50.4084 129.67 52.7924C126.019 55.1516 121.512 56.3312 116.148 56.3312ZM116.148 51.0789C120.345 51.0789 123.846 50.1228 126.653 48.2107C129.459 46.2985 131.557 43.6413 132.948 40.2392C134.363 36.8122 135.071 32.8637 135.071 28.3937C135.071 23.9237 134.363 19.9876 132.948 16.5854C131.557 13.1833 129.459 10.5261 126.653 8.61392C123.846 6.70176 120.345 5.73326 116.148 5.70842C111.951 5.70842 108.462 6.66451 105.681 8.57667C102.899 10.4888 100.801 13.1584 99.3856 16.5854C97.9949 19.9876 97.2871 23.9237 97.2623 28.3937C97.2375 32.8637 97.9204 36.7998 99.3111 40.2019C100.727 43.5793 102.837 46.2364 105.644 48.1734C108.45 50.0856 111.951 51.0541 116.148 51.0789Z" fill="#1B2129"/>
</svg>
