<svg width="36" height="15" viewBox="0 0 36 15" fill="none" xmlns="http://www.w3.org/2000/svg">
<path d="M0.414297 13.8882V0.928183H5.5083C6.3303 0.928183 7.0203 1.09618 7.5783 1.43218C8.1363 1.76818 8.5563 2.20318 8.8383 2.73718C9.1203 3.26518 9.2613 3.82318 9.2613 4.41118C9.2613 5.12518 9.0843 5.73718 8.7303 6.24718C8.3823 6.75718 7.9113 7.10518 7.3173 7.29118L7.2993 6.85018C8.1273 7.05418 8.7633 7.45318 9.2073 8.04718C9.6513 8.63518 9.8733 9.32218 9.8733 10.1082C9.8733 10.8702 9.7203 11.5332 9.4143 12.0972C9.1143 12.6612 8.6733 13.1022 8.0913 13.4202C7.5153 13.7322 6.8163 13.8882 5.9943 13.8882H0.414297ZM2.3223 12.0972H5.7063C6.1323 12.0972 6.5133 12.0162 6.8493 11.8542C7.1913 11.6922 7.4583 11.4612 7.6503 11.1612C7.8483 10.8552 7.9473 10.4922 7.9473 10.0722C7.9473 9.68218 7.8603 9.33118 7.6863 9.01918C7.5183 8.70118 7.2723 8.45218 6.9483 8.27218C6.6303 8.08618 6.2553 7.99318 5.8233 7.99318H2.3223V12.0972ZM2.3223 6.22018H5.4813C5.8293 6.22018 6.1413 6.15118 6.4173 6.01318C6.6993 5.86918 6.9213 5.66518 7.0833 5.40118C7.2513 5.13118 7.3353 4.80718 7.3353 4.42918C7.3353 3.92518 7.1673 3.51118 6.8313 3.18718C6.4953 2.86318 6.0453 2.70118 5.4813 2.70118H2.3223V6.22018ZM15.9213 14.1582C15.1953 14.1582 14.5173 14.0532 13.8873 13.8432C13.2573 13.6272 12.7293 13.2912 12.3033 12.8352C11.9733 12.4692 11.7273 12.0672 11.5653 11.6292C11.4093 11.1852 11.3223 10.7142 11.3043 10.2162C11.3043 9.73018 11.3733 9.25918 11.5113 8.80318C11.6553 8.34118 11.8803 7.93018 12.1863 7.57018C12.3243 7.40218 12.4773 7.25818 12.6453 7.13818C12.8133 7.01218 12.9813 6.90118 13.1493 6.80518C12.7653 6.38518 12.4743 5.98618 12.2763 5.60818C12.0783 5.22418 11.9793 4.77118 11.9793 4.24918C11.9793 3.51718 12.1713 2.86018 12.5553 2.27818C12.9393 1.69018 13.4643 1.26718 14.1303 1.00918C14.4363 0.883183 14.7483 0.799183 15.0663 0.757183C15.3843 0.709183 15.6933 0.685182 15.9933 0.685182C16.5333 0.685182 17.0553 0.763183 17.5593 0.919183C18.0633 1.07518 18.4953 1.33018 18.8553 1.68418C19.0833 1.89418 19.2753 2.13118 19.4313 2.39518C19.5933 2.65918 19.7163 2.92918 19.8003 3.20518L17.9463 3.63718C17.8443 3.34918 17.6763 3.10618 17.4423 2.90818C17.2443 2.73418 17.0133 2.61718 16.7493 2.55718C16.4913 2.49118 16.2333 2.45818 15.9753 2.45818C15.5493 2.45818 15.1653 2.53918 14.8233 2.70118C14.5113 2.85118 14.2773 3.05818 14.1213 3.32218C13.9653 3.58018 13.8873 3.89218 13.8873 4.25818C13.8873 4.58218 13.9443 4.84318 14.0583 5.04118C14.1723 5.23918 14.3253 5.44618 14.5173 5.66218C14.6313 5.78818 14.7663 5.92318 14.9223 6.06718C15.0843 6.21118 15.2493 6.36118 15.4173 6.51718L18.9453 9.80218C18.9573 9.67018 18.9663 9.52918 18.9723 9.37918C18.9783 9.22918 18.9813 9.08518 18.9813 8.94718L18.9723 7.26418H20.6553V9.48718C20.6553 9.86518 20.6433 10.2072 20.6193 10.5132C20.6013 10.8132 20.5653 11.0592 20.5113 11.2512L22.1313 12.7542L20.9163 14.0592L19.6113 12.8172C19.3353 13.0932 19.0263 13.3272 18.6843 13.5192C18.3423 13.7052 17.9973 13.8432 17.6493 13.9332C17.3553 14.0232 17.0643 14.0832 16.7763 14.1132C16.4943 14.1432 16.2093 14.1582 15.9213 14.1582ZM15.9753 12.3582C16.2153 12.3582 16.4373 12.3462 16.6413 12.3222C16.8453 12.2922 17.0403 12.2382 17.2263 12.1602C17.4783 12.0582 17.6823 11.9532 17.8383 11.8452C18.0003 11.7372 18.1353 11.6322 18.2433 11.5302L14.5533 8.14618C14.3673 8.21218 14.1933 8.29918 14.0313 8.40718C13.8753 8.50918 13.7403 8.62918 13.6263 8.76718C13.4883 8.94118 13.3833 9.14518 13.3113 9.37918C13.2453 9.60718 13.2153 9.85318 13.2213 10.1172C13.2213 10.4052 13.2663 10.6692 13.3563 10.9092C13.4523 11.1432 13.5753 11.3532 13.7253 11.5392C13.9653 11.8272 14.2983 12.0372 14.7243 12.1692C15.1563 12.2952 15.5733 12.3582 15.9753 12.3582ZM33.7433 14.1492L30.1253 10.5492L31.3313 9.34318L34.9313 12.9432L33.7433 14.1492ZM28.9913 14.1582C27.6953 14.1582 26.5913 13.8762 25.6793 13.3122C24.7673 12.7422 24.0683 11.9502 23.5823 10.9362C23.1023 9.92218 22.8623 8.74618 22.8623 7.40818C22.8623 6.07018 23.1023 4.89418 23.5823 3.88018C24.0683 2.86618 24.7673 2.07718 25.6793 1.51318C26.5913 0.943183 27.6953 0.658183 28.9913 0.658183C30.2813 0.658183 31.3823 0.943183 32.2943 1.51318C33.2123 2.07718 33.9113 2.86618 34.3913 3.88018C34.8713 4.89418 35.1113 6.07018 35.1113 7.40818C35.1113 8.74618 34.8713 9.92218 34.3913 10.9362C33.9113 11.9502 33.2123 12.7422 32.2943 13.3122C31.3823 13.8762 30.2813 14.1582 28.9913 14.1582ZM28.9913 12.3672C29.9093 12.3792 30.6713 12.1782 31.2773 11.7642C31.8893 11.3442 32.3483 10.7622 32.6543 10.0182C32.9603 9.26818 33.1133 8.39818 33.1133 7.40818C33.1133 6.41818 32.9603 5.55418 32.6543 4.81618C32.3483 4.07218 31.8893 3.49318 31.2773 3.07918C30.6713 2.66518 29.9093 2.45518 28.9913 2.44918C28.0733 2.43718 27.3083 2.63818 26.6963 3.05218C26.0903 3.46618 25.6343 4.04818 25.3283 4.79818C25.0223 5.54818 24.8663 6.41818 24.8603 7.40818C24.8543 8.39818 25.0043 9.26518 25.3103 10.0092C25.6163 10.7472 26.0753 11.3232 26.6873 11.7372C27.3053 12.1512 28.0733 12.3612 28.9913 12.3672Z" fill="black"/>
</svg>
