<svg width="137" height="24" viewBox="0 0 137 24" fill="none" xmlns="http://www.w3.org/2000/svg">
<path d="M5.844 7.68C6.332 7.784 6.724 8.028 7.02 8.412C7.316 8.788 7.464 9.22 7.464 9.708C7.464 10.412 7.216 10.972 6.72 11.388C6.232 11.796 5.548 12 4.668 12H0.744V3.576H4.536C5.392 3.576 6.06 3.772 6.54 4.164C7.028 4.556 7.272 5.088 7.272 5.76C7.272 6.256 7.14 6.668 6.876 6.996C6.62 7.324 6.276 7.552 5.844 7.68ZM2.796 6.984H4.14C4.476 6.984 4.732 6.912 4.908 6.768C5.092 6.616 5.184 6.396 5.184 6.108C5.184 5.82 5.092 5.6 4.908 5.448C4.732 5.296 4.476 5.22 4.14 5.22H2.796V6.984ZM4.308 10.344C4.652 10.344 4.916 10.268 5.1 10.116C5.292 9.956 5.388 9.728 5.388 9.432C5.388 9.136 5.288 8.904 5.088 8.736C4.896 8.568 4.628 8.484 4.284 8.484H2.796V10.344H4.308ZM14.6382 12.084C13.8462 12.084 13.1182 11.9 12.4542 11.532C11.7982 11.164 11.2742 10.652 10.8822 9.996C10.4982 9.332 10.3062 8.588 10.3062 7.764C10.3062 6.94 10.4982 6.2 10.8822 5.544C11.2742 4.888 11.7982 4.376 12.4542 4.008C13.1182 3.64 13.8462 3.456 14.6382 3.456C15.4302 3.456 16.1542 3.64 16.8102 4.008C17.4742 4.376 17.9942 4.888 18.3702 5.544C18.7542 6.2 18.9462 6.94 18.9462 7.764C18.9462 8.588 18.7542 9.332 18.3702 9.996C17.9862 10.652 17.4662 11.164 16.8102 11.532C16.1542 11.9 15.4302 12.084 14.6382 12.084ZM14.6382 10.212C15.3102 10.212 15.8462 9.988 16.2462 9.54C16.6542 9.092 16.8582 8.5 16.8582 7.764C16.8582 7.02 16.6542 6.428 16.2462 5.988C15.8462 5.54 15.3102 5.316 14.6382 5.316C13.9582 5.316 13.4142 5.536 13.0062 5.976C12.6062 6.416 12.4062 7.012 12.4062 7.764C12.4062 8.508 12.6062 9.104 13.0062 9.552C13.4142 9.992 13.9582 10.212 14.6382 10.212ZM26.0718 12.084C25.2798 12.084 24.5518 11.9 23.8878 11.532C23.2318 11.164 22.7078 10.652 22.3158 9.996C21.9317 9.332 21.7397 8.588 21.7397 7.764C21.7397 6.94 21.9317 6.2 22.3158 5.544C22.7078 4.888 23.2318 4.376 23.8878 4.008C24.5518 3.64 25.2798 3.456 26.0718 3.456C26.8638 3.456 27.5878 3.64 28.2438 4.008C28.9078 4.376 29.4278 4.888 29.8038 5.544C30.1878 6.2 30.3798 6.94 30.3798 7.764C30.3798 8.588 30.1878 9.332 29.8038 9.996C29.4198 10.652 28.8998 11.164 28.2438 11.532C27.5878 11.9 26.8638 12.084 26.0718 12.084ZM26.0718 10.212C26.7438 10.212 27.2798 9.988 27.6797 9.54C28.0878 9.092 28.2918 8.5 28.2918 7.764C28.2918 7.02 28.0878 6.428 27.6797 5.988C27.2798 5.54 26.7438 5.316 26.0718 5.316C25.3918 5.316 24.8478 5.536 24.4398 5.976C24.0398 6.416 23.8398 7.012 23.8398 7.764C23.8398 8.508 24.0398 9.104 24.4398 9.552C24.8478 9.992 25.3918 10.212 26.0718 10.212ZM38.4053 12L35.5733 8.28V12H33.5213V3.576H35.5733V7.272L38.3813 3.576H40.7933L37.5293 7.704L40.9133 12H38.4053ZM53.6755 10.512H50.5315L50.0275 12H47.8795L50.9275 3.576H53.3035L56.3515 12H54.1795L53.6755 10.512ZM53.1475 8.928L52.1035 5.844L51.0715 8.928H53.1475ZM69.8821 3.576V5.22H67.6501V12H65.5981V5.22H63.3661V3.576H69.8821ZM74.964 5.22V6.924H77.712V8.508H74.964V10.356H78.072V12H72.912V3.576H78.072V5.22H74.964ZM84.4522 12.084C83.8362 12.084 83.2842 11.984 82.7962 11.784C82.3082 11.584 81.9162 11.288 81.6202 10.896C81.3322 10.504 81.1802 10.032 81.1642 9.48H83.3482C83.3802 9.792 83.4882 10.032 83.6722 10.2C83.8562 10.36 84.0962 10.44 84.3922 10.44C84.6962 10.44 84.9362 10.372 85.1122 10.236C85.2882 10.092 85.3762 9.896 85.3762 9.648C85.3762 9.44 85.3042 9.268 85.1602 9.132C85.0242 8.996 84.8522 8.884 84.6442 8.796C84.4442 8.708 84.1562 8.608 83.7802 8.496C83.2362 8.328 82.7922 8.16 82.4482 7.992C82.1042 7.824 81.8082 7.576 81.5602 7.248C81.3122 6.92 81.1882 6.492 81.1882 5.964C81.1882 5.18 81.4722 4.568 82.0402 4.128C82.6082 3.68 83.3482 3.456 84.2602 3.456C85.1882 3.456 85.9362 3.68 86.5042 4.128C87.0722 4.568 87.3762 5.184 87.4162 5.976H85.1962C85.1802 5.704 85.0802 5.492 84.8962 5.34C84.7122 5.18 84.4762 5.1 84.1882 5.1C83.9402 5.1 83.7402 5.168 83.5882 5.304C83.4362 5.432 83.3602 5.62 83.3602 5.868C83.3602 6.14 83.4882 6.352 83.7442 6.504C84.0002 6.656 84.4002 6.82 84.9442 6.996C85.4882 7.18 85.9282 7.356 86.2642 7.524C86.6082 7.692 86.9042 7.936 87.1522 8.256C87.4002 8.576 87.5242 8.988 87.5242 9.492C87.5242 9.972 87.4002 10.408 87.1522 10.8C86.9122 11.192 86.5602 11.504 86.0962 11.736C85.6322 11.968 85.0842 12.084 84.4522 12.084ZM96.847 3.576V5.22H94.615V12H92.563V5.22H90.331V3.576H96.847ZM108.716 12L106.964 8.82H106.472V12H104.42V3.576H107.864C108.528 3.576 109.092 3.692 109.556 3.924C110.028 4.156 110.38 4.476 110.612 4.884C110.844 5.284 110.96 5.732 110.96 6.228C110.96 6.788 110.8 7.288 110.48 7.728C110.168 8.168 109.704 8.48 109.088 8.664L111.032 12H108.716ZM106.472 7.368H107.744C108.12 7.368 108.4 7.276 108.584 7.092C108.776 6.908 108.872 6.648 108.872 6.312C108.872 5.992 108.776 5.74 108.584 5.556C108.4 5.372 108.12 5.28 107.744 5.28H106.472V7.368ZM116.3 3.576V12H114.248V3.576H116.3ZM122.943 3.576C123.831 3.576 124.607 3.752 125.271 4.104C125.935 4.456 126.447 4.952 126.807 5.592C127.175 6.224 127.359 6.956 127.359 7.788C127.359 8.612 127.175 9.344 126.807 9.984C126.447 10.624 125.931 11.12 125.259 11.472C124.595 11.824 123.823 12 122.943 12H119.787V3.576H122.943ZM122.811 10.224C123.587 10.224 124.191 10.012 124.623 9.588C125.055 9.164 125.271 8.564 125.271 7.788C125.271 7.012 125.055 6.408 124.623 5.976C124.191 5.544 123.587 5.328 122.811 5.328H121.839V10.224H122.811ZM132.558 5.22V6.924H135.306V8.508H132.558V10.356H135.666V12H130.506V3.576H135.666V5.22H132.558Z" fill="#1D1D1D"/>
<line x1="0.5" y1="23.5" x2="136.5" y2="23.5" stroke="#1D1D1D" stroke-linecap="round"/>
</svg>
