<svg width="60" height="17" viewBox="0 0 60 17" fill="none" xmlns="http://www.w3.org/2000/svg">
<path d="M3.46238 3.46V5.732H7.12638V7.844H3.46238V10.308H7.60638V12.5H0.726375V1.268H7.60638V3.46H3.46238ZM14.6626 12.5L12.9506 10.02L11.5106 12.5H8.55063L11.4946 7.94L8.47063 3.572H11.5426L13.2546 6.036L14.6946 3.572H17.6546L14.6626 8.068L17.7346 12.5H14.6626ZM21.5249 4.836C21.7915 4.42 22.1595 4.084 22.6289 3.828C23.0982 3.572 23.6475 3.444 24.2769 3.444C25.0129 3.444 25.6795 3.63067 26.2769 4.004C26.8742 4.37733 27.3435 4.91067 27.6849 5.604C28.0369 6.29733 28.2129 7.10267 28.2129 8.02C28.2129 8.93733 28.0369 9.748 27.6849 10.452C27.3435 11.1453 26.8742 11.684 26.2769 12.068C25.6795 12.4413 25.0129 12.628 24.2769 12.628C23.6582 12.628 23.1089 12.5 22.6289 12.244C22.1595 11.988 21.7915 11.6573 21.5249 11.252V16.756H18.7889V3.572H21.5249V4.836ZM25.4289 8.02C25.4289 7.33733 25.2369 6.804 24.8529 6.42C24.4795 6.02533 24.0155 5.828 23.4609 5.828C22.9169 5.828 22.4529 6.02533 22.0689 6.42C21.6955 6.81467 21.5089 7.35333 21.5089 8.036C21.5089 8.71867 21.6955 9.25733 22.0689 9.652C22.4529 10.0467 22.9169 10.244 23.4609 10.244C24.0049 10.244 24.4689 10.0467 24.8529 9.652C25.2369 9.24667 25.4289 8.70267 25.4289 8.02ZM32.3843 0.66V12.5H29.6483V0.66H32.3843ZM38.431 12.628C37.5563 12.628 36.767 12.4413 36.063 12.068C35.3697 11.6947 34.8203 11.1613 34.415 10.468C34.0203 9.77467 33.823 8.964 33.823 8.036C33.823 7.11867 34.0257 6.31333 34.431 5.62C34.8363 4.916 35.391 4.37733 36.095 4.004C36.799 3.63067 37.5883 3.444 38.463 3.444C39.3377 3.444 40.127 3.63067 40.831 4.004C41.535 4.37733 42.0897 4.916 42.495 5.62C42.9003 6.31333 43.103 7.11867 43.103 8.036C43.103 8.95333 42.895 9.764 42.479 10.468C42.0737 11.1613 41.5137 11.6947 40.799 12.068C40.095 12.4413 39.3057 12.628 38.431 12.628ZM38.431 10.26C38.9537 10.26 39.3963 10.068 39.759 9.684C40.1323 9.3 40.319 8.75067 40.319 8.036C40.319 7.32133 40.1377 6.772 39.775 6.388C39.423 6.004 38.9857 5.812 38.463 5.812C37.9297 5.812 37.487 6.004 37.135 6.388C36.783 6.76133 36.607 7.31067 36.607 8.036C36.607 8.75067 36.7777 9.3 37.119 9.684C37.471 10.068 37.9083 10.26 38.431 10.26ZM47.2905 5.06C47.6105 4.56933 48.0105 4.18533 48.4905 3.908C48.9705 3.62 49.5038 3.476 50.0905 3.476V6.372H49.3385C48.6558 6.372 48.1438 6.52133 47.8025 6.82C47.4612 7.108 47.2905 7.62 47.2905 8.356V12.5H44.5545V3.572H47.2905V5.06ZM59.8142 7.892C59.8142 8.148 59.7983 8.41467 59.7663 8.692H53.5743C53.6169 9.24667 53.7929 9.67333 54.1023 9.972C54.4223 10.26 54.8116 10.404 55.2703 10.404C55.9529 10.404 56.4276 10.116 56.6943 9.54H59.6063C59.4569 10.1267 59.1849 10.6547 58.7903 11.124C58.4063 11.5933 57.9209 11.9613 57.3343 12.228C56.7476 12.4947 56.0916 12.628 55.3663 12.628C54.4916 12.628 53.7129 12.4413 53.0303 12.068C52.3476 11.6947 51.8143 11.1613 51.4303 10.468C51.0463 9.77467 50.8543 8.964 50.8543 8.036C50.8543 7.108 51.0409 6.29733 51.4143 5.604C51.7983 4.91067 52.3316 4.37733 53.0143 4.004C53.6969 3.63067 54.4809 3.444 55.3663 3.444C56.2303 3.444 56.9983 3.62533 57.6703 3.988C58.3423 4.35067 58.8649 4.868 59.2383 5.54C59.6223 6.212 59.8142 6.996 59.8142 7.892ZM57.0143 7.172C57.0143 6.70267 56.8543 6.32933 56.5343 6.052C56.2143 5.77467 55.8143 5.636 55.3343 5.636C54.8756 5.636 54.4863 5.76933 54.1663 6.036C53.8569 6.30267 53.6649 6.68133 53.5903 7.172H57.0143Z" fill="#1D1D1D"/>
</svg>
