<svg width="51" height="53" viewBox="0 0 51 53" fill="none" xmlns="http://www.w3.org/2000/svg">
<path fill-rule="evenodd" clip-rule="evenodd" d="M29.3147 15.4099C29.3147 16.9287 29.91 18.3259 31.0344 19.4532C32.6159 21.0359 34.3479 21.2521 35.5262 21.1571C36.9281 21.042 38.3381 20.4001 39.3011 19.4385L39.5473 19.1916C40.2552 18.4818 40.6892 18.0466 41.1118 17.6358L44.0154 20.4708L46.0541 18.4188L46.0817 18.3682L43.2211 15.4991L45.2557 13.4573L43.1287 11.325L41.0938 13.3688C41.0938 13.3688 35.1476 7.39307 34.4099 6.64598C34.0136 6.24254 33.7707 5.81792 33.7707 5.14359C33.7707 4.42894 34.0923 3.95206 34.366 3.6798C34.7636 3.27978 35.3494 3.03109 35.8854 3.03109C36.7028 3.03109 37.2072 3.46527 37.3796 3.6494L37.4239 3.6938L37.4682 3.65145L38.6768 2.44386L39.511 1.60761L39.5468 1.56559L39.4902 1.50239C38.9433 0.941471 37.7415 0 35.8782 0C34.4583 0 33.1433 0.567752 32.1794 1.59736C31.276 2.55898 30.7608 3.84753 30.7608 5.13368C30.7608 7.26975 31.9735 8.58255 32.8312 9.38192L31.0218 11.1573C29.9692 12.2111 29.3147 13.843 29.3147 15.4099ZM33.156 13.3015L34.9527 11.4989L38.975 15.4929C38.7913 15.6825 38.0123 16.4706 37.1547 17.3229C36.1188 18.344 34.4031 18.5585 33.156 17.3103C32.6118 16.7613 32.3245 16.0808 32.3245 15.3372C32.3245 14.588 32.6366 13.8249 33.156 13.3015ZM46.2649 28.1179C43.5159 25.3717 39.8584 23.8608 35.9693 23.8608C32.0805 23.8608 28.4227 25.3717 25.673 28.1179C22.924 30.8668 21.4094 34.517 21.4094 38.4005C21.4094 42.2847 22.924 45.9324 25.673 48.6786C28.4227 51.4264 32.0805 52.9377 35.9693 52.9377C39.8584 52.9377 43.5159 51.4264 46.2649 48.6786C49.0153 45.9324 50.5306 42.2847 50.5306 38.4005C50.5306 34.517 49.0153 30.8668 46.2649 28.1179ZM35.9693 49.1975C33.0802 49.1975 30.3633 48.0731 28.3216 46.0338C26.2788 43.9948 25.1503 41.282 25.1503 38.4005C25.1503 35.5131 26.2788 32.8027 28.3216 30.7638C30.3633 28.7207 33.0802 27.598 35.9693 27.598C38.8584 27.598 41.5743 28.7207 43.6184 30.7638C45.6585 32.8027 46.7856 35.5131 46.7856 38.4005C46.7856 44.3533 41.9344 49.1975 35.9693 49.1975ZM21.4329 17.4294C21.4329 23.6163 18.044 29.2587 12.5781 32.1751C14.1394 33.1651 15.4538 34.532 16.3633 36.1398C17.3244 37.8254 17.8331 39.7473 17.8331 41.6973C17.8331 44.7081 16.6541 47.5416 14.519 49.6751C12.3884 51.8048 9.54854 52.9787 6.53064 52.9787H0.997091L0.988892 0.719514H4.70139C9.17032 0.719514 13.3738 2.45659 16.5369 5.6162C19.6993 8.7724 21.4329 12.9687 21.4329 17.4294ZM13.887 8.25831C11.4472 5.82361 8.20102 4.4768 4.754 4.46077V30.4002C8.20102 30.3841 11.4472 29.037 13.887 26.6033C16.3432 24.155 17.6879 20.8961 17.6879 17.4294C17.6879 13.9669 16.3432 10.7104 13.887 8.25831ZM4.754 49.2395H6.52654C10.6917 49.2395 14.0807 45.8561 14.0807 41.6973C14.0807 39.6822 13.2969 37.7895 11.8712 36.3615C10.443 34.9393 8.53073 34.1574 6.51082 34.1574C6.51082 34.1574 5.06081 34.1493 4.754 34.1493V49.2395Z" fill="#191817"/>
</svg>
