<?xml version="1.0" standalone="no"?>
<!DOCTYPE svg PUBLIC "-//W3C//DTD SVG 20010904//EN"
 "http://www.w3.org/TR/2001/REC-SVG-20010904/DTD/svg10.dtd">
<svg version="1.0" xmlns="http://www.w3.org/2000/svg"
 width="43.000000pt" height="48.000000pt" viewBox="0 0 43.000000 48.000000"
 preserveAspectRatio="xMidYMid meet">

<g transform="translate(0.000000,48.000000) scale(0.100000,-0.100000)"
fill="#000000" stroke="none">
<path d="M44 455 c-7 -17 12 -45 31 -45 19 0 36 25 29 44 -8 20 -53 21 -60 1z"/>
<path d="M314 455 c-7 -17 12 -45 31 -45 19 0 36 25 29 44 -8 20 -53 21 -60 1z"/>
<path d="M52 358 c-7 -7 -8 -17 -2 -29 8 -14 21 -17 62 -16 49 2 53 4 53 27 0
23 -4 25 -51 27 -28 1 -56 -3 -62 -9z"/>
<path d="M314 356 c-10 -26 4 -48 28 -44 33 4 33 52 0 56 -13 2 -25 -3 -28
-12z"/>
<path d="M326 267 c-26 -19 -17 -52 14 -52 18 0 26 6 28 21 4 30 -20 47 -42
31z"/>
<path d="M45 260 c-11 -17 5 -50 24 -50 28 0 46 26 31 45 -14 17 -46 20 -55 5z"/>
<path d="M184 256 c-10 -26 4 -48 28 -44 17 2 23 10 23 28 0 18 -6 26 -23 28
-13 2 -25 -3 -28 -12z"/>
<path d="M47 157 c-3 -8 1 -23 8 -34 11 -14 18 -16 32 -7 28 17 23 48 -8 52
-16 2 -29 -3 -32 -11z"/>
<path d="M245 152 c-3 -8 1 -23 10 -31 13 -13 19 -13 35 -3 16 10 24 10 40 0
16 -10 22 -10 35 3 9 8 13 23 10 31 -9 23 -121 23 -130 0z"/>
<path d="M52 57 c-16 -19 8 -50 34 -45 28 5 26 52 -2 56 -11 2 -26 -3 -32 -11z"/>
<path d="M314 55 c-7 -17 12 -45 31 -45 19 0 36 25 29 44 -8 20 -53 21 -60 1z"/>
</g>
</svg>
