<?xml version="1.0" encoding="utf-8"?>
<!-- Generator: Adobe Illustrator 26.3.1, SVG Export Plug-In . SVG Version: 6.00 Build 0)  -->
<svg version="1.1" id="Layer_1" xmlns="http://www.w3.org/2000/svg" xmlns:xlink="http://www.w3.org/1999/xlink" x="0px" y="0px"
	 viewBox="0 0 245.78 190.22" style="enable-background:new 0 0 245.78 190.22;" xml:space="preserve">
<style type="text/css">
	.st0{fill:#B2B2B2;}
	.st1{fill:#575756;}
	.st2{fill:#706F6F;}
	.st3{fill:#36A9E1;}
	.st4{fill:#FFFFFF;}
	.st5{fill:#3C3C3B;}
	.st6{fill:none;stroke:#FFFFFF;stroke-width:2;stroke-miterlimit:10;}
	.st7{fill:#2C86B0;}
	.st8{fill:#9D9D9C;}
	.st9{opacity:0.4;fill:#9D9D9C;}
</style>
<g>
	<path d="M173.31,36.75c6.93-7.7,12.51-7.38,18.95,0.78c4.61-5.82,8.29-7.47,13-5.7c4.42,1.66,6.72,5.05,6.55,9.63
		c-0.18,4.59-2.82,7.77-7.32,9.06c-4.86,1.4-8.42-0.55-12.11-6.42c-5.85,8.65-11.78,9.18-19.07,1.34
		c-2.79,2.98-5.69,6.03-10.35,5.43c-2.58-0.34-4.77-1.39-6.45-3.43c-3.6-4.36-3.15-10.17,1.1-13.84
		C162.36,29.51,167.46,30.48,173.31,36.75z"/>
	<path d="M173.14,159.68c-0.76,0.88-1.44,1.82-2.27,2.6c-4.13,3.94-9.93,3.91-13.86-0.03c-3.79-3.8-3.94-9.53-0.35-13.48
		c3.58-3.93,10.04-4.45,13.82-0.53c2.25,2.33,3.19,2.5,5.5,0.04c3.64-3.87,9.12-3.71,13.42,0.15c1.88,1.69,2.76,1.9,4.76,0.11
		c4.56-4.09,10.61-3.8,14.24,0.21c3.57,3.94,3.45,9.78-0.27,13.53c-4,4.02-9.42,3.9-14.25-0.33c-1.04-0.91-1.47-2.42-3.5-0.81
		C182.92,167.07,179.74,166.7,173.14,159.68z"/>
	<path d="M48.53,79.63c-3.03,0.55-5.6-4.79-8.36-4.45c-2.86,0.36-5.29,4.54-9.4,4.34c-4.51-0.21-7.71-2.33-8.94-6.59
		c-1.24-4.3-0.36-8.31,3.58-11.04c4.06-2.82,8.41-2.67,11.92,0.56c2.48,2.28,3.6,2.36,6.11,0.02c3.5-3.26,7.85-3.43,11.88-0.52
		c3.79,2.74,5.01,6.57,3.58,11C57.51,77.2,54.36,79.32,48.53,79.63z"/>
	<path d="M97.51,123.67c3.87-5.96,7.78-7.94,12.54-6.4c4.44,1.44,6.79,4.66,6.95,9.29c0.16,4.41-2.99,8.35-7.33,9.54
		c-4.46,1.22-8.38-0.78-12.19-6.59c-1.46,2.52-2.99,4.77-5.62,5.91c-2.77,1.21-5.42,1.27-8.16-0.01c-4.11-1.92-6.01-5.34-5.69-9.62
		c0.32-4.31,2.79-7.43,7.12-8.63C90.01,115.81,93.76,117.78,97.51,123.67z"/>
	<path d="M230.33,126.27c0.11,5.6-3.9,9.91-9.43,10.13c-5.4,0.21-10.25-4.54-10.22-10.03c0.03-5.02,4.39-9.33,9.63-9.5
		C225.95,116.69,230.22,120.69,230.33,126.27z"/>
	<path d="M107.13,145.55c5.37-0.05,9.81,4.33,9.89,9.75c0.08,5.33-4.39,9.9-9.73,9.93c-5.37,0.03-9.75-4.36-9.81-9.82
		C97.42,149.85,101.57,145.6,107.13,145.55z"/>
	<path d="M40.03,40.9c0.05,5.35-4.38,9.91-9.69,9.98c-5.49,0.06-9.81-4.18-9.86-9.67c-0.05-5.48,4.21-9.93,9.59-10.02
		C35.33,31.1,39.98,35.63,40.03,40.9z"/>
	<path d="M117.01,41.02c0.04,5.34-4.45,9.86-9.79,9.85c-5.51-0.01-9.75-4.28-9.74-9.8c0.01-5.47,4.34-9.87,9.71-9.9
		C112.53,31.16,116.97,35.6,117.01,41.02z"/>
	<path d="M221.1,88.88c5.53,0.19,9.47,4.55,9.21,10.19c-0.26,5.56-4.58,9.54-10.15,9.33c-5.29-0.2-9.75-5.04-9.43-10.23
		C211.05,92.82,215.66,88.7,221.1,88.88z"/>
	<path d="M154.13,97.7c0.02,5.63-4.03,9.73-9.63,9.77c-5.42,0.04-9.85-4.28-9.9-9.64c-0.05-5.34,4.39-9.84,9.76-9.88
		C149.75,87.92,154.11,92.26,154.13,97.7z"/>
	<path d="M21.41,126.69c-0.05-5.74,3.91-9.81,9.54-9.82c5.49-0.01,9.92,4.25,9.99,9.6c0.07,5.27-4.44,9.88-9.72,9.94
		C25.82,136.47,21.46,132.15,21.41,126.69z"/>
	<path d="M106.29,107.48c-5.45-0.03-9.77-4.36-9.75-9.78c0.02-5.34,4.52-9.78,9.88-9.74c5.38,0.04,9.65,4.43,9.66,9.9
		C116.08,103.4,111.9,107.51,106.29,107.48z"/>
	<path d="M154.12,126.48c0.04,5.47-4.21,9.86-9.6,9.92c-5.29,0.06-9.88-4.43-9.93-9.71c-0.06-5.35,4.29-9.73,9.75-9.83
		C149.88,116.78,154.08,120.91,154.12,126.48z"/>
	<path d="M31.1,145.65c5.42,0.05,9.9,4.49,9.83,9.74c-0.07,5.25-4.73,9.88-9.9,9.82c-5.43-0.06-9.65-4.41-9.61-9.9
		C21.46,149.62,25.49,145.6,31.1,145.65z"/>
	<path d="M106.46,79.51c-5.58-0.01-9.93-4.29-9.91-9.75c0.02-5.37,4.56-9.79,10.01-9.74c5.37,0.05,9.64,4.59,9.53,10.14
		C115.96,75.61,111.94,79.52,106.46,79.51z"/>
	<path d="M154.12,69.8c0,5.75-4.05,9.79-9.75,9.71c-5.32-0.07-9.64-4.23-9.75-9.39c-0.12-5.59,4.59-10.26,10.17-10.1
		C149.99,60.17,154.12,64.51,154.12,69.8z"/>
	<path d="M220.43,79.51c-5.51-0.11-9.91-4.63-9.72-9.97c0.19-5.19,5.14-9.75,10.34-9.51c5.17,0.24,9.29,4.63,9.28,9.9
		C230.32,75.55,226.11,79.62,220.43,79.51z"/>
	<path d="M68.84,88.88c5.46-0.11,9.96,4.06,10.15,9.43c0.19,5.31-4.14,9.91-9.5,10.09c-5.44,0.18-9.82-3.98-10-9.49
		C59.3,93.33,63.35,88.99,68.84,88.88z"/>
	<path d="M30.06,88.89c5.42-0.08,9.95,4.33,9.97,9.71c0.03,5.39-4.47,9.84-9.89,9.81c-5.26-0.04-9.51-4.2-9.66-9.47
		C20.34,93.45,24.6,88.97,30.06,88.89z"/>
</g>
</svg>
