<svg width="64" height="64" viewBox="0 0 64 64" fill="none" xmlns="http://www.w3.org/2000/svg">
<path d="M20.5909 33.0002H17.7273V23.5559H13.9091V19.7782H25.3636V23.5559H21.5455V28.8353L40.2794 23.8695L39.1721 19.7782H33V16.0005H40.5944C41.0217 15.9911 41.4399 16.124 41.7819 16.3778C42.1239 16.6315 42.3699 16.9916 42.4805 17.4001L45.4454 28.348L41.757 29.3245L41.2683 27.5187L20.5909 33.0002ZM19.6364 46.2223C20.649 46.2223 21.6202 45.8243 22.3362 45.1158C23.0523 44.4073 23.4545 43.4465 23.4545 42.4445C23.4545 41.4426 23.0523 40.4818 22.3362 39.7733C21.6202 39.0648 20.649 38.6668 19.6364 38.6668C18.6237 38.6668 17.6525 39.0648 16.9365 39.7733C16.2205 40.4818 15.8182 41.4426 15.8182 42.4445C15.8182 43.4465 16.2205 44.4073 16.9365 45.1158C17.6525 45.8243 18.6237 46.2223 19.6364 46.2223V46.2223ZM19.6364 50C17.6111 50 15.6687 49.204 14.2366 47.7871C12.8045 46.3701 12 44.4484 12 42.4445C12 40.4407 12.8045 38.519 14.2366 37.102C15.6687 35.6851 17.6111 34.8891 19.6364 34.8891C21.6617 34.8891 23.604 35.6851 25.0361 37.102C26.4682 38.519 27.2727 40.4407 27.2727 42.4445C27.2727 44.4484 26.4682 46.3701 25.0361 47.7871C23.604 49.204 21.6617 50 19.6364 50V50ZM44.4545 46.2223C45.9735 46.2223 47.4303 45.6253 48.5043 44.5626C49.5784 43.4999 50.1818 42.0586 50.1818 40.5557C50.1818 39.0528 49.5784 37.6115 48.5043 36.5488C47.4303 35.4861 45.9735 34.8891 44.4545 34.8891C42.9356 34.8891 41.4788 35.4861 40.4048 36.5488C39.3307 37.6115 38.7273 39.0528 38.7273 40.5557C38.7273 42.0586 39.3307 43.4999 40.4048 44.5626C41.4788 45.6253 42.9356 46.2223 44.4545 46.2223ZM44.4545 50C41.9229 50 39.495 49.005 37.7049 47.2338C35.9148 45.4627 34.9091 43.0605 34.9091 40.5557C34.9091 38.0509 35.9148 35.6487 37.7049 33.8775C39.495 32.1064 41.9229 31.1114 44.4545 31.1114C46.9862 31.1114 49.4141 32.1064 51.2042 33.8775C52.9943 35.6487 54 38.0509 54 40.5557C54 43.0605 52.9943 45.4627 51.2042 47.2338C49.4141 49.005 46.9862 50 44.4545 50Z" fill="#1D1D1D"/>
</svg>
