<svg width="24" height="10" viewBox="0 0 24 10" fill="none" xmlns="http://www.w3.org/2000/svg">
<path d="M0.84 9V0.36H4.176C4.66 0.36 5.082 0.46 5.442 0.659999C5.802 0.86 6.082 1.13 6.282 1.47C6.482 1.806 6.582 2.178 6.582 2.586C6.582 3.05 6.458 3.464 6.21 3.828C5.962 4.188 5.63 4.438 5.214 4.578L5.202 4.284C5.762 4.444 6.202 4.724 6.522 5.124C6.842 5.524 7.002 6.008 7.002 6.576C7.002 7.076 6.896 7.508 6.684 7.872C6.472 8.232 6.174 8.51 5.79 8.706C5.406 8.902 4.96 9 4.452 9H0.84ZM1.728 8.154H4.236C4.588 8.154 4.904 8.092 5.184 7.968C5.464 7.84 5.684 7.66 5.844 7.428C6.008 7.196 6.09 6.916 6.09 6.588C6.09 6.268 6.016 5.98 5.868 5.724C5.72 5.468 5.518 5.264 5.262 5.112C5.01 4.956 4.722 4.878 4.398 4.878H1.728V8.154ZM1.728 4.044H4.17C4.446 4.044 4.698 3.982 4.926 3.858C5.154 3.73 5.334 3.556 5.466 3.336C5.602 3.116 5.67 2.862 5.67 2.574C5.67 2.166 5.528 1.834 5.244 1.578C4.964 1.322 4.606 1.194 4.17 1.194H1.728V4.044ZM10.9774 9.18C10.4974 9.18 10.0514 9.112 9.63938 8.976C9.23138 8.836 8.88938 8.618 8.61338 8.322C8.39738 8.09 8.23738 7.832 8.13338 7.548C8.02938 7.26 7.97138 6.956 7.95938 6.636C7.95538 6.332 7.99938 6.03 8.09138 5.73C8.18338 5.43 8.32738 5.164 8.52338 4.932C8.63938 4.788 8.76938 4.668 8.91338 4.572C9.06138 4.476 9.21338 4.394 9.36938 4.326C9.06938 4.014 8.83938 3.726 8.67938 3.462C8.52338 3.194 8.44538 2.866 8.44538 2.478C8.44538 2.034 8.55738 1.628 8.78138 1.26C9.00938 0.891999 9.32338 0.618 9.72338 0.438C9.92738 0.346 10.1354 0.282 10.3474 0.245999C10.5634 0.205999 10.7774 0.185999 10.9894 0.185999C11.3134 0.185999 11.6314 0.231999 11.9434 0.323999C12.2554 0.412 12.5214 0.552 12.7414 0.744C12.8894 0.859999 13.0194 0.997999 13.1314 1.158C13.2434 1.314 13.3314 1.478 13.3954 1.65L12.5434 1.902C12.4594 1.686 12.3194 1.504 12.1234 1.356C11.9714 1.236 11.7954 1.152 11.5954 1.104C11.3994 1.056 11.2014 1.032 11.0014 1.032C10.6614 1.032 10.3534 1.098 10.0774 1.23C9.83738 1.35 9.65738 1.516 9.53738 1.728C9.41738 1.94 9.35738 2.188 9.35738 2.472C9.35738 2.716 9.39738 2.918 9.47738 3.078C9.55738 3.234 9.67338 3.404 9.82538 3.588C9.91338 3.684 10.0114 3.782 10.1194 3.882C10.2274 3.978 10.3374 4.078 10.4494 4.182L13.1854 6.72C13.2014 6.608 13.2114 6.5 13.2154 6.396C13.2194 6.288 13.2214 6.182 13.2214 6.078L13.2154 4.812H14.0494V6.138C14.0494 6.454 14.0374 6.712 14.0134 6.912C13.9894 7.112 13.9574 7.278 13.9174 7.41L15.0334 8.436L14.4514 9.054L13.4974 8.154C13.3654 8.326 13.1974 8.48 12.9934 8.616C12.7934 8.752 12.5934 8.858 12.3934 8.934C12.1774 9.03 11.9494 9.094 11.7094 9.126C11.4694 9.162 11.2254 9.18 10.9774 9.18ZM10.9894 8.328C11.2174 8.328 11.4234 8.314 11.6074 8.286C11.7914 8.258 11.9674 8.2 12.1354 8.112C12.3474 8 12.5054 7.896 12.6094 7.8C12.7134 7.7 12.7974 7.612 12.8614 7.536L10.0534 4.968C9.88538 5.02 9.72738 5.092 9.57938 5.184C9.43538 5.272 9.31138 5.378 9.20738 5.502C9.09138 5.646 9.00538 5.812 8.94938 6C8.89338 6.188 8.86538 6.386 8.86538 6.594C8.87338 6.814 8.90938 7.018 8.97338 7.206C9.04138 7.39 9.14138 7.554 9.27338 7.698C9.46138 7.918 9.71338 8.078 10.0294 8.178C10.3454 8.278 10.6654 8.328 10.9894 8.328ZM19.5138 9.18C18.6538 9.18 17.9278 8.99 17.3358 8.61C16.7438 8.226 16.2958 7.696 15.9918 7.02C15.6878 6.344 15.5358 5.564 15.5358 4.68C15.5358 3.796 15.6878 3.016 15.9918 2.34C16.2958 1.664 16.7438 1.136 17.3358 0.756C17.9278 0.372 18.6538 0.18 19.5138 0.18C20.3778 0.18 21.1038 0.372 21.6918 0.756C22.2838 1.136 22.7318 1.664 23.0358 2.34C23.3438 3.016 23.4978 3.796 23.4978 4.68C23.4978 5.564 23.3438 6.344 23.0358 7.02C22.7318 7.696 22.2838 8.226 21.6918 8.61C21.1038 8.99 20.3778 9.18 19.5138 9.18ZM19.5138 8.334C20.1898 8.334 20.7538 8.18 21.2058 7.872C21.6578 7.564 21.9958 7.136 22.2198 6.588C22.4478 6.036 22.5618 5.4 22.5618 4.68C22.5618 3.96 22.4478 3.326 22.2198 2.778C21.9958 2.23 21.6578 1.802 21.2058 1.494C20.7538 1.186 20.1898 1.03 19.5138 1.026C18.8378 1.026 18.2758 1.18 17.8278 1.488C17.3798 1.796 17.0418 2.226 16.8138 2.778C16.5898 3.326 16.4758 3.96 16.4718 4.68C16.4678 5.4 16.5778 6.034 16.8018 6.582C17.0298 7.126 17.3698 7.554 17.8218 7.866C18.2738 8.174 18.8378 8.33 19.5138 8.334Z" fill="#1B2129"/>
</svg>
