<svg width="22" height="22" viewBox="0 0 22 22" fill="none" xmlns="http://www.w3.org/2000/svg">
<path d="M20.5925 3.55611C21.1859 2.9628 21.1859 2.00085 20.5925 1.40754C19.9992 0.814226 19.0373 0.814226 18.444 1.40754L11.0002 8.85135L3.55635 1.40754C2.96304 0.814225 2.00109 0.814226 1.40778 1.40754C0.81447 2.00085 0.81447 2.9628 1.40778 3.55611L8.85159 10.9999L1.40778 18.4437C0.814469 19.037 0.81447 19.999 1.40778 20.5923C2.00109 21.1856 2.96304 21.1856 3.55635 20.5923L11.0002 13.1485L18.444 20.5923C19.0373 21.1856 19.9992 21.1856 20.5925 20.5923C21.1859 19.999 21.1859 19.037 20.5925 18.4437L13.1487 10.9999L20.5925 3.55611Z" fill="#1B2129"/>
</svg>
