<svg width="32.000000" height="32.000000" viewBox="0 0 32 32" fill="none" xmlns="http://www.w3.org/2000/svg" xmlns:xlink="http://www.w3.org/1999/xlink">
	<desc>
			Created with Pixso.
	</desc>
	<defs>
		<clipPath id="clip41317_276">
			<rect id="Icon-Burger-menu" rx="-0.500000" width="31.000000" height="31.000000" transform="translate(0.500000 0.500000)" fill="white" fill-opacity="0"/>
		</clipPath>
	</defs>
	<rect id="Icon-Burger-menu" rx="-0.500000" width="31.000000" height="31.000000" transform="translate(0.500000 0.500000)" fill="#FFFFFF" fill-opacity="0"/>
	<g clip-path="url(#clip41317_276)">
		<path id="Vector" d="M5.33 24L26.66 24C27.4 24 28 23.4 28 22.66C28 21.93 27.4 21.33 26.66 21.33L5.33 21.33C4.59 21.33 4 21.93 4 22.66C4 23.4 4.59 24 5.33 24ZM5.33 17.33L26.66 17.33C27.4 17.33 28 16.73 28 16C28 15.26 27.4 14.66 26.66 14.66L5.33 14.66C4.59 14.66 4 15.26 4 16C4 16.73 4.59 17.33 5.33 17.33ZM5.33 8C4.59 8 4 8.59 4 9.33C4 10.06 4.59 10.66 5.33 10.66L26.66 10.66C27.4 10.66 28 10.06 28 9.33C28 8.59 27.4 8 26.66 8L5.33 8Z" fill="#FFFFFF" fill-opacity="1.000000" fill-rule="nonzero"/>
	</g>
</svg>
