<svg width="24.000000" height="24.000000" viewBox="0 0 24 24" fill="none" xmlns="http://www.w3.org/2000/svg" xmlns:xlink="http://www.w3.org/1999/xlink">
	<desc>
			Created with Pixso.
	</desc>
	<defs>
		<clipPath id="clip26_315">
			<rect id="Icon-Burger-menu-hover" rx="-0.500000" width="23.000000" height="23.000000" transform="translate(0.500000 0.500000)" fill="white" fill-opacity="0"/>
		</clipPath>
	</defs>
	<rect id="Icon-Burger-menu-hover" rx="-0.500000" width="23.000000" height="23.000000" transform="translate(0.500000 0.500000)" fill="#FFFFFF" fill-opacity="0"/>
	<g clip-path="url(#clip26_315)">
		<path id="Vector" d="M4 18L11 18C11.55 18 12 17.55 12 17C12 16.44 11.55 16 11 16L4 16C3.44 16 3 16.44 3 17C3 17.55 3.44 18 4 18ZM4 13L20 13C20.55 13 21 12.55 21 12C21 11.44 20.55 11 20 11L4 11C3.44 11 3 11.44 3 12C3 12.55 3.44 13 4 13ZM4 6C3.44 6 3 6.44 3 7C3 7.55 3.44 8 4 8L15 8C15.55 8 16 7.55 16 7C16 6.44 15.55 6 15 6L4 6Z" fill="#FFFFFF" fill-opacity="1.000000" fill-rule="nonzero"/>
	</g>
</svg>
