<svg width="40.000000" height="40.000000" viewBox="0 0 40 40" fill="none" xmlns="http://www.w3.org/2000/svg" xmlns:xlink="http://www.w3.org/1999/xlink">
	<desc>
			Created with Pixso.
	</desc>
	<defs>
		<filter id="filter_41317_275_dd" x="0.000000" y="0.000000" width="40.000000" height="40.000000" filterUnits="userSpaceOnUse" color-interpolation-filters="sRGB">
			<feFlood flood-opacity="0" result="BackgroundImageFix"/>
			<feColorMatrix in="SourceAlpha" type="matrix" values="0 0 0 0 0 0 0 0 0 0 0 0 0 0 0 0 0 0 127 0" result="hardAlpha"/>
			<feOffset dx="0" dy="4"/>
			<feGaussianBlur stdDeviation="1.33333"/>
			<feComposite in2="hardAlpha" operator="out" k2="-1" k3="1"/>
			<feColorMatrix type="matrix" values="0 0 0 0 0 0 0 0 0 0 0 0 0 0 0 0 0 0 0.25 0"/>
			<feBlend mode="normal" in2="BackgroundImageFix" result="effect_dropShadow_1"/>
			<feBlend mode="normal" in="SourceGraphic" in2="effect_dropShadow_1" result="shape"/>
		</filter>
		<clipPath id="clip41317_275">
			<rect id="Icon-Phone-call" rx="-0.500000" width="31.000000" height="31.000000" transform="translate(4.500000 0.500000)" fill="white" fill-opacity="0"/>
		</clipPath>
	</defs>
	<g filter="url(#filter_41317_275_dd)">
		<rect id="Icon-Phone-call" rx="-0.500000" width="31.000000" height="31.000000" transform="translate(4.500000 0.500000)" fill="#FFFFFF" fill-opacity="0"/>
		<g clip-path="url(#clip41317_275)">
			<path id="Vector" d="M30.68 20.5C29.04 20.5 27.45 20.24 25.97 19.76C25.5 19.6 24.98 19.71 24.62 20.08L22.53 22.7C18.75 20.9 15.22 17.5 13.34 13.6L15.94 11.38C16.3 11.01 16.41 10.49 16.26 10.02C15.77 8.54 15.52 6.95 15.52 5.31C15.52 4.59 14.91 4 14.2 4L9.58 4C8.86 4 8 4.31 8 5.31C8 17.7 18.3 28 30.68 28C31.62 28 32 27.16 32 26.42L32 21.82C32 21.1 31.39 20.5 30.68 20.5Z" fill="#FFFFFF" fill-opacity="1.000000" fill-rule="nonzero"/>
		</g>
	</g>
</svg>
