<svg width="32" height="32" viewBox="0 0 32 32" fill="none" xmlns="http://www.w3.org/2000/svg">
<g id="Icon-Close">
<path id="Vector" d="M25.5925 8.55611C26.1859 7.9628 26.1859 7.00085 25.5925 6.40754C24.9992 5.81423 24.0373 5.81423 23.444 6.40754L16.0002 13.8513L8.55635 6.40754C7.96304 5.81422 7.00109 5.81423 6.40778 6.40754C5.81447 7.00085 5.81447 7.9628 6.40778 8.55611L13.8516 15.9999L6.40778 23.4437C5.81447 24.037 5.81447 24.999 6.40778 25.5923C7.00109 26.1856 7.96304 26.1856 8.55635 25.5923L16.0002 18.1485L23.444 25.5923C24.0373 26.1856 24.9992 26.1856 25.5925 25.5923C26.1859 24.999 26.1859 24.037 25.5925 23.4437L18.1487 15.9999L25.5925 8.55611Z" fill="#1B2129"/>
</g>
</svg>
