<?xml version="1.0" standalone="no"?>
<!DOCTYPE svg PUBLIC "-//W3C//DTD SVG 20010904//EN"
 "http://www.w3.org/TR/2001/REC-SVG-20010904/DTD/svg10.dtd">
<svg version="1.0" xmlns="http://www.w3.org/2000/svg"
 width="344.000000pt" height="48.000000pt" viewBox="0 0 344.000000 48.000000"
 preserveAspectRatio="xMidYMid meet">

<g transform="translate(0.000000,48.000000) scale(0.100000,-0.100000)"
fill="#000000" stroke="none">
<path d="M44 455 c-7 -17 12 -45 31 -45 19 0 36 25 29 44 -8 20 -53 21 -60 1z"/>
<path d="M314 455 c-7 -17 12 -45 31 -45 19 0 36 25 29 44 -8 20 -53 21 -60 1z"/>
<path d="M513 454 c-9 -24 23 -51 45 -38 12 8 22 8 35 0 12 -8 22 -8 34 0 13
8 23 8 35 0 22 -13 54 14 45 38 -7 17 -57 22 -57 6 0 -6 -8 -5 -20 2 -16 10
-24 10 -40 0 -12 -7 -20 -8 -20 -2 0 16 -50 11 -57 -6z"/>
<path d="M845 452 c-3 -8 1 -23 10 -31 13 -13 19 -13 35 -3 16 9 24 10 39 0
15 -9 23 -9 37 3 13 11 18 11 21 2 5 -15 39 -17 48 -3 4 6 13 5 25 -3 15 -9
25 -9 38 -1 12 8 22 8 33 1 23 -14 49 -2 49 23 0 25 -26 37 -49 23 -11 -7 -22
-7 -34 1 -12 8 -22 8 -35 0 -12 -8 -22 -8 -35 0 -12 8 -22 8 -37 -2 -11 -7
-20 -8 -20 -3 0 5 -27 9 -59 9 -45 0 -61 -4 -66 -16z"/>
<path d="M1247 457 c-3 -8 1 -23 8 -34 11 -14 18 -16 32 -7 28 17 23 48 -8 52
-16 2 -29 -3 -32 -11z"/>
<path d="M1514 455 c-7 -17 12 -45 31 -45 19 0 36 25 29 44 -8 20 -53 21 -60
1z"/>
<path d="M1657 463 c-13 -12 -7 -44 8 -49 8 -4 22 -1 29 5 11 9 19 9 35 -1 15
-9 23 -10 32 -1 8 8 16 9 29 1 25 -16 52 -3 48 24 -3 21 -9 23 -60 25 -39 1
-58 -2 -58 -9 0 -9 -3 -9 -12 0 -13 13 -41 16 -51 5z"/>
<path d="M1927 464 c-10 -11 -9 -42 3 -49 20 -12 51 6 48 28 -3 22 -36 35 -51
21z"/>
<path d="M2184 456 c-10 -26 4 -48 28 -44 17 2 23 10 23 28 0 18 -6 26 -23 28
-13 2 -25 -3 -28 -12z"/>
<path d="M2384 455 c-4 -8 -4 -22 0 -30 6 -17 42 -20 51 -5 4 6 13 5 25 -3 15
-9 24 -9 39 0 13 8 21 9 29 1 8 -8 18 -8 34 -1 16 7 28 7 40 -1 22 -13 54 14
45 38 -7 19 -57 22 -57 4 0 -9 -3 -9 -12 0 -15 15 -58 16 -58 2 0 -6 -8 -5
-20 2 -16 10 -24 10 -40 1 -12 -8 -21 -9 -25 -3 -9 15 -45 12 -51 -5z"/>
<path d="M2857 424 c-12 -12 -8 -41 8 -54 20 -17 47 5 43 34 -3 21 -37 34 -51
20z"/>
<path d="M3317 413 c-14 -13 -7 -43 12 -53 15 -7 23 -6 35 6 19 19 20 26 4 42
-13 13 -41 16 -51 5z"/>
<path d="M2994 376 c-10 -26 4 -48 28 -44 17 2 23 10 23 28 0 18 -6 26 -23 28
-13 2 -25 -3 -28 -12z"/>
<path d="M3064 375 c-4 -8 -4 -22 0 -30 6 -17 42 -20 51 -5 4 6 13 5 24 -2 24
-15 51 -4 51 22 0 26 -27 37 -51 22 -11 -7 -20 -8 -24 -2 -9 15 -45 12 -51 -5z"/>
<path d="M1987 363 c-11 -11 -17 -13 -17 -5 0 18 -47 14 -54 -5 -4 -9 0 -23 9
-32 13 -13 19 -14 36 -2 15 9 24 10 32 2 17 -17 35 -13 47 8 7 15 6 23 -6 35
-20 20 -26 20 -47 -1z"/>
<path d="M2325 367 c-20 -16 -15 -44 11 -54 23 -9 51 23 38 44 -14 23 -27 26
-49 10z"/>
<path d="M49 354 c-9 -11 -9 -17 1 -29 14 -17 50 -20 50 -5 0 6 7 6 19 -1 26
-17 53 -4 49 23 -3 20 -9 23 -55 25 -34 1 -56 -3 -64 -13z"/>
<path d="M314 356 c-10 -26 4 -48 28 -44 33 4 33 52 0 56 -13 2 -25 -3 -28
-12z"/>
<path d="M446 354 c-13 -33 30 -58 53 -30 16 20 3 46 -24 46 -13 0 -26 -7 -29
-16z"/>
<path d="M714 356 c-10 -26 4 -48 28 -44 17 2 23 10 23 28 0 18 -6 26 -23 28
-13 2 -25 -3 -28 -12z"/>
<path d="M984 356 c-10 -26 4 -48 28 -44 17 2 23 10 23 28 0 18 -6 26 -23 28
-13 2 -25 -3 -28 -12z"/>
<path d="M1250 355 c-15 -19 3 -45 31 -45 19 0 35 33 24 50 -9 15 -41 12 -55
-5z"/>
<path d="M1514 355 c-7 -17 12 -45 31 -45 7 0 18 7 25 15 10 12 10 18 0 30
-16 19 -49 19 -56 0z"/>
<path d="M1716 354 c-7 -19 10 -44 29 -44 19 0 36 25 29 44 -3 9 -16 16 -29
16 -13 0 -26 -7 -29 -16z"/>
<path d="M2184 356 c-10 -26 4 -48 28 -44 17 2 23 10 23 28 0 18 -6 26 -23 28
-13 2 -25 -3 -28 -12z"/>
<path d="M2801 337 c-25 -31 20 -71 48 -42 12 12 13 19 5 33 -15 22 -38 26
-53 9z"/>
<path d="M3373 343 c-15 -6 -17 -49 -3 -58 20 -12 50 6 50 30 0 18 -21 40 -33
34 -1 0 -8 -3 -14 -6z"/>
<path d="M2997 313 c-12 -11 -8 -51 6 -56 9 -4 9 -8 -1 -15 -22 -15 -11 -56
16 -60 27 -4 40 23 23 49 -8 15 -8 23 0 38 7 10 9 26 6 35 -6 16 -38 22 -50 9z"/>
<path d="M3193 313 c-17 -6 -16 -38 1 -52 28 -23 68 17 45 45 -12 14 -24 16
-46 7z"/>
<path d="M326 267 c-26 -19 -17 -52 14 -52 18 0 26 6 28 21 4 30 -20 47 -42
31z"/>
<path d="M454 266 c-20 -15 -14 -43 12 -53 20 -8 47 19 39 39 -9 23 -30 29
-51 14z"/>
<path d="M1924 266 c-20 -15 -14 -43 12 -53 20 -8 47 19 39 39 -9 23 -30 29
-51 14z"/>
<path d="M2063 273 c-18 -7 -16 -52 2 -59 18 -7 45 12 45 32 0 16 -30 33 -47
27z"/>
<path d="M2598 266 c-10 -10 -17 -11 -30 -2 -13 8 -23 8 -36 0 -12 -8 -22 -8
-33 -1 -23 14 -49 2 -49 -23 0 -25 26 -37 49 -23 11 7 22 7 34 -1 12 -8 22 -8
35 0 12 8 22 8 34 1 18 -12 48 6 48 29 0 22 -37 37 -52 20z"/>
<path d="M45 260 c-11 -17 5 -50 24 -50 28 0 46 26 31 45 -14 17 -46 20 -55 5z"/>
<path d="M184 256 c-10 -26 4 -48 28 -44 17 2 23 10 23 28 0 18 -6 26 -23 28
-13 2 -25 -3 -28 -12z"/>
<path d="M714 256 c-10 -26 4 -48 28 -44 17 2 23 10 23 28 0 18 -6 26 -23 28
-13 2 -25 -3 -28 -12z"/>
<path d="M984 256 c-10 -26 4 -48 28 -44 17 2 23 10 23 28 0 18 -6 26 -23 28
-13 2 -25 -3 -28 -12z"/>
<path d="M1250 255 c-25 -30 30 -61 58 -33 9 9 12 9 12 0 0 -14 36 -16 45 -2
4 6 13 5 25 -3 15 -9 25 -9 38 -1 12 8 22 8 35 0 12 -8 22 -8 35 0 12 8 22 8
33 1 23 -14 49 -2 49 23 0 25 -26 37 -49 23 -11 -7 -22 -7 -34 1 -12 8 -22 8
-35 0 -12 -8 -22 -8 -35 0 -12 8 -22 8 -37 -1 -12 -8 -21 -9 -25 -3 -9 14 -42
12 -49 -2 -5 -10 -7 -10 -12 0 -8 17 -39 15 -54 -3z"/>
<path d="M1716 254 c-8 -20 11 -44 34 -44 20 0 32 23 24 45 -8 20 -50 19 -58
-1z"/>
<path d="M2184 256 c-10 -26 4 -48 28 -44 17 2 23 10 23 28 0 18 -6 26 -23 28
-13 2 -25 -3 -28 -12z"/>
<path d="M2316 254 c-8 -20 11 -44 34 -44 20 0 32 23 24 45 -8 20 -50 19 -58
-1z"/>
<path d="M2801 257 c-25 -31 20 -71 48 -42 12 12 13 19 5 33 -15 22 -38 26
-53 9z"/>
<path d="M3364 256 c-10 -26 4 -48 28 -44 17 2 23 10 23 28 0 18 -6 26 -23 28
-13 2 -25 -3 -28 -12z"/>
<path d="M3070 235 c-7 -8 -10 -22 -6 -30 9 -24 37 -30 51 -12 11 15 13 15 28
0 17 -18 44 -12 54 13 3 8 -1 23 -10 31 -14 14 -18 15 -39 1 -20 -13 -25 -13
-36 -2 -16 18 -27 18 -42 -1z"/>
<path d="M2801 177 c-25 -31 20 -71 48 -42 12 12 13 19 5 33 -15 22 -38 26
-53 9z"/>
<path d="M3364 176 c-10 -26 4 -48 28 -44 17 2 23 10 23 28 0 18 -6 26 -23 28
-13 2 -25 -3 -28 -12z"/>
<path d="M46 154 c-10 -26 19 -52 42 -38 9 6 17 20 17 30 0 26 -50 32 -59 8z"/>
<path d="M245 152 c-3 -8 1 -23 10 -31 13 -13 19 -13 35 -3 16 10 24 10 40 0
16 -10 22 -10 35 3 9 8 13 23 10 31 -9 23 -121 23 -130 0z"/>
<path d="M444 155 c-7 -17 12 -45 31 -45 19 0 36 25 29 44 -8 20 -53 21 -60 1z"/>
<path d="M714 156 c-10 -26 4 -48 28 -44 17 2 23 10 23 28 0 18 -6 26 -23 28
-13 2 -25 -3 -28 -12z"/>
<path d="M984 156 c-10 -26 4 -48 28 -44 17 2 23 10 23 28 0 18 -6 26 -23 28
-13 2 -25 -3 -28 -12z"/>
<path d="M1250 155 c-15 -19 3 -45 31 -45 23 0 32 15 24 40 -7 24 -37 26 -55
5z"/>
<path d="M1514 155 c-7 -17 12 -45 31 -45 19 0 36 25 29 44 -8 20 -53 21 -60
1z"/>
<path d="M1720 155 c-10 -12 -10 -18 0 -30 26 -32 68 -8 54 30 -4 8 -14 15
-24 15 -10 0 -23 -7 -30 -15z"/>
<path d="M1914 155 c-7 -17 12 -45 31 -45 19 0 36 25 29 44 -8 20 -53 21 -60
1z"/>
<path d="M2113 154 c-9 -24 23 -51 45 -38 12 8 22 8 33 1 23 -14 49 -2 49 23
0 26 -27 37 -51 21 -12 -7 -19 -7 -19 -1 0 16 -50 11 -57 -6z"/>
<path d="M2321 156 c-16 -20 -3 -46 24 -46 27 0 40 26 24 46 -15 18 -33 18
-48 0z"/>
<path d="M2590 155 c-10 -12 -10 -18 0 -30 26 -32 68 -8 54 30 -4 8 -14 15
-24 15 -10 0 -23 -7 -30 -15z"/>
<path d="M2994 156 c-10 -26 4 -48 28 -44 17 2 23 10 23 28 0 18 -6 26 -23 28
-13 2 -25 -3 -28 -12z"/>
<path d="M3145 157 c-20 -16 -15 -44 11 -54 23 -9 51 23 38 44 -14 23 -27 26
-49 10z"/>
<path d="M2854 106 c-10 -26 4 -48 28 -44 17 2 23 10 23 28 0 18 -6 26 -23 28
-13 2 -25 -3 -28 -12z"/>
<path d="M3314 98 c-12 -40 45 -60 60 -21 4 9 1 22 -5 29 -17 21 -47 17 -55
-8z"/>
<path d="M2997 94 c-13 -13 -7 -52 9 -58 22 -9 46 13 42 38 -3 21 -37 34 -51
20z"/>
<path d="M3184 75 c-15 -38 29 -62 56 -30 10 12 10 18 0 30 -16 19 -49 19 -56
0z"/>
<path d="M50 55 c-10 -12 -10 -18 0 -30 20 -25 55 -15 55 15 0 30 -35 40 -55
15z"/>
<path d="M314 55 c-7 -17 12 -45 31 -45 19 0 36 25 29 44 -8 20 -53 21 -60 1z"/>
<path d="M515 60 c-11 -18 6 -50 25 -50 10 0 22 4 25 10 4 6 13 5 25 -3 16 -9
24 -9 40 1 12 7 20 8 20 2 0 -15 36 -12 49 4 23 27 2 45 -52 44 -29 0 -57 -5
-64 -10 -7 -5 -14 -5 -18 2 -8 13 -42 13 -50 0z"/>
<path d="M984 56 c-10 -26 4 -48 28 -44 17 2 23 10 23 28 0 18 -6 26 -23 28
-13 2 -25 -3 -28 -12z"/>
<path d="M1251 56 c-17 -20 -2 -46 25 -46 29 0 41 24 24 45 -16 19 -34 19 -49
1z"/>
<path d="M1514 55 c-7 -17 12 -45 31 -45 19 0 36 25 29 44 -8 20 -53 21 -60 1z"/>
<path d="M1654 55 c-14 -37 26 -61 54 -33 9 9 12 9 12 0 0 -7 19 -10 58 -9 51
2 57 4 60 25 4 27 -23 40 -48 24 -13 -8 -21 -7 -29 1 -9 9 -16 9 -31 -1 -12
-7 -21 -8 -25 -2 -9 15 -45 12 -51 -5z"/>
<path d="M1921 56 c-16 -20 -3 -46 24 -46 27 0 40 26 24 46 -15 18 -33 18 -48
0z"/>
<path d="M2186 54 c-7 -19 10 -44 29 -44 19 0 36 25 29 44 -8 21 -50 21 -58 0z"/>
<path d="M2384 55 c-4 -8 -4 -22 0 -30 6 -17 42 -20 51 -5 4 6 13 5 25 -3 15
-9 25 -9 37 -1 12 8 23 8 34 1 23 -14 49 -2 49 23 0 25 -26 37 -49 23 -11 -7
-21 -7 -33 1 -13 8 -23 8 -38 -1 -12 -8 -21 -9 -25 -3 -9 15 -45 12 -51 -5z"/>
</g>
</svg>
