<svg width="168" height="40" viewBox="0 0 168 40" fill="none" xmlns="http://www.w3.org/2000/svg">
<path d="M18.32 20.4C19.12 20.4 25.48 19.44 25.48 13.48C25.48 6.44 20.28 6.68 14.72 6.68H5V7C6.76 7 7.32 9.72 7.32 12.2V29.36C7.32 32.08 6.72 34.48 5 34.48V34.84H14.72C21.64 34.84 27.36 34.68 27.36 27.68C27.36 20.84 20.92 20.4 18.32 20.4ZM14.72 7.36C16.6 7.36 19.92 7.44 19.92 13.4C19.92 19.32 16.88 20.24 14.72 20.24H13.16V7.36H14.72ZM14.72 34.16H13.16V20.92H14.72C17.4 20.92 21.48 21.12 21.48 27.48C21.48 34.24 18.2 34.16 14.72 34.16Z" fill="#1C1A26"/>
<path d="M41.1841 30.72C40.8241 31.68 39.9041 32.76 38.5441 32.76C35.9441 32.76 35.9441 30.12 35.9441 30.12C35.9441 28.08 37.2641 26.2 41.1841 25.32C41.1841 25.32 41.1841 30.64 41.1841 30.72ZM48.1441 32.76C46.1841 32.76 46.2241 29.96 46.2241 29.96V24C46.2241 19.28 44.7841 16 39.5441 16C39.5441 16 37.4641 15.84 35.6641 16.8C33.4641 17.96 32.9441 19.04 32.5441 19.72C32.1441 20.4 32.1841 21.36 32.6641 22.12C33.3841 23.16 34.7841 23.4 35.8241 22.72C36.8641 22 37.1441 20.6 36.4241 19.56C36.0641 19.04 35.5441 18.76 34.9441 18.68C34.6641 18.64 34.8241 17.96 36.1041 17.32C38.8641 15.88 41.1841 17.96 41.1841 22.12V24.6C34.1841 26.36 30.8241 26.76 30.8241 31.12C30.8241 35.2 35.4241 35.2 35.4241 35.2C38.2641 35.2 40.6241 33.72 41.2241 31.96C41.6641 35.2 45.2241 35.2 45.2241 35.2C47.7441 35.2 49.5841 33.64 49.9041 32.36L49.2241 32.08C48.9841 32.76 48.1441 32.76 48.1441 32.76Z" fill="#1C1A26"/>
<path d="M57.6778 30V5L50.6778 6.48V7.16C52.2778 7.76 52.6778 8.36 52.6778 9.76V30C52.6778 32.04 52.5978 33.72 51.0778 34.16V34.84H59.3178V34.16C57.8778 33.8 57.6778 32.2 57.6778 30ZM68.3578 32.16C68.3578 32.16 68.2778 32.16 62.3578 23.8C67.6778 17.24 71.7578 17.12 72.4778 17.04V16.36H62.7578V17.04C67.9578 16.88 62.2378 22.68 62.2378 22.68L58.4778 26.76C58.4778 26.76 59.5178 28.36 60.7178 30.12C63.3978 34.12 63.7578 34.84 66.5178 34.84H72.1578V34.16C71.4778 34.12 69.6778 34 68.3578 32.16Z" fill="#1C1A26"/>
<path d="M77.62 24.56C77.62 20.72 79.26 16.68 81.62 16.68C83.82 16.68 85.46 19.52 85.46 24.56H77.62ZM81.82 16C76.3 16 72.46 20.04 72.46 25.68C72.46 30.36 76.06 35.2 81.3 35.2C86.66 35.2 89.02 32.04 89.66 29.96L88.98 29.6C87.98 31.48 84.78 32.28 82.62 31.8C79.94 31.2 77.94 29.16 77.62 25.24H90.34C90.34 19 87.62 16 81.82 16Z" fill="#1C1A26"/>
<path d="M104.317 16.2C103.357 16.6 101.717 17.2 99.5966 20.52V16L92.5566 17.6V18.28C94.1966 19.12 94.5566 19.72 94.5566 21.08V29.96C94.5566 32.04 94.5166 33.68 92.9566 34.16V34.84H101.237V34.16C99.7966 33.76 99.5966 32.2 99.5966 29.96V21.64C101.077 19.24 102.717 18.84 102.717 19.28C102.717 20 103.037 20.68 103.637 21.24C104.917 22.32 106.757 22.16 107.837 20.92C108.917 19.72 108.797 17.8 107.557 16.72C106.677 16 105.157 15.84 104.317 16.2Z" fill="#1C1A26"/>
<path d="M116.909 30V5L109.909 6.48V7.16C111.509 7.76 111.909 8.36 111.909 9.76V30C111.909 32.04 111.829 33.72 110.309 34.16V34.84H118.509V34.16C117.109 33.8 116.909 32.2 116.909 30Z" fill="#1C1A26"/>
<path d="M131.575 30.72C131.215 31.68 130.295 32.76 128.935 32.76C126.335 32.76 126.335 30.12 126.335 30.12C126.335 28.08 127.655 26.2 131.575 25.32C131.575 25.32 131.575 30.64 131.575 30.72ZM138.535 32.76C136.575 32.76 136.615 29.96 136.615 29.96V24C136.615 19.28 135.175 16 129.935 16C129.935 16 127.855 15.84 126.055 16.8C123.855 17.96 123.335 19.04 122.935 19.72C122.535 20.4 122.575 21.36 123.055 22.12C123.775 23.16 125.175 23.4 126.215 22.72C127.255 22 127.535 20.6 126.815 19.56C126.455 19.04 125.935 18.76 125.335 18.68C125.055 18.64 125.215 17.96 126.495 17.32C129.255 15.88 131.575 17.96 131.575 22.12V24.6C124.575 26.36 121.215 26.76 121.215 31.12C121.215 35.2 125.815 35.2 125.815 35.2C128.655 35.2 131.015 33.72 131.615 31.96C132.055 35.2 135.615 35.2 135.615 35.2C138.135 35.2 139.975 33.64 140.295 32.36L139.615 32.08C139.375 32.76 138.535 32.76 138.535 32.76Z" fill="#1C1A26"/>
<path d="M152.988 34.52C150.708 34.52 148.228 32.88 148.228 27.84V22.76C148.228 19.92 149.668 17.68 152.388 17.68C155.668 17.68 157.148 19.76 157.148 26.16C157.148 32.28 155.908 34.52 152.988 34.52ZM154.388 16C152.468 16 149.508 17 148.228 19.4V5L141.228 6.48V7.16C142.868 7.76 143.268 8.36 143.268 9.72V34.64C143.268 35.28 145.748 34.4 147.188 33.16C148.508 34.48 150.628 35.2 153.028 35.2C158.628 35.2 162.868 32.28 162.868 25.84C162.868 19.52 158.868 16 154.388 16Z" fill="#1C1A26"/>
</svg>
