<svg width="130.000000" height="38.000000" viewBox="0 0 130 38" fill="none" xmlns="http://www.w3.org/2000/svg" xmlns:xlink="http://www.w3.org/1999/xlink">
	<desc>
			Created with Pixso.
	</desc>
	<defs/>
	<path id="MyBiKE" d="M79.56 5.66C80.27 6.28 81.19 6.59 82.3 6.59C83.38 6.59 84.27 6.28 84.96 5.66C85.68 5.02 86.03 4.24 86.03 3.31C86.03 2.36 85.68 1.58 84.96 0.96C84.27 0.32 83.38 0 82.3 0C81.19 0 80.27 0.32 79.56 0.96C78.87 1.58 78.52 2.36 78.52 3.31C78.52 4.24 78.87 5.02 79.56 5.66ZM29.41 3.52L29.41 28.55L23.08 28.55L23.08 13.54L17.27 28.55L12.17 28.55L6.32 13.51L6.32 28.55L0 28.55L0 3.52L7.47 3.52L14.76 20.85L21.97 3.52L29.41 3.52ZM71.32 15.72C72.82 16.02 74.03 16.75 74.94 17.89C75.86 19.01 76.31 20.29 76.31 21.74Q76.31 23.57 75.53 24.96Q74.98 25.96 74.02 26.73C72.51 27.94 70.41 28.55 67.69 28.55L55.6 28.55L55.6 3.52L67.29 3.52C69.93 3.52 71.98 4.11 73.46 5.27C74.97 6.44 75.72 8.02 75.72 10.01C75.72 11.49 75.31 12.71 74.5 13.68C73.71 14.66 72.65 15.34 71.32 15.72ZM104.22 28.55L95.48 17.5L95.48 28.55L89.16 28.55L89.16 3.52L95.48 3.52L95.48 14.5L104.14 3.52L111.58 3.52L101.52 15.79L111.95 28.55L104.22 28.55ZM120.41 13.47L120.41 8.41L130 8.41L130 3.52L114.09 3.52L114.09 28.55L130 28.55L130 23.66L120.41 23.66L120.41 18.18L128.89 18.18L128.89 13.47L120.41 13.47ZM61.92 13.65L66.07 13.65C67.1 13.65 67.89 13.43 68.43 13.01C69 12.55 69.28 11.9 69.28 11.05C69.28 10.19 69 9.54 68.43 9.09C67.89 8.63 67.1 8.41 66.07 8.41L61.92 8.41L61.92 13.65ZM41.23 38L54.18 8.66L47.33 8.66L42.6 21.1L37.82 8.66L30.76 8.66L39.16 27.87L34.42 38L41.23 38ZM85.44 28.55L85.44 8.66L79.12 8.66L79.12 28.55L85.44 28.55ZM66.58 23.63C67.64 23.63 68.46 23.4 69.03 22.95C69.62 22.48 69.91 21.8 69.91 20.92C69.91 20.04 69.6 19.35 68.99 18.85C68.4 18.35 67.57 18.1 66.51 18.1L61.92 18.1L61.92 23.63L66.58 23.63Z" fill="#1D1D1D" fill-opacity="1.000000" fill-rule="evenodd"/>
</svg>
