<svg width="187.000000" height="56.000000" viewBox="0 0 187 56" fill="none" xmlns="http://www.w3.org/2000/svg" xmlns:xlink="http://www.w3.org/1999/xlink">
	<desc>
			Created with Pixso.
	</desc>
	<defs/>
	<path id="MyBiKE" d="M114.45 8.35C115.47 9.26 116.79 9.71 118.38 9.71C119.94 9.71 121.22 9.26 122.22 8.35C123.24 7.4 123.76 6.25 123.76 4.88C123.76 3.48 123.24 2.32 122.22 1.41C121.22 0.47 119.94 0 118.38 0C116.79 0 115.47 0.47 114.45 1.41C113.45 2.32 112.96 3.48 112.96 4.88C112.96 6.25 113.45 7.4 114.45 8.35ZM42.3 5.2L42.3 42.07L33.2 42.07L33.2 19.96L24.85 42.07L17.5 42.07L9.1 19.9L9.1 42.07L0 42.07L0 5.2L10.74 5.2L21.23 30.73L31.61 5.2L42.3 5.2ZM102.59 23.16C104.76 23.62 106.49 24.69 107.81 26.37C109.12 28.01 109.78 29.9 109.78 32.04C109.78 35.12 108.68 37.57 106.48 39.39C104.31 41.18 101.28 42.07 97.38 42.07L79.98 42.07L79.98 5.2L96.79 5.2Q102.49 5.2 105.68 7.77C107.84 9.49 108.92 11.81 108.92 14.76C108.92 16.93 108.34 18.73 107.17 20.17C106.03 21.6 104.51 22.6 102.59 23.16ZM149.91 42.07L137.35 25.79L137.35 42.07L128.25 42.07L128.25 5.2L137.35 5.2L137.35 21.38L149.81 5.2L160.5 5.2L146.03 23.27L161.03 42.07L149.91 42.07ZM173.21 19.85L173.21 12.39L187 12.39L187 5.2L164.11 5.2L164.11 42.07L187 42.07L187 34.88L173.21 34.88L173.21 26.79L185.4 26.79L185.4 19.85L173.21 19.85ZM89.07 20.12L95.04 20.12C96.52 20.12 97.66 19.8 98.44 19.17C99.26 18.5 99.66 17.54 99.66 16.28C99.66 15.02 99.26 14.06 98.44 13.39C97.66 12.73 96.52 12.39 95.04 12.39L89.07 12.39L89.07 20.12ZM59.31 56L77.93 12.76L68.09 12.76L61.27 31.09L54.41 12.76L44.25 12.76L56.33 41.08L49.51 56L59.31 56ZM122.91 42.07L122.91 12.76L113.81 12.76L113.81 42.07L122.91 42.07ZM95.78 34.82C97.31 34.82 98.48 34.49 99.29 33.83C100.14 33.13 100.57 32.13 100.57 30.83C100.57 29.54 100.13 28.52 99.24 27.78C98.39 27.05 97.2 26.68 95.67 26.68L89.07 26.68L89.07 34.82L95.78 34.82Z" fill="#1D1D1D" fill-opacity="1.000000" fill-rule="evenodd"/>
</svg>
