<?xml version="1.0" standalone="no"?>
<!DOCTYPE svg PUBLIC "-//W3C//DTD SVG 20010904//EN"
 "http://www.w3.org/TR/2001/REC-SVG-20010904/DTD/svg10.dtd">
<svg version="1.0" xmlns="http://www.w3.org/2000/svg"
 width="912.000000pt" height="96.000000pt" viewBox="0 0 912.000000 96.000000"
 preserveAspectRatio="xMidYMid meet">

<g transform="translate(0.000000,96.000000) scale(0.100000,-0.100000)"
fill="#000000" stroke="none">
<path d="M2543 815 c-125 -35 -202 -97 -250 -200 -24 -52 -28 -73 -28 -150 0
-80 3 -97 31 -155 76 -158 214 -222 432 -200 146 15 132 -7 132 206 l0 184
-125 0 -125 0 0 -40 0 -39 73 -3 72 -3 3 -107 3 -107 -47 -7 c-122 -18 -237
27 -293 115 -90 140 -47 324 94 396 51 26 69 30 139 30 52 0 100 -7 135 -18
29 -10 54 -17 56 -15 1 2 5 22 9 45 l6 42 -52 16 c-76 24 -202 28 -265 10z"/>
<path d="M3535 811 c-107 -48 -139 -179 -66 -268 l31 -37 -45 -44 c-83 -84
-101 -172 -51 -257 40 -68 93 -98 169 -99 73 0 112 17 174 77 l43 41 27 -24
c16 -13 38 -36 50 -50 l23 -25 37 37 37 38 -47 44 c-26 24 -47 48 -47 54 0 6
14 20 30 32 17 12 30 27 30 34 0 13 -54 66 -67 66 -4 0 -22 -14 -40 -32 l-33
-32 -108 105 c-158 153 -176 185 -131 230 18 18 29 21 69 16 44 -5 50 -3 79
27 36 37 33 44 -32 71 -48 20 -83 19 -132 -4z m112 -445 c77 -73 77 -77 4
-134 -57 -43 -93 -42 -138 3 -32 32 -35 40 -30 77 4 29 16 51 43 79 21 22 42
39 46 39 4 0 38 -29 75 -64z"/>
<path d="M4558 811 c-104 -34 -155 -79 -207 -184 -22 -46 -25 -65 -25 -162 -1
-104 1 -113 32 -176 37 -77 83 -121 160 -157 46 -21 69 -25 146 -24 55 0 107
6 132 15 102 37 183 130 205 236 17 81 7 219 -20 273 -76 159 -253 233 -423
179z m220 -100 c22 -11 52 -35 65 -53 77 -103 75 -303 -3 -392 -92 -104 -274
-96 -356 15 -73 99 -70 282 6 376 22 27 66 55 120 77 29 11 127 -2 168 -23z"/>
<path d="M7292 811 c-91 -31 -132 -87 -132 -178 0 -48 25 -104 59 -131 9 -7
60 -35 113 -62 83 -43 101 -56 118 -90 25 -50 19 -80 -26 -119 -53 -47 -94
-49 -231 -14 -21 5 -23 2 -23 -40 0 -44 2 -46 38 -58 52 -17 190 -14 238 6 82
34 124 97 124 185 0 101 -42 151 -189 224 -68 34 -91 52 -103 76 -44 91 66
156 195 116 54 -16 58 -13 61 46 1 31 -1 33 -49 44 -73 17 -133 16 -193 -5z"/>
<path d="M52 463 l3 -348 125 1 c162 1 208 9 263 45 116 76 88 261 -46 301
l-38 11 33 14 c110 46 142 172 66 259 -44 50 -103 64 -270 64 l-138 0 2 -347z
m283 253 c40 -17 55 -42 55 -91 0 -77 -44 -105 -165 -105 l-75 0 0 105 0 105
75 0 c43 0 90 -6 110 -14z m3 -302 c56 -22 82 -80 62 -139 -17 -53 -68 -75
-170 -75 l-80 0 0 115 0 115 75 0 c44 0 90 -6 113 -16z"/>
<path d="M905 748 c-15 -35 -41 -90 -56 -123 -15 -33 -47 -107 -72 -165 -25
-58 -66 -152 -92 -210 -66 -149 -66 -140 -12 -140 26 0 51 6 57 13 7 6 26 46
44 87 l32 75 177 3 177 2 14 -32 c8 -18 26 -59 40 -90 l25 -58 50 0 c28 0 51
4 51 10 0 9 -62 157 -117 280 -16 36 -36 81 -43 100 -7 19 -17 40 -22 46 -4 6
-14 28 -22 50 -7 21 -27 68 -43 104 -17 36 -33 75 -37 88 -7 19 -14 22 -65 22
l-57 0 -29 -62z m103 -83 c6 -16 32 -79 57 -140 69 -161 74 -149 -78 -153
-101 -2 -128 0 -133 11 -3 8 16 62 41 120 25 59 45 109 45 111 0 2 9 26 20 52
22 50 30 49 48 -1z"/>
<path d="M1502 463 l3 -348 50 0 50 0 5 283 5 283 55 -97 c70 -123 93 -164
172 -304 102 -183 91 -171 162 -168 l61 3 3 348 2 347 -55 0 -55 0 0 -277 0
-278 -53 95 c-30 52 -87 153 -127 225 -40 72 -85 153 -101 180 l-27 50 -76 3
-76 3 2 -348z"/>
<path d="M5222 463 l3 -348 198 -3 197 -2 0 45 0 45 -150 0 -150 0 0 305 0
305 -50 0 -50 0 2 -347z"/>
<path d="M5760 570 c0 -219 2 -244 21 -295 44 -119 120 -168 258 -168 103 0
163 24 215 84 54 64 59 90 63 367 l5 252 -50 0 -50 0 -4 -237 c-5 -268 -14
-307 -79 -354 -46 -33 -153 -35 -195 -3 -73 54 -84 105 -84 397 l0 197 -50 0
-50 0 0 -240z"/>
<path d="M6572 463 l3 -348 45 0 45 0 3 157 3 157 132 3 132 3 3 42 3 42 -133
3 -133 3 -3 97 -3 97 138 3 138 3 3 43 3 42 -191 0 -190 0 2 -347z"/>
<path d="M7810 460 l0 -350 198 2 197 3 3 42 3 42 -148 3 -148 3 -3 113 -3
112 136 0 135 0 0 45 0 44 -132 3 -133 3 -3 97 -3 97 148 3 148 3 3 43 3 42
-200 0 -201 0 0 -350z"/>
<path d="M8452 463 l3 -348 47 -3 48 -3 2 288 3 288 26 -40 c15 -22 70 -119
124 -215 54 -96 117 -206 140 -245 l41 -70 62 -3 62 -3 0 351 0 350 -50 0 -50
0 0 -271 c0 -163 -4 -268 -9 -264 -5 3 -36 54 -69 113 -32 59 -90 161 -127
227 -37 66 -77 137 -89 157 l-21 38 -73 0 -72 0 2 -347z"/>
</g>
</svg>
