<svg xmlns="http://www.w3.org/2000/svg" width="64" height="46" fill="none"><path fill="#fff" d="M13.68 1.76v17.27a1.87 1.87 0 0 0 1.88 1.82h.36l.03.3H6.98v-.3h.39c.49 0 .91-.17 1.26-.53.38-.35.58-.77.62-1.26V1.76H5.27c-.9.02-1.62.3-2.15.86-.53.55-.8 1.26-.8 2.14v.36h-.29V0c.8.33 1.97.51 3.48.53h11.88A12.09 12.09 0 0 0 20.87 0v5.12h-.3v-.36c0-1.21-.46-2.07-1.38-2.58-.43-.26-.95-.4-1.56-.42h-3.95ZM35.74 20.85c.51 0 .9-.12 1.18-.38.45-.45.69-.93.7-1.44v-7.5h-9.54V19a1.87 1.87 0 0 0 1.89 1.85h.35l.03.3h-8.96v-.3h.38c.5 0 .94-.17 1.3-.53.37-.37.57-.81.58-1.32V2.7a1.81 1.81 0 0 0-.58-1.29 1.72 1.72 0 0 0-1.3-.56h-.38v-.3h8.96l-.03.3h-.36c-.5 0-.95.19-1.32.56-.38.35-.56.79-.56 1.3v7.55h9.55V2.71a1.81 1.81 0 0 0-.6-1.3 1.72 1.72 0 0 0-1.29-.56h-.38v-.3h8.96v.3h-.38c-.51 0-.96.19-1.33.56-.37.35-.56.79-.56 1.3V19a1.87 1.87 0 0 0 1.89 1.85h.38v.3h-8.96v-.3h.38ZM46.05 20.85c.52 0 .95-.17 1.3-.53.38-.37.57-.81.6-1.32V2.62c-.05-.51-.2-.88-.45-1.12a2.14 2.14 0 0 0-1.45-.65h-.38v-.3h11.3c.95 0 1.75-.06 2.38-.2C59.98.2 60.36.1 60.5.03v5.15l-.3-.03v-.33c0-1.21-.45-2.07-1.35-2.58-.43-.26-.94-.4-1.53-.42h-4.96v8.56h3.9a2.54 2.54 0 0 0 1.8-.73c.46-.5.7-1.1.7-1.8V7.6h.3v6.8h-.3v-.24c0-.73-.24-1.33-.7-1.8a2.4 2.4 0 0 0-1.75-.73h-3.95v8.26h3.87c1.43 0 2.63-.4 3.6-1.23a7.25 7.25 0 0 0 2.17-3.5h.3l-1.36 6H45.67v-.3h.38ZM28.18 45.12h.47v.3h-8.84v-.27h.44c.34-.02.62-.16.86-.41.23-.26.33-.54.3-.86l-1.16-10.67-5.54 9.53A6.81 6.81 0 0 0 13.59 46h-.3L5.73 33.3 4.57 43.87c-.04.32.06.61.3.88.23.26.51.39.85.39h.44v.26H0v-.3h.47a2.12 2.12 0 0 0 2.15-1.85l2.45-18.85h.27l9.13 15 8.79-15h.26l2.51 18.85c.1.57.34 1.02.74 1.36.41.33.88.5 1.41.5Z"/><path fill="#fff" d="M28.88 45.12a1.92 1.92 0 0 0 1.89-1.85V26.87c-.04-.5-.2-.88-.45-1.12a2.14 2.14 0 0 0-1.44-.64h-.38v-.3h11.29c.96 0 1.76-.07 2.38-.2.63-.16 1.02-.27 1.15-.33v5.15l-.3-.03v-.32c0-1.22-.44-2.08-1.35-2.59-.43-.25-.94-.4-1.53-.41h-4.95v8.56h3.89a2.54 2.54 0 0 0 1.8-.74c.47-.49.7-1.09.7-1.8v-.26h.3v6.8h-.3v-.24c0-.72-.23-1.32-.7-1.8a2.4 2.4 0 0 0-1.74-.73h-3.95v8.27h3.86c1.43 0 2.63-.41 3.6-1.24a7.25 7.25 0 0 0 2.18-3.5h.3l-1.36 6H28.5v-.3h.38ZM56.8 26.03v17.26a1.87 1.87 0 0 0 1.9 1.83h.35l.03.3h-8.96v-.3h.38c.49 0 .91-.18 1.27-.53.37-.35.58-.78.61-1.27v-17.3h-3.97c-.9.03-1.63.31-2.16.86-.53.55-.8 1.27-.8 2.15v.35h-.29v-5.12c.8.34 1.97.51 3.48.53h11.88a12.08 12.08 0 0 0 3.48-.53v5.12h-.3v-.35c0-1.22-.46-2.08-1.38-2.59-.43-.25-.95-.4-1.56-.41H56.8Z"/></svg>