<svg width="66" height="49" viewBox="0 0 66 49" fill="none" xmlns="http://www.w3.org/2000/svg">
<mask id="path-1-outside-1_115222_27" maskUnits="userSpaceOnUse" x="0" y="0" width="66" height="49" fill="black">
<rect fill="white" width="66" height="49"/>
<path d="M14.6756 3.76471V21.0294C14.6952 21.5392 14.882 21.9706 15.2357 22.3235C15.6091 22.6765 16.0513 22.8529 16.5623 22.8529H16.9161L16.9455 23.1471H7.9837V22.8529H8.36693C8.85826 22.8529 9.28081 22.6765 9.63456 22.3235C10.008 21.9706 10.2143 21.549 10.2536 21.0588V3.76471H6.27387C5.36983 3.78431 4.65249 4.06863 4.12186 4.61765C3.59122 5.16667 3.3259 5.88235 3.3259 6.76471V7.11765H3.03111V2C3.83689 2.33333 4.99642 2.5098 6.50971 2.52941H18.39C18.9993 2.52941 19.6577 2.47059 20.3652 2.35294C21.0923 2.23529 21.5935 2.11765 21.8686 2V7.11765H21.5738V6.76471C21.5738 5.54902 21.112 4.68628 20.1883 4.17647C19.7559 3.92157 19.2351 3.78431 18.6259 3.76471H14.6756Z"/>
<path d="M36.7416 22.8529C37.2526 22.8529 37.6457 22.7255 37.9208 22.4706C38.3728 22.0196 38.6087 21.5392 38.6283 21.0294V13.5294H29.0769V21C29.0769 21.5098 29.2636 21.951 29.637 22.3235C30.0104 22.6765 30.4526 22.8529 30.9636 22.8529H31.3174L31.3468 23.1471H22.385V22.8529H22.7682C23.2792 22.8529 23.7116 22.6765 24.0653 22.3235C24.4388 21.951 24.6353 21.5098 24.6549 21V4.70588C24.6353 4.19608 24.4388 3.76471 24.0653 3.41177C23.7116 3.03922 23.2792 2.85294 22.7682 2.85294H22.385V2.55882H31.3468L31.3174 2.85294H30.9636C30.4526 2.85294 30.0104 3.03922 29.637 3.41177C29.2636 3.76471 29.0769 4.19608 29.0769 4.70588V12.2647H38.6283V4.70588C38.6087 4.19608 38.4121 3.76471 38.0387 3.41177C37.685 3.03922 37.2526 2.85294 36.7416 2.85294H36.3584V2.55882H45.3202V2.85294H44.937C44.426 2.85294 43.9838 3.03922 43.6104 3.41177C43.237 3.76471 43.0503 4.19608 43.0503 4.70588V21C43.0503 21.5098 43.237 21.951 43.6104 22.3235C43.9838 22.6765 44.426 22.8529 44.937 22.8529H45.3202V23.1471H36.3584V22.8529H36.7416Z"/>
<path d="M47.0545 22.8529C47.5654 22.8529 47.9978 22.6765 48.3516 22.3235C48.725 21.951 48.9215 21.5098 48.9412 21V4.61765C48.9018 4.10784 48.7544 3.73529 48.499 3.5C48.0273 3.06863 47.5458 2.85294 47.0545 2.85294H46.6712V2.55882H57.9619C58.9249 2.55882 59.7209 2.4902 60.3498 2.35294C60.9787 2.19608 61.3619 2.08824 61.4995 2.02941V7.17647L61.2047 7.14706V6.82353C61.2047 5.60784 60.7527 4.7451 59.8486 4.2353C59.4163 3.98039 58.9053 3.84314 58.3157 3.82353H53.3631V12.3824H57.2544C57.9816 12.3627 58.581 12.1176 59.0527 11.6471C59.5244 11.1569 59.7602 10.5588 59.7602 9.85294V9.58824H60.055V16.3824H59.7602V16.1471C59.7602 15.4216 59.5244 14.8235 59.0527 14.3529C58.6007 13.8824 58.0209 13.6373 57.3134 13.6176H53.3631V21.8824H57.225C58.6596 21.8824 59.8585 21.4706 60.8215 20.6471C61.8041 19.8235 62.5313 18.6569 63.003 17.1471H63.2978L61.9417 23.1471H46.6712V22.8529H47.0545Z"/>
<path d="M29.1826 47.1176H29.6543V47.4118H20.8104V47.1471H21.2526C21.5867 47.1275 21.8716 46.9902 22.1075 46.7353C22.3433 46.4804 22.4416 46.1961 22.4023 45.8824L21.2526 35.2059L15.7104 44.7353C14.9832 45.951 14.6098 47.0392 14.5901 48H14.2954L6.71906 35.2941L5.56936 45.8824C5.53005 46.1961 5.62832 46.4902 5.86415 46.7647C6.09999 47.0196 6.38496 47.1471 6.71906 47.1471H7.16126V47.4118H1V47.1176H1.47168C2.02196 47.1176 2.49364 46.951 2.8867 46.6176C3.29942 46.2843 3.54508 45.8333 3.62369 45.2647L6.07051 26.4118H6.33583L15.4745 41.4118L24.2595 26.4118H24.5248L27.0306 45.2647C27.1289 45.8333 27.3745 46.2843 27.7676 46.6176C28.1803 46.951 28.652 47.1176 29.1826 47.1176Z"/>
<path d="M29.8791 47.1176C30.39 47.1176 30.8224 46.9412 31.1762 46.5882C31.5496 46.2157 31.7461 45.7745 31.7658 45.2647V28.8824C31.7265 28.3725 31.5791 28 31.3236 27.7647C30.8519 27.3333 30.3704 27.1176 29.8791 27.1176H29.4958V26.8235H40.7866C41.7496 26.8235 42.5455 26.7549 43.1744 26.6176C43.8033 26.4608 44.1866 26.3529 44.3241 26.2941V31.4412L44.0293 31.4118V31.0882C44.0293 29.8725 43.5773 29.0098 42.6733 28.5C42.2409 28.2451 41.7299 28.1078 41.1403 28.0882H36.1877V36.6471H40.079C40.8062 36.6274 41.4056 36.3824 41.8773 35.9118C42.349 35.4216 42.5848 34.8235 42.5848 34.1176V33.8529H42.8796V40.6471H42.5848V40.4118C42.5848 39.6863 42.349 39.0882 41.8773 38.6176C41.4253 38.1471 40.8455 37.902 40.138 37.8824H36.1877V46.1471H40.0496C41.4842 46.1471 42.6831 45.7353 43.6461 44.9118C44.6287 44.0882 45.3559 42.9216 45.8276 41.4118H46.1224L44.7663 47.4118H29.4958V47.1176H29.8791Z"/>
<path d="M57.8069 28.0294V45.2941C57.8266 45.8039 58.0133 46.2353 58.3671 46.5882C58.7405 46.9412 59.1827 47.1176 59.6936 47.1176H60.0474L60.0769 47.4118H51.1151V47.1176H51.4983C51.9896 47.1176 52.4122 46.9412 52.7659 46.5882C53.1393 46.2353 53.3457 45.8137 53.385 45.3235V28.0294H49.4052C48.5012 28.049 47.7838 28.3333 47.2532 28.8824C46.7226 29.4314 46.4573 30.1471 46.4573 31.0294V31.3824H46.1625V26.2647C46.9682 26.598 48.1278 26.7745 49.6411 26.7941H61.5214C62.1306 26.7941 62.789 26.7353 63.4965 26.6176C64.2237 26.5 64.7249 26.3824 65 26.2647V31.3824H64.7052V31.0294C64.7052 29.8137 64.2433 28.951 63.3197 28.4412C62.8873 28.1863 62.3665 28.049 61.7572 28.0294H57.8069Z"/>
</mask>
<path d="M14.6756 3.76471V21.0294C14.6952 21.5392 14.882 21.9706 15.2357 22.3235C15.6091 22.6765 16.0513 22.8529 16.5623 22.8529H16.9161L16.9455 23.1471H7.9837V22.8529H8.36693C8.85826 22.8529 9.28081 22.6765 9.63456 22.3235C10.008 21.9706 10.2143 21.549 10.2536 21.0588V3.76471H6.27387C5.36983 3.78431 4.65249 4.06863 4.12186 4.61765C3.59122 5.16667 3.3259 5.88235 3.3259 6.76471V7.11765H3.03111V2C3.83689 2.33333 4.99642 2.5098 6.50971 2.52941H18.39C18.9993 2.52941 19.6577 2.47059 20.3652 2.35294C21.0923 2.23529 21.5935 2.11765 21.8686 2V7.11765H21.5738V6.76471C21.5738 5.54902 21.112 4.68628 20.1883 4.17647C19.7559 3.92157 19.2351 3.78431 18.6259 3.76471H14.6756Z" fill="white"/>
<path d="M36.7416 22.8529C37.2526 22.8529 37.6457 22.7255 37.9208 22.4706C38.3728 22.0196 38.6087 21.5392 38.6283 21.0294V13.5294H29.0769V21C29.0769 21.5098 29.2636 21.951 29.637 22.3235C30.0104 22.6765 30.4526 22.8529 30.9636 22.8529H31.3174L31.3468 23.1471H22.385V22.8529H22.7682C23.2792 22.8529 23.7116 22.6765 24.0653 22.3235C24.4388 21.951 24.6353 21.5098 24.6549 21V4.70588C24.6353 4.19608 24.4388 3.76471 24.0653 3.41177C23.7116 3.03922 23.2792 2.85294 22.7682 2.85294H22.385V2.55882H31.3468L31.3174 2.85294H30.9636C30.4526 2.85294 30.0104 3.03922 29.637 3.41177C29.2636 3.76471 29.0769 4.19608 29.0769 4.70588V12.2647H38.6283V4.70588C38.6087 4.19608 38.4121 3.76471 38.0387 3.41177C37.685 3.03922 37.2526 2.85294 36.7416 2.85294H36.3584V2.55882H45.3202V2.85294H44.937C44.426 2.85294 43.9838 3.03922 43.6104 3.41177C43.237 3.76471 43.0503 4.19608 43.0503 4.70588V21C43.0503 21.5098 43.237 21.951 43.6104 22.3235C43.9838 22.6765 44.426 22.8529 44.937 22.8529H45.3202V23.1471H36.3584V22.8529H36.7416Z" fill="white"/>
<path d="M47.0545 22.8529C47.5654 22.8529 47.9978 22.6765 48.3516 22.3235C48.725 21.951 48.9215 21.5098 48.9412 21V4.61765C48.9018 4.10784 48.7544 3.73529 48.499 3.5C48.0273 3.06863 47.5458 2.85294 47.0545 2.85294H46.6712V2.55882H57.9619C58.9249 2.55882 59.7209 2.4902 60.3498 2.35294C60.9787 2.19608 61.3619 2.08824 61.4995 2.02941V7.17647L61.2047 7.14706V6.82353C61.2047 5.60784 60.7527 4.7451 59.8486 4.2353C59.4163 3.98039 58.9053 3.84314 58.3157 3.82353H53.3631V12.3824H57.2544C57.9816 12.3627 58.581 12.1176 59.0527 11.6471C59.5244 11.1569 59.7602 10.5588 59.7602 9.85294V9.58824H60.055V16.3824H59.7602V16.1471C59.7602 15.4216 59.5244 14.8235 59.0527 14.3529C58.6007 13.8824 58.0209 13.6373 57.3134 13.6176H53.3631V21.8824H57.225C58.6596 21.8824 59.8585 21.4706 60.8215 20.6471C61.8041 19.8235 62.5313 18.6569 63.003 17.1471H63.2978L61.9417 23.1471H46.6712V22.8529H47.0545Z" fill="white"/>
<path d="M29.1826 47.1176H29.6543V47.4118H20.8104V47.1471H21.2526C21.5867 47.1275 21.8716 46.9902 22.1075 46.7353C22.3433 46.4804 22.4416 46.1961 22.4023 45.8824L21.2526 35.2059L15.7104 44.7353C14.9832 45.951 14.6098 47.0392 14.5901 48H14.2954L6.71906 35.2941L5.56936 45.8824C5.53005 46.1961 5.62832 46.4902 5.86415 46.7647C6.09999 47.0196 6.38496 47.1471 6.71906 47.1471H7.16126V47.4118H1V47.1176H1.47168C2.02196 47.1176 2.49364 46.951 2.8867 46.6176C3.29942 46.2843 3.54508 45.8333 3.62369 45.2647L6.07051 26.4118H6.33583L15.4745 41.4118L24.2595 26.4118H24.5248L27.0306 45.2647C27.1289 45.8333 27.3745 46.2843 27.7676 46.6176C28.1803 46.951 28.652 47.1176 29.1826 47.1176Z" fill="white"/>
<path d="M29.8791 47.1176C30.39 47.1176 30.8224 46.9412 31.1762 46.5882C31.5496 46.2157 31.7461 45.7745 31.7658 45.2647V28.8824C31.7265 28.3725 31.5791 28 31.3236 27.7647C30.8519 27.3333 30.3704 27.1176 29.8791 27.1176H29.4958V26.8235H40.7866C41.7496 26.8235 42.5455 26.7549 43.1744 26.6176C43.8033 26.4608 44.1866 26.3529 44.3241 26.2941V31.4412L44.0293 31.4118V31.0882C44.0293 29.8725 43.5773 29.0098 42.6733 28.5C42.2409 28.2451 41.7299 28.1078 41.1403 28.0882H36.1877V36.6471H40.079C40.8062 36.6274 41.4056 36.3824 41.8773 35.9118C42.349 35.4216 42.5848 34.8235 42.5848 34.1176V33.8529H42.8796V40.6471H42.5848V40.4118C42.5848 39.6863 42.349 39.0882 41.8773 38.6176C41.4253 38.1471 40.8455 37.902 40.138 37.8824H36.1877V46.1471H40.0496C41.4842 46.1471 42.6831 45.7353 43.6461 44.9118C44.6287 44.0882 45.3559 42.9216 45.8276 41.4118H46.1224L44.7663 47.4118H29.4958V47.1176H29.8791Z" fill="white"/>
<path d="M57.8069 28.0294V45.2941C57.8266 45.8039 58.0133 46.2353 58.3671 46.5882C58.7405 46.9412 59.1827 47.1176 59.6936 47.1176H60.0474L60.0769 47.4118H51.1151V47.1176H51.4983C51.9896 47.1176 52.4122 46.9412 52.7659 46.5882C53.1393 46.2353 53.3457 45.8137 53.385 45.3235V28.0294H49.4052C48.5012 28.049 47.7838 28.3333 47.2532 28.8824C46.7226 29.4314 46.4573 30.1471 46.4573 31.0294V31.3824H46.1625V26.2647C46.9682 26.598 48.1278 26.7745 49.6411 26.7941H61.5214C62.1306 26.7941 62.789 26.7353 63.4965 26.6176C64.2237 26.5 64.7249 26.3824 65 26.2647V31.3824H64.7052V31.0294C64.7052 29.8137 64.2433 28.951 63.3197 28.4412C62.8873 28.1863 62.3665 28.049 61.7572 28.0294H57.8069Z" fill="white"/>
<path d="M14.6756 3.76471V21.0294C14.6952 21.5392 14.882 21.9706 15.2357 22.3235C15.6091 22.6765 16.0513 22.8529 16.5623 22.8529H16.9161L16.9455 23.1471H7.9837V22.8529H8.36693C8.85826 22.8529 9.28081 22.6765 9.63456 22.3235C10.008 21.9706 10.2143 21.549 10.2536 21.0588V3.76471H6.27387C5.36983 3.78431 4.65249 4.06863 4.12186 4.61765C3.59122 5.16667 3.3259 5.88235 3.3259 6.76471V7.11765H3.03111V2C3.83689 2.33333 4.99642 2.5098 6.50971 2.52941H18.39C18.9993 2.52941 19.6577 2.47059 20.3652 2.35294C21.0923 2.23529 21.5935 2.11765 21.8686 2V7.11765H21.5738V6.76471C21.5738 5.54902 21.112 4.68628 20.1883 4.17647C19.7559 3.92157 19.2351 3.78431 18.6259 3.76471H14.6756Z" stroke="black" stroke-width="2" mask="url(#path-1-outside-1_115222_27)"/>
<path d="M36.7416 22.8529C37.2526 22.8529 37.6457 22.7255 37.9208 22.4706C38.3728 22.0196 38.6087 21.5392 38.6283 21.0294V13.5294H29.0769V21C29.0769 21.5098 29.2636 21.951 29.637 22.3235C30.0104 22.6765 30.4526 22.8529 30.9636 22.8529H31.3174L31.3468 23.1471H22.385V22.8529H22.7682C23.2792 22.8529 23.7116 22.6765 24.0653 22.3235C24.4388 21.951 24.6353 21.5098 24.6549 21V4.70588C24.6353 4.19608 24.4388 3.76471 24.0653 3.41177C23.7116 3.03922 23.2792 2.85294 22.7682 2.85294H22.385V2.55882H31.3468L31.3174 2.85294H30.9636C30.4526 2.85294 30.0104 3.03922 29.637 3.41177C29.2636 3.76471 29.0769 4.19608 29.0769 4.70588V12.2647H38.6283V4.70588C38.6087 4.19608 38.4121 3.76471 38.0387 3.41177C37.685 3.03922 37.2526 2.85294 36.7416 2.85294H36.3584V2.55882H45.3202V2.85294H44.937C44.426 2.85294 43.9838 3.03922 43.6104 3.41177C43.237 3.76471 43.0503 4.19608 43.0503 4.70588V21C43.0503 21.5098 43.237 21.951 43.6104 22.3235C43.9838 22.6765 44.426 22.8529 44.937 22.8529H45.3202V23.1471H36.3584V22.8529H36.7416Z" stroke="black" stroke-width="2" mask="url(#path-1-outside-1_115222_27)"/>
<path d="M47.0545 22.8529C47.5654 22.8529 47.9978 22.6765 48.3516 22.3235C48.725 21.951 48.9215 21.5098 48.9412 21V4.61765C48.9018 4.10784 48.7544 3.73529 48.499 3.5C48.0273 3.06863 47.5458 2.85294 47.0545 2.85294H46.6712V2.55882H57.9619C58.9249 2.55882 59.7209 2.4902 60.3498 2.35294C60.9787 2.19608 61.3619 2.08824 61.4995 2.02941V7.17647L61.2047 7.14706V6.82353C61.2047 5.60784 60.7527 4.7451 59.8486 4.2353C59.4163 3.98039 58.9053 3.84314 58.3157 3.82353H53.3631V12.3824H57.2544C57.9816 12.3627 58.581 12.1176 59.0527 11.6471C59.5244 11.1569 59.7602 10.5588 59.7602 9.85294V9.58824H60.055V16.3824H59.7602V16.1471C59.7602 15.4216 59.5244 14.8235 59.0527 14.3529C58.6007 13.8824 58.0209 13.6373 57.3134 13.6176H53.3631V21.8824H57.225C58.6596 21.8824 59.8585 21.4706 60.8215 20.6471C61.8041 19.8235 62.5313 18.6569 63.003 17.1471H63.2978L61.9417 23.1471H46.6712V22.8529H47.0545Z" stroke="black" stroke-width="2" mask="url(#path-1-outside-1_115222_27)"/>
<path d="M29.1826 47.1176H29.6543V47.4118H20.8104V47.1471H21.2526C21.5867 47.1275 21.8716 46.9902 22.1075 46.7353C22.3433 46.4804 22.4416 46.1961 22.4023 45.8824L21.2526 35.2059L15.7104 44.7353C14.9832 45.951 14.6098 47.0392 14.5901 48H14.2954L6.71906 35.2941L5.56936 45.8824C5.53005 46.1961 5.62832 46.4902 5.86415 46.7647C6.09999 47.0196 6.38496 47.1471 6.71906 47.1471H7.16126V47.4118H1V47.1176H1.47168C2.02196 47.1176 2.49364 46.951 2.8867 46.6176C3.29942 46.2843 3.54508 45.8333 3.62369 45.2647L6.07051 26.4118H6.33583L15.4745 41.4118L24.2595 26.4118H24.5248L27.0306 45.2647C27.1289 45.8333 27.3745 46.2843 27.7676 46.6176C28.1803 46.951 28.652 47.1176 29.1826 47.1176Z" stroke="black" stroke-width="2" mask="url(#path-1-outside-1_115222_27)"/>
<path d="M29.8791 47.1176C30.39 47.1176 30.8224 46.9412 31.1762 46.5882C31.5496 46.2157 31.7461 45.7745 31.7658 45.2647V28.8824C31.7265 28.3725 31.5791 28 31.3236 27.7647C30.8519 27.3333 30.3704 27.1176 29.8791 27.1176H29.4958V26.8235H40.7866C41.7496 26.8235 42.5455 26.7549 43.1744 26.6176C43.8033 26.4608 44.1866 26.3529 44.3241 26.2941V31.4412L44.0293 31.4118V31.0882C44.0293 29.8725 43.5773 29.0098 42.6733 28.5C42.2409 28.2451 41.7299 28.1078 41.1403 28.0882H36.1877V36.6471H40.079C40.8062 36.6274 41.4056 36.3824 41.8773 35.9118C42.349 35.4216 42.5848 34.8235 42.5848 34.1176V33.8529H42.8796V40.6471H42.5848V40.4118C42.5848 39.6863 42.349 39.0882 41.8773 38.6176C41.4253 38.1471 40.8455 37.902 40.138 37.8824H36.1877V46.1471H40.0496C41.4842 46.1471 42.6831 45.7353 43.6461 44.9118C44.6287 44.0882 45.3559 42.9216 45.8276 41.4118H46.1224L44.7663 47.4118H29.4958V47.1176H29.8791Z" stroke="black" stroke-width="2" mask="url(#path-1-outside-1_115222_27)"/>
<path d="M57.8069 28.0294V45.2941C57.8266 45.8039 58.0133 46.2353 58.3671 46.5882C58.7405 46.9412 59.1827 47.1176 59.6936 47.1176H60.0474L60.0769 47.4118H51.1151V47.1176H51.4983C51.9896 47.1176 52.4122 46.9412 52.7659 46.5882C53.1393 46.2353 53.3457 45.8137 53.385 45.3235V28.0294H49.4052C48.5012 28.049 47.7838 28.3333 47.2532 28.8824C46.7226 29.4314 46.4573 30.1471 46.4573 31.0294V31.3824H46.1625V26.2647C46.9682 26.598 48.1278 26.7745 49.6411 26.7941H61.5214C62.1306 26.7941 62.789 26.7353 63.4965 26.6176C64.2237 26.5 64.7249 26.3824 65 26.2647V31.3824H64.7052V31.0294C64.7052 29.8137 64.2433 28.951 63.3197 28.4412C62.8873 28.1863 62.3665 28.049 61.7572 28.0294H57.8069Z" stroke="black" stroke-width="2" mask="url(#path-1-outside-1_115222_27)"/>
</svg>
