<?xml version="1.0" encoding="UTF-8"?>
<!DOCTYPE svg PUBLIC "-//W3C//DTD SVG 1.1//EN" "http://www.w3.org/Graphics/SVG/1.1/DTD/svg11.dtd">
<svg xmlns="http://www.w3.org/2000/svg" version="1.1" width="260px" height="76px" style="shape-rendering:geometricPrecision; text-rendering:geometricPrecision; image-rendering:optimizeQuality; fill-rule:evenodd; clip-rule:evenodd" xmlns:xlink="http://www.w3.org/1999/xlink">
<g><path style="opacity:0.894" fill="#fefffe" d="M 159.5,-0.5 C 162.5,-0.5 165.5,-0.5 168.5,-0.5C 173.943,5.85803 172.609,10.5247 164.5,13.5C 155.946,11.2868 154.28,6.62018 159.5,-0.5 Z"/></g>
<g><path style="opacity:0.946" fill="#fefffe" d="M -0.5,6.5 C 4.8746,6.17182 10.2079,6.50515 15.5,7.5C 19.7242,18.2819 24.2242,28.9486 29,39.5C 33.7758,28.9486 38.2758,18.2819 42.5,7.5C 47.7921,6.50515 53.1254,6.17182 58.5,6.5C 58.5,23.5 58.5,40.5 58.5,57.5C 54.1667,57.5 49.8333,57.5 45.5,57.5C 45.6665,48.1607 45.4998,38.8274 45,29.5C 41.598,38.5394 38.098,47.5394 34.5,56.5C 30.8333,57.8333 27.1667,57.8333 23.5,56.5C 19.7234,47.9465 16.2234,39.2798 13,30.5C 12.5002,39.4938 12.3336,48.4938 12.5,57.5C 8.16667,57.5 3.83333,57.5 -0.5,57.5C -0.5,40.5 -0.5,23.5 -0.5,6.5 Z"/></g>
<g><path style="opacity:0.937" fill="#fefffe" d="M 110.5,6.5 C 120.839,6.33351 131.172,6.50017 141.5,7C 151.425,11.0289 153.925,17.8623 149,27.5C 147.59,28.7875 146.09,29.9542 144.5,31C 152.878,35.9996 154.712,42.8329 150,51.5C 146.263,55.082 141.763,56.9154 136.5,57C 127.84,57.4998 119.173,57.6664 110.5,57.5C 110.5,40.5 110.5,23.5 110.5,6.5 Z M 123.5,16.5 C 126.85,16.335 130.183,16.5017 133.5,17C 137.104,18.3339 138.271,20.8339 137,24.5C 136.25,25.1258 135.416,25.6258 134.5,26C 130.848,26.4986 127.182,26.6653 123.5,26.5C 123.5,23.1667 123.5,19.8333 123.5,16.5 Z M 123.5,36.5 C 127.846,36.3343 132.179,36.501 136.5,37C 139.418,40.4719 139.085,43.4719 135.5,46C 131.514,46.4988 127.514,46.6655 123.5,46.5C 123.5,43.1667 123.5,39.8333 123.5,36.5 Z"/></g>
<g><path style="opacity:0.927" fill="#fefffe" d="M 177.5,6.5 C 181.833,6.5 186.167,6.5 190.5,6.5C 190.334,13.5079 190.5,20.5079 191,27.5C 196.045,20.577 201.212,13.7437 206.5,7C 211.864,6.17053 217.198,6.33719 222.5,7.5C 216.167,15.5 209.833,23.5 203.5,31.5C 210.167,39.8333 216.833,48.1667 223.5,56.5C 218.198,57.6628 212.864,57.8295 207.5,57C 202,50.1667 196.5,43.3333 191,36.5C 190.5,43.4921 190.334,50.4921 190.5,57.5C 186.167,57.5 181.833,57.5 177.5,57.5C 177.5,40.5 177.5,23.5 177.5,6.5 Z"/></g>
<g><path style="opacity:0.952" fill="#fefffe" d="M 259.5,6.5 C 259.5,9.83333 259.5,13.1667 259.5,16.5C 253.167,16.5 246.833,16.5 240.5,16.5C 240.5,19.8333 240.5,23.1667 240.5,26.5C 246.167,26.5 251.833,26.5 257.5,26.5C 257.5,29.8333 257.5,33.1667 257.5,36.5C 251.833,36.5 246.167,36.5 240.5,36.5C 240.5,39.8333 240.5,43.1667 240.5,46.5C 246.833,46.5 253.167,46.5 259.5,46.5C 259.5,50.1667 259.5,53.8333 259.5,57.5C 248.833,57.5 238.167,57.5 227.5,57.5C 227.5,40.5 227.5,23.5 227.5,6.5C 238.167,6.5 248.833,6.5 259.5,6.5 Z"/></g>
<g><path style="opacity:0.921" fill="#fefffe" d="M 82.5,75.5 C 77.8333,75.5 73.1667,75.5 68.5,75.5C 71.0781,68.5079 74.0781,61.6745 77.5,55C 71.7047,42.5747 66.038,30.0747 60.5,17.5C 65.7195,16.1958 70.8861,16.1958 76,17.5C 78.8134,24.9477 81.8134,32.281 85,39.5C 87.9314,32.2059 90.7648,24.8726 93.5,17.5C 98.467,16.3377 103.467,16.1711 108.5,17C 99.7334,36.4705 91.0668,55.9705 82.5,75.5 Z"/></g>
<g><path style="opacity:0.941" fill="#fefffe" d="M 157.5,16.5 C 161.833,16.5 166.167,16.5 170.5,16.5C 170.5,30.1667 170.5,43.8333 170.5,57.5C 166.167,57.5 161.833,57.5 157.5,57.5C 157.5,43.8333 157.5,30.1667 157.5,16.5 Z"/></g>
</svg>
