<svg width="138" height="10" viewBox="0 0 138 10" fill="none" xmlns="http://www.w3.org/2000/svg">
<path d="M6.89831 5.724H4.81031V7.86H2.86631V5.724H0.778313V3.888H2.86631V1.74H4.81031V3.888H6.89831V5.724ZM9.92947 2.148V0.24H13.2535V9H11.1175V2.148H9.92947ZM21.1282 7.356C21.4002 7.14 21.5242 7.04 21.5002 7.056C22.2842 6.408 22.9002 5.876 23.3482 5.46C23.8042 5.044 24.1882 4.608 24.5002 4.152C24.8122 3.696 24.9682 3.252 24.9682 2.82C24.9682 2.492 24.8922 2.236 24.7402 2.052C24.5882 1.868 24.3602 1.776 24.0562 1.776C23.7522 1.776 23.5122 1.892 23.3362 2.124C23.1682 2.348 23.0842 2.668 23.0842 3.084H21.1042C21.1202 2.404 21.2642 1.836 21.5362 1.38C21.8162 0.924 22.1802 0.588 22.6282 0.372C23.0842 0.155999 23.5882 0.0479994 24.1402 0.0479994C25.0922 0.0479994 25.8082 0.291999 26.2882 0.779999C26.7762 1.268 27.0202 1.904 27.0202 2.688C27.0202 3.544 26.7282 4.34 26.1442 5.076C25.5602 5.804 24.8162 6.516 23.9122 7.212H27.1522V8.88H21.1282V7.356ZM30.1276 2.712C30.1596 1.856 30.4396 1.196 30.9676 0.732C31.4956 0.268 32.2116 0.0359995 33.1156 0.0359995C33.7156 0.0359995 34.2276 0.14 34.6516 0.348C35.0836 0.556 35.4076 0.839999 35.6236 1.2C35.8476 1.56 35.9596 1.964 35.9596 2.412C35.9596 2.94 35.8276 3.372 35.5636 3.708C35.2996 4.036 34.9916 4.26 34.6396 4.38V4.428C35.0956 4.58 35.4556 4.832 35.7196 5.184C35.9836 5.536 36.1156 5.988 36.1156 6.54C36.1156 7.036 35.9996 7.476 35.7676 7.86C35.5436 8.236 35.2116 8.532 34.7716 8.748C34.3396 8.964 33.8236 9.072 33.2236 9.072C32.2636 9.072 31.4956 8.836 30.9196 8.364C30.3516 7.892 30.0516 7.18 30.0196 6.228H32.0116C32.0196 6.58 32.1196 6.86 32.3116 7.068C32.5036 7.268 32.7836 7.368 33.1516 7.368C33.4636 7.368 33.7036 7.28 33.8716 7.104C34.0476 6.92 34.1356 6.68 34.1356 6.384C34.1356 6 34.0116 5.724 33.7636 5.556C33.5236 5.38 33.1356 5.292 32.5996 5.292H32.2156V3.624H32.5996C33.0076 3.624 33.3356 3.556 33.5836 3.42C33.8396 3.276 33.9676 3.024 33.9676 2.664C33.9676 2.376 33.8876 2.152 33.7276 1.992C33.5676 1.832 33.3476 1.752 33.0676 1.752C32.7636 1.752 32.5356 1.844 32.3836 2.028C32.2396 2.212 32.1556 2.44 32.1316 2.712H30.1276ZM39.3693 7.44V5.784L43.1613 0.36H45.4533V5.664H46.4373V7.44H45.4533V9H43.4013V7.44H39.3693ZM43.5453 2.616L41.5293 5.664H43.5453V2.616ZM60.1533 2.028H56.4093V3.684C56.5693 3.508 56.7933 3.364 57.0813 3.252C57.3693 3.14 57.6813 3.084 58.0173 3.084C58.6173 3.084 59.1133 3.22 59.5053 3.492C59.9053 3.764 60.1973 4.116 60.3813 4.548C60.5653 4.98 60.6573 5.448 60.6573 5.952C60.6573 6.888 60.3933 7.632 59.8653 8.184C59.3373 8.728 58.5933 9 57.6333 9C56.9933 9 56.4373 8.892 55.9653 8.676C55.4933 8.452 55.1293 8.144 54.8733 7.752C54.6173 7.36 54.4773 6.908 54.4533 6.396H56.4573C56.5053 6.644 56.6213 6.852 56.8053 7.02C56.9893 7.18 57.2413 7.26 57.5613 7.26C57.9373 7.26 58.2173 7.14 58.4013 6.9C58.5853 6.66 58.6773 6.34 58.6773 5.94C58.6773 5.548 58.5813 5.248 58.3893 5.04C58.1973 4.832 57.9173 4.728 57.5493 4.728C57.2773 4.728 57.0533 4.796 56.8773 4.932C56.7013 5.06 56.5853 5.232 56.5293 5.448H54.5493V0.228H60.1533V2.028ZM69.958 2.028H66.214V3.684C66.374 3.508 66.598 3.364 66.886 3.252C67.174 3.14 67.486 3.084 67.822 3.084C68.422 3.084 68.918 3.22 69.31 3.492C69.71 3.764 70.002 4.116 70.186 4.548C70.37 4.98 70.462 5.448 70.462 5.952C70.462 6.888 70.198 7.632 69.67 8.184C69.142 8.728 68.398 9 67.438 9C66.798 9 66.242 8.892 65.77 8.676C65.298 8.452 64.934 8.144 64.678 7.752C64.422 7.36 64.282 6.908 64.258 6.396H66.262C66.31 6.644 66.426 6.852 66.61 7.02C66.794 7.18 67.046 7.26 67.366 7.26C67.742 7.26 68.022 7.14 68.206 6.9C68.39 6.66 68.482 6.34 68.482 5.94C68.482 5.548 68.386 5.248 68.194 5.04C68.002 4.832 67.722 4.728 67.354 4.728C67.082 4.728 66.858 4.796 66.682 4.932C66.506 5.06 66.39 5.232 66.334 5.448H64.354V0.228H69.958V2.028ZM79.7627 2.028H76.0187V3.684C76.1787 3.508 76.4027 3.364 76.6907 3.252C76.9787 3.14 77.2907 3.084 77.6267 3.084C78.2267 3.084 78.7227 3.22 79.1147 3.492C79.5147 3.764 79.8067 4.116 79.9907 4.548C80.1747 4.98 80.2667 5.448 80.2667 5.952C80.2667 6.888 80.0027 7.632 79.4747 8.184C78.9467 8.728 78.2027 9 77.2427 9C76.6027 9 76.0467 8.892 75.5747 8.676C75.1027 8.452 74.7387 8.144 74.4827 7.752C74.2267 7.36 74.0867 6.908 74.0627 6.396H76.0667C76.1147 6.644 76.2307 6.852 76.4147 7.02C76.5987 7.18 76.8507 7.26 77.1707 7.26C77.5467 7.26 77.8267 7.14 78.0107 6.9C78.1947 6.66 78.2867 6.34 78.2867 5.94C78.2867 5.548 78.1907 5.248 77.9987 5.04C77.8067 4.832 77.5267 4.728 77.1587 4.728C76.8867 4.728 76.6627 4.796 76.4867 4.932C76.3107 5.06 76.1947 5.232 76.1387 5.448H74.1587V0.228H79.7627V2.028ZM88.7634 3.936V5.64H83.4834V3.936H88.7634ZM98.5283 2.028H94.7843V3.684C94.9443 3.508 95.1683 3.364 95.4563 3.252C95.7443 3.14 96.0563 3.084 96.3923 3.084C96.9923 3.084 97.4883 3.22 97.8803 3.492C98.2803 3.764 98.5723 4.116 98.7563 4.548C98.9403 4.98 99.0323 5.448 99.0323 5.952C99.0323 6.888 98.7683 7.632 98.2403 8.184C97.7123 8.728 96.9683 9 96.0083 9C95.3683 9 94.8123 8.892 94.3403 8.676C93.8683 8.452 93.5043 8.144 93.2483 7.752C92.9923 7.36 92.8523 6.908 92.8283 6.396H94.8323C94.8803 6.644 94.9963 6.852 95.1803 7.02C95.3643 7.18 95.6163 7.26 95.9363 7.26C96.3123 7.26 96.5923 7.14 96.7763 6.9C96.9603 6.66 97.0523 6.34 97.0523 5.94C97.0523 5.548 96.9563 5.248 96.7643 5.04C96.5723 4.832 96.2923 4.728 95.9243 4.728C95.6523 4.728 95.4283 4.796 95.2523 4.932C95.0763 5.06 94.9603 5.232 94.9043 5.448H92.9243V0.228H98.5283V2.028ZM108.333 2.028H104.589V3.684C104.749 3.508 104.973 3.364 105.261 3.252C105.549 3.14 105.861 3.084 106.197 3.084C106.797 3.084 107.293 3.22 107.685 3.492C108.085 3.764 108.377 4.116 108.561 4.548C108.745 4.98 108.837 5.448 108.837 5.952C108.837 6.888 108.573 7.632 108.045 8.184C107.517 8.728 106.773 9 105.813 9C105.173 9 104.617 8.892 104.145 8.676C103.673 8.452 103.309 8.144 103.053 7.752C102.797 7.36 102.657 6.908 102.633 6.396H104.637C104.685 6.644 104.801 6.852 104.985 7.02C105.169 7.18 105.421 7.26 105.741 7.26C106.117 7.26 106.397 7.14 106.581 6.9C106.765 6.66 106.857 6.34 106.857 5.94C106.857 5.548 106.761 5.248 106.569 5.04C106.377 4.832 106.097 4.728 105.729 4.728C105.457 4.728 105.233 4.796 105.057 4.932C104.881 5.06 104.765 5.232 104.709 5.448H102.729V0.228H108.333V2.028ZM117.334 3.936V5.64H112.054V3.936H117.334ZM127.099 2.028H123.355V3.684C123.515 3.508 123.739 3.364 124.027 3.252C124.315 3.14 124.627 3.084 124.963 3.084C125.563 3.084 126.059 3.22 126.451 3.492C126.851 3.764 127.143 4.116 127.327 4.548C127.511 4.98 127.603 5.448 127.603 5.952C127.603 6.888 127.339 7.632 126.811 8.184C126.283 8.728 125.539 9 124.579 9C123.939 9 123.383 8.892 122.911 8.676C122.439 8.452 122.075 8.144 121.819 7.752C121.563 7.36 121.423 6.908 121.399 6.396H123.403C123.451 6.644 123.567 6.852 123.751 7.02C123.935 7.18 124.187 7.26 124.507 7.26C124.883 7.26 125.163 7.14 125.347 6.9C125.531 6.66 125.623 6.34 125.623 5.94C125.623 5.548 125.527 5.248 125.335 5.04C125.143 4.832 124.863 4.728 124.495 4.728C124.223 4.728 123.999 4.796 123.823 4.932C123.647 5.06 123.531 5.232 123.475 5.448H121.495V0.228H127.099V2.028ZM136.903 2.028H133.159V3.684C133.319 3.508 133.543 3.364 133.831 3.252C134.119 3.14 134.431 3.084 134.767 3.084C135.367 3.084 135.863 3.22 136.255 3.492C136.655 3.764 136.947 4.116 137.131 4.548C137.315 4.98 137.407 5.448 137.407 5.952C137.407 6.888 137.143 7.632 136.615 8.184C136.087 8.728 135.343 9 134.383 9C133.743 9 133.187 8.892 132.715 8.676C132.243 8.452 131.879 8.144 131.623 7.752C131.367 7.36 131.227 6.908 131.203 6.396H133.207C133.255 6.644 133.371 6.852 133.555 7.02C133.739 7.18 133.991 7.26 134.311 7.26C134.687 7.26 134.967 7.14 135.151 6.9C135.335 6.66 135.427 6.34 135.427 5.94C135.427 5.548 135.331 5.248 135.139 5.04C134.947 4.832 134.667 4.728 134.299 4.728C134.027 4.728 133.803 4.796 133.627 4.932C133.451 5.06 133.335 5.232 133.279 5.448H131.299V0.228H136.903V2.028Z" fill="white"/>
</svg>
