<svg width="280" height="80" viewBox="0 0 280 80" fill="none" xmlns="http://www.w3.org/2000/svg">
<path d="M46.4488 4.24H52.9688L59.3688 22.32L56.9688 32.72L46.4488 4.24ZM66.4488 3.36L67.1688 7.32L58.2888 28.28C58.2888 28.28 58.2088 28.5067 58.0488 28.96C57.8888 29.4133 57.7288 29.9733 57.5688 30.64C57.4354 31.3067 57.3554 32 57.3288 32.72H56.9688L55.8488 27.96L66.0887 3.36H66.4488ZM66.4488 3.4L75.2488 22.84L73.3288 32.72L63.6888 11.4L66.4488 3.4ZM81.9288 4.24L74.4088 28.28C74.4088 28.28 74.3421 28.52 74.2088 29C74.0754 29.4533 73.9554 30.0267 73.8488 30.72C73.7421 31.3867 73.7021 32.0533 73.7288 32.72H73.3288L72.2088 28.76L79.2088 4.24H81.9288ZM78.4488 6.88C78.6621 6.08 78.5954 5.46666 78.2488 5.04C77.9021 4.61333 77.4621 4.4 76.9288 4.4H76.5688V4H84.9288V4.4C84.9288 4.4 84.8754 4.4 84.7688 4.4C84.6621 4.4 84.6088 4.4 84.6088 4.4C83.9954 4.4 83.3288 4.6 82.6088 5C81.8888 5.37333 81.3821 6 81.0888 6.88H78.4488ZM53.9688 6.88H47.4488C47.1021 6 46.5821 5.37333 45.8888 5C45.1954 4.6 44.5421 4.4 43.9287 4.4C43.9287 4.4 43.8754 4.4 43.7687 4.4C43.6621 4.4 43.6087 4.4 43.6087 4.4V4H55.8088V4.4H55.4488C54.9421 4.4 54.4888 4.61333 54.0888 5.04C53.7154 5.46666 53.6754 6.08 53.9688 6.88ZM91.6281 8V32H85.8681V8H91.6281ZM100.988 30.4L101.908 32H91.5481V30.4H100.988ZM99.6281 19.32V20.92H91.5481V19.32H99.6281ZM101.428 8V9.6H91.5481V8H101.428ZM103.548 24.64L102.028 32H95.1081L96.3481 30.4C97.4948 30.4 98.5081 30.1733 99.3881 29.72C100.295 29.24 101.068 28.5733 101.708 27.72C102.348 26.84 102.841 25.8133 103.188 24.64H103.548ZM99.6281 20.84V24.36H99.2281V24.04C99.2281 23.16 98.9481 22.4267 98.3881 21.84C97.8548 21.2533 97.1215 20.9467 96.1881 20.92V20.84H99.6281ZM99.6281 15.88V19.4H96.1881V19.32C97.1215 19.2933 97.8548 18.9867 98.3881 18.4C98.9481 17.7867 99.2281 17.04 99.2281 16.16V15.88H99.6281ZM101.428 9.52V13.76H101.028V13.4C101.028 12.2267 100.708 11.3067 100.068 10.64C99.4548 9.97333 98.5615 9.62667 97.3881 9.6V9.52H101.428ZM101.428 7.4V8.36L97.2281 8C98.0015 8 98.8148 7.93333 99.6681 7.8C100.521 7.64 101.108 7.50667 101.428 7.4ZM85.9481 29.48L86.1481 32H83.1881V31.6C83.1881 31.6 83.2681 31.6 83.4281 31.6C83.5881 31.6 83.6815 31.6 83.7081 31.6C84.2948 31.6 84.7881 31.4 85.1881 31C85.6148 30.5733 85.8415 30.0667 85.8681 29.48H85.9481ZM85.9481 10.52H85.8681C85.8415 9.90667 85.6148 9.4 85.1881 9C84.7881 8.6 84.2948 8.4 83.7081 8.4C83.6815 8.4 83.5881 8.4 83.4281 8.4C83.2681 8.4 83.1881 8.4 83.1881 8.4V8H86.1481L85.9481 10.52ZM112.55 8V32H106.79V8H112.55ZM121.87 30.4L122.83 32H112.47V30.4H121.87ZM124.51 24.64L122.95 32H116.03L117.27 30.4C118.417 30.4 119.43 30.1733 120.31 29.72C121.217 29.24 121.99 28.5733 122.63 27.72C123.27 26.84 123.763 25.8133 124.11 24.64H124.51ZM106.87 29.48L107.07 32H104.11V31.6C104.11 31.6 104.19 31.6 104.35 31.6C104.51 31.6 104.603 31.6 104.63 31.6C105.217 31.6 105.71 31.4 106.11 31C106.537 30.5733 106.763 30.0667 106.79 29.48H106.87ZM112.47 10.52V8H115.23V8.4C115.203 8.4 115.11 8.4 114.95 8.4C114.817 8.4 114.75 8.4 114.75 8.4C114.163 8.4 113.657 8.6 113.23 9C112.803 9.4 112.577 9.90667 112.55 10.52H112.47ZM106.87 10.52H106.79C106.763 9.90667 106.537 9.4 106.11 9C105.683 8.6 105.177 8.4 104.59 8.4C104.563 8.4 104.47 8.4 104.31 8.4C104.177 8.4 104.11 8.4 104.11 8.4V8H106.87V10.52ZM148.993 21.96L149.433 28C148.926 28.8533 148.219 29.6267 147.313 30.32C146.406 30.9867 145.299 31.52 143.993 31.92C142.686 32.32 141.166 32.52 139.433 32.52C136.446 32.4933 133.873 31.9867 131.713 31C129.553 30.0133 127.886 28.6 126.713 26.76C125.566 24.8933 124.993 22.6267 124.993 19.96C124.993 17.3467 125.566 15.12 126.713 13.28C127.859 11.4133 129.513 9.98666 131.673 9C133.833 7.98667 136.419 7.48 139.433 7.48C141.246 7.48 142.926 7.65333 144.473 8C146.046 8.34667 147.353 8.78667 148.393 9.32L148.433 15.68H148.113C147.446 13.2267 146.393 11.5067 144.953 10.52C143.513 9.53333 141.806 9.04 139.833 9.04C137.886 9.04 136.259 9.49333 134.953 10.4C133.673 11.3067 132.699 12.5733 132.033 14.2C131.393 15.8267 131.073 17.7333 131.073 19.92C131.073 22.1333 131.393 24.0533 132.033 25.68C132.699 27.3067 133.659 28.5733 134.913 29.48C136.166 30.3867 137.673 30.8667 139.433 30.92C141.326 30.92 142.886 30.6267 144.113 30.04C145.366 29.4533 146.353 28.5067 147.073 27.2C147.819 25.8933 148.353 24.1467 148.673 21.96H148.993ZM165.583 7.48C167.716 7.48 169.649 7.77333 171.383 8.36C173.116 8.92 174.609 9.74666 175.863 10.84C177.116 11.9333 178.076 13.2533 178.743 14.8C179.436 16.3467 179.783 18.0933 179.783 20.04C179.783 21.96 179.436 23.6933 178.743 25.24C178.076 26.76 177.116 28.0667 175.863 29.16C174.609 30.2533 173.116 31.0933 171.383 31.68C169.649 32.24 167.716 32.52 165.583 32.52C163.476 32.52 161.556 32.24 159.823 31.68C158.089 31.0933 156.596 30.2533 155.342 29.16C154.089 28.0667 153.129 26.76 152.463 25.24C151.796 23.6933 151.463 21.96 151.463 20.04C151.463 18.0933 151.796 16.3467 152.463 14.8C153.129 13.2533 154.089 11.9333 155.342 10.84C156.596 9.74666 158.089 8.92 159.823 8.36C161.556 7.77333 163.476 7.48 165.583 7.48ZM165.583 30.96C167.209 30.96 168.623 30.52 169.823 29.64C171.049 28.7333 171.983 27.4667 172.623 25.84C173.289 24.2133 173.623 22.28 173.623 20.04C173.623 17.7733 173.289 15.8267 172.623 14.2C171.983 12.5467 171.049 11.28 169.823 10.4C168.623 9.49333 167.209 9.04 165.583 9.04C163.983 9.04 162.583 9.49333 161.383 10.4C160.183 11.28 159.249 12.5467 158.583 14.2C157.916 15.8267 157.583 17.7733 157.583 20.04C157.583 22.28 157.916 24.2133 158.583 25.84C159.249 27.4667 160.183 28.7333 161.383 29.64C162.583 30.52 163.983 30.96 165.583 30.96ZM207.622 7.48L207.942 11.6L197.182 28.68C197.182 28.68 197.062 28.9067 196.822 29.36C196.582 29.7867 196.342 30.3067 196.102 30.92C195.889 31.5333 195.769 32.1467 195.742 32.76H195.382L193.822 29.48L207.622 7.48ZM183.022 29.44V32H179.102V31.6C179.102 31.6 179.195 31.6 179.382 31.6C179.542 31.6 179.622 31.6 179.622 31.6C180.289 31.6 180.862 31.4133 181.342 31.04C181.849 30.6667 182.155 30.1333 182.262 29.44H183.022ZM184.742 30C184.715 30.2933 184.809 30.64 185.022 31.04C185.235 31.4133 185.609 31.6 186.142 31.6H186.702V32H184.302L184.542 30H184.742ZM185.382 7.48H185.702L187.062 11.32L184.542 32H181.942L185.382 7.48ZM185.702 7.48L197.542 25.2L195.382 32.76L184.742 16.64L185.702 7.48ZM207.982 7.48L211.502 32H205.382L203.422 17.4L207.622 7.48H207.982ZM210.382 29.44H211.142C211.275 30.1333 211.582 30.6667 212.062 31.04C212.569 31.4133 213.129 31.6 213.742 31.6C213.742 31.6 213.835 31.6 214.022 31.6C214.209 31.6 214.302 31.6 214.302 31.6V32H210.382V29.44ZM205.102 30H205.342L205.582 32H203.182V31.6H203.742C204.329 31.6 204.715 31.4133 204.902 31.04C205.089 30.64 205.155 30.2933 205.102 30ZM222.253 8V32H216.493V8H222.253ZM231.613 30.4L232.533 32H222.173V30.4H231.613ZM230.253 19.32V20.92H222.173V19.32H230.253ZM232.053 8V9.6H222.173V8H232.053ZM234.173 24.64L232.653 32H225.733L226.973 30.4C228.12 30.4 229.133 30.1733 230.013 29.72C230.92 29.24 231.693 28.5733 232.333 27.72C232.973 26.84 233.466 25.8133 233.813 24.64H234.173ZM230.253 20.84V24.36H229.853V24.04C229.853 23.16 229.573 22.4267 229.013 21.84C228.48 21.2533 227.746 20.9467 226.813 20.92V20.84H230.253ZM230.253 15.88V19.4H226.813V19.32C227.746 19.2933 228.48 18.9867 229.013 18.4C229.573 17.7867 229.853 17.04 229.853 16.16V15.88H230.253ZM232.053 9.52V13.76H231.653V13.4C231.653 12.2267 231.333 11.3067 230.693 10.64C230.08 9.97333 229.186 9.62667 228.013 9.6V9.52H232.053ZM232.053 7.4V8.36L227.853 8C228.626 8 229.44 7.93333 230.293 7.8C231.146 7.64 231.733 7.50667 232.053 7.4ZM216.573 29.48L216.773 32H213.813V31.6C213.813 31.6 213.893 31.6 214.053 31.6C214.213 31.6 214.306 31.6 214.333 31.6C214.92 31.6 215.413 31.4 215.813 31C216.24 30.5733 216.466 30.0667 216.493 29.48H216.573ZM216.573 10.52H216.493C216.466 9.90667 216.24 9.4 215.813 9C215.413 8.6 214.92 8.4 214.333 8.4C214.306 8.4 214.213 8.4 214.053 8.4C213.893 8.4 213.813 8.4 213.813 8.4V8H216.773L216.573 10.52ZM43.9659 48.12V72H38.1659V48.12H43.9659ZM52.6859 47.96V49.56H29.4859V47.96H52.6859ZM52.6859 49.44V53.68H52.2459V53.32C52.2726 52.1733 51.9526 51.2667 51.2859 50.6C50.6459 49.9333 49.7526 49.5867 48.6059 49.56V49.44H52.6859ZM52.6859 47.36V48.36L48.4459 47.96C48.9526 47.96 49.4993 47.9333 50.0859 47.88C50.6726 47.8 51.2059 47.72 51.6859 47.64C52.1659 47.5333 52.4993 47.44 52.6859 47.36ZM38.2459 69.48V72H35.5659V71.6C35.5659 71.6 35.6326 71.6 35.7659 71.6C35.9259 71.6 36.0059 71.6 36.0059 71.6C36.5926 71.6 37.0859 71.4 37.4859 71C37.9126 70.5733 38.1393 70.0667 38.1659 69.48H38.2459ZM43.8459 69.48H43.9659C43.9659 70.0667 44.1793 70.5733 44.6059 71C45.0326 71.4 45.5526 71.6 46.1659 71.6C46.1659 71.6 46.2326 71.6 46.3659 71.6C46.5259 71.6 46.6059 71.6 46.6059 71.6V72H43.8459V69.48ZM33.5659 49.44V49.56C32.3926 49.5867 31.4859 49.9333 30.8459 50.6C30.2326 51.2667 29.9259 52.1733 29.9259 53.32V53.68H29.4859V49.44H33.5659ZM29.4859 47.36C29.7259 47.4133 30.0726 47.4933 30.5259 47.6C31.0059 47.7067 31.5259 47.8 32.0859 47.88C32.6726 47.9333 33.2059 47.96 33.6859 47.96L29.4859 48.36V47.36ZM66.6997 47.48C68.833 47.48 70.7664 47.7733 72.4997 48.36C74.233 48.92 75.7264 49.7467 76.9797 50.84C78.233 51.9333 79.193 53.2533 79.8597 54.8C80.553 56.3467 80.8997 58.0933 80.8997 60.04C80.8997 61.96 80.553 63.6933 79.8597 65.24C79.193 66.76 78.233 68.0667 76.9797 69.16C75.7264 70.2533 74.233 71.0933 72.4997 71.68C70.7664 72.24 68.833 72.52 66.6997 72.52C64.593 72.52 62.673 72.24 60.9397 71.68C59.2064 71.0933 57.713 70.2533 56.4597 69.16C55.2064 68.0667 54.2464 66.76 53.5797 65.24C52.913 63.6933 52.5797 61.96 52.5797 60.04C52.5797 58.0933 52.913 56.3467 53.5797 54.8C54.2464 53.2533 55.2064 51.9333 56.4597 50.84C57.713 49.7467 59.2064 48.92 60.9397 48.36C62.673 47.7733 64.593 47.48 66.6997 47.48ZM66.6997 70.96C68.3264 70.96 69.7397 70.52 70.9397 69.64C72.1664 68.7333 73.0997 67.4667 73.7397 65.84C74.4064 64.2133 74.7397 62.28 74.7397 60.04C74.7397 57.7733 74.4064 55.8267 73.7397 54.2C73.0997 52.5467 72.1664 51.28 70.9397 50.4C69.7397 49.4933 68.3264 49.04 66.6997 49.04C65.0997 49.04 63.6997 49.4933 62.4997 50.4C61.2997 51.28 60.3664 52.5467 59.6997 54.2C59.033 55.8267 58.6997 57.7733 58.6997 60.04C58.6997 62.28 59.033 64.2133 59.6997 65.84C60.3664 67.4667 61.2997 68.7333 62.4997 69.64C63.6997 70.52 65.0997 70.96 66.6997 70.96ZM105.633 44.12V72H99.6334V44.12H105.633ZM115.433 43.96V45.64H89.8334V43.96H115.433ZM115.433 45.52V50.24L115.033 50.2V49.76C115.033 48.5067 114.66 47.52 113.913 46.8C113.193 46.0533 112.207 45.6667 110.953 45.64V45.52H115.433ZM115.433 43.24V44.4L110.553 43.96C111.14 43.96 111.753 43.92 112.393 43.84C113.06 43.76 113.673 43.6667 114.233 43.56C114.793 43.4533 115.193 43.3467 115.433 43.24ZM99.7534 69.08V72H96.5534V71.6C96.5534 71.6 96.6334 71.6 96.7934 71.6C96.9801 71.6 97.0734 71.6 97.0734 71.6C97.7668 71.6 98.3534 71.36 98.8334 70.88C99.3401 70.3733 99.6068 69.7733 99.6334 69.08H99.7534ZM105.513 69.08H105.633C105.66 69.7733 105.913 70.3733 106.393 70.88C106.9 71.36 107.5 71.6 108.193 71.6C108.193 71.6 108.273 71.6 108.433 71.6C108.62 71.6 108.713 71.6 108.713 71.6V72H105.513V69.08ZM94.2734 45.52V45.64C93.0468 45.6667 92.0601 46.0533 91.3134 46.8C90.5934 47.52 90.2334 48.5067 90.2334 49.76V50.2L89.8334 50.24V45.52H94.2734ZM89.8334 43.24C90.1001 43.3467 90.5001 43.4533 91.0334 43.56C91.5934 43.6667 92.2068 43.76 92.8734 43.84C93.5401 43.92 94.1534 43.96 94.7134 43.96L89.8334 44.4V43.24ZM140.493 48V72H134.773V48H140.493ZM124.213 48V72H118.453V48H124.213ZM135.093 59.24V60.84H123.853V59.24H135.093ZM118.573 69.48V72H115.813V71.6C115.813 71.6 115.88 71.6 116.013 71.6C116.173 71.6 116.266 71.6 116.293 71.6C116.88 71.6 117.386 71.4 117.813 71C118.24 70.5733 118.453 70.0667 118.453 69.48H118.573ZM124.133 69.48H124.213C124.24 70.0667 124.466 70.5733 124.893 71C125.32 71.4 125.826 71.6 126.413 71.6C126.413 71.6 126.48 71.6 126.613 71.6C126.773 71.6 126.853 71.6 126.853 71.6V72H124.133V69.48ZM124.133 50.52V48H126.853V48.4C126.853 48.4 126.773 48.4 126.613 48.4C126.48 48.4 126.413 48.4 126.413 48.4C125.826 48.4 125.32 48.6 124.893 49C124.466 49.4 124.24 49.9067 124.213 50.52H124.133ZM118.573 50.52H118.453C118.453 49.9067 118.24 49.4 117.813 49C117.386 48.6 116.88 48.4 116.293 48.4C116.266 48.4 116.173 48.4 116.013 48.4C115.88 48.4 115.813 48.4 115.813 48.4V48H118.573V50.52ZM134.853 69.48V72H132.133V71.6C132.133 71.6 132.2 71.6 132.333 71.6C132.493 71.6 132.573 71.6 132.573 71.6C133.16 71.6 133.666 71.4 134.093 71C134.52 70.5733 134.733 70.0667 134.733 69.48H134.853ZM140.373 69.48H140.493C140.52 70.0667 140.733 70.5733 141.133 71C141.56 71.4 142.08 71.6 142.693 71.6C142.693 71.6 142.76 71.6 142.893 71.6C143.053 71.6 143.133 71.6 143.133 71.6V72H140.373V69.48ZM140.413 50.52V48H143.173V48.4C143.173 48.4 143.093 48.4 142.933 48.4C142.773 48.4 142.693 48.4 142.693 48.4C142.08 48.4 141.56 48.6 141.133 49C140.733 49.4 140.533 49.9067 140.533 50.52H140.413ZM134.853 50.52H134.733C134.733 49.9067 134.52 49.4 134.093 49C133.666 48.6 133.16 48.4 132.573 48.4C132.573 48.4 132.493 48.4 132.333 48.4C132.2 48.4 132.133 48.4 132.133 48.4V48H134.853V50.52ZM152.558 48V72H146.798V48H152.558ZM161.918 70.4L162.838 72H152.478V70.4H161.918ZM160.558 59.32V60.92H152.478V59.32H160.558ZM162.358 48V49.6H152.478V48H162.358ZM164.478 64.64L162.958 72H156.038L157.278 70.4C158.424 70.4 159.438 70.1733 160.318 69.72C161.224 69.24 161.998 68.5733 162.638 67.72C163.278 66.84 163.771 65.8133 164.118 64.64H164.478ZM160.558 60.84V64.36H160.158V64.04C160.158 63.16 159.878 62.4267 159.318 61.84C158.784 61.2533 158.051 60.9467 157.118 60.92V60.84H160.558ZM160.558 55.88V59.4H157.118V59.32C158.051 59.2933 158.784 58.9867 159.318 58.4C159.878 57.7867 160.158 57.04 160.158 56.16V55.88H160.558ZM162.358 49.52V53.76H161.958V53.4C161.958 52.2267 161.638 51.3067 160.998 50.64C160.384 49.9733 159.491 49.6267 158.318 49.6V49.52H162.358ZM162.358 47.4V48.36L158.158 48C158.931 48 159.744 47.9333 160.598 47.8C161.451 47.64 162.038 47.5067 162.358 47.4ZM146.878 69.48L147.078 72H144.118V71.6C144.118 71.6 144.198 71.6 144.358 71.6C144.518 71.6 144.611 71.6 144.638 71.6C145.224 71.6 145.718 71.4 146.118 71C146.544 70.5733 146.771 70.0667 146.798 69.48H146.878ZM146.878 50.52H146.798C146.771 49.9067 146.544 49.4 146.118 49C145.718 48.6 145.224 48.4 144.638 48.4C144.611 48.4 144.518 48.4 144.358 48.4C144.198 48.4 144.118 48.4 144.118 48.4V48H147.078L146.878 50.52ZM203.536 43.44L203.856 47.8L191.976 68.4C191.976 68.4 191.843 68.64 191.576 69.12C191.309 69.5733 191.043 70.1333 190.776 70.8C190.536 71.4667 190.416 72.1333 190.416 72.8H190.016L188.456 69.32L203.536 43.44ZM176.416 69.08V72H171.976V71.6C172.003 71.6 172.123 71.6 172.336 71.6C172.523 71.6 172.616 71.6 172.616 71.6C173.336 71.6 173.976 71.3867 174.536 70.96C175.096 70.5067 175.429 69.88 175.536 69.08H176.416ZM178.176 69.72C178.176 69.7467 178.176 69.7733 178.176 69.8C178.176 69.8267 178.176 69.8667 178.176 69.92C178.176 70.3467 178.323 70.7467 178.616 71.12C178.936 71.4667 179.309 71.64 179.736 71.64H180.336V72H177.896V69.72H178.176ZM178.856 43.44H179.216L180.616 47.44L177.936 72H175.136L178.856 43.44ZM179.216 43.44L192.296 64.92L190.016 72.8L178.176 52.92L179.216 43.44ZM203.896 43.44L207.696 72H201.256L199.256 53.6L203.536 43.44H203.896ZM206.456 69.08H207.296C207.429 69.88 207.776 70.5067 208.336 70.96C208.896 71.3867 209.523 71.6 210.216 71.6C210.216 71.6 210.323 71.6 210.536 71.6C210.749 71.6 210.856 71.6 210.856 71.6V72H206.456V69.08ZM201.016 69.72H201.296V72H198.856V71.64H199.456C199.909 71.64 200.283 71.4667 200.576 71.12C200.869 70.7467 201.016 70.3467 201.016 69.92C201.016 69.8667 201.016 69.8267 201.016 69.8C201.016 69.7733 201.016 69.7467 201.016 69.72ZM219.721 44V72H213.721V44H219.721ZM230.281 70.28L231.241 72H219.601V70.28H230.281ZM228.801 57.36V59.04H219.601V57.36H228.801ZM230.761 44V45.72H219.601V44H230.761ZM233.201 63.8L231.361 72H223.521L224.961 70.28C226.294 70.28 227.468 70.0267 228.481 69.52C229.494 68.9867 230.361 68.24 231.081 67.28C231.801 66.2933 232.374 65.1333 232.801 63.8H233.201ZM228.801 58.96V62.8H228.401V62.48C228.401 61.4933 228.081 60.68 227.441 60.04C226.801 59.4 225.988 59.0667 225.001 59.04V58.96H228.801ZM228.801 53.6V57.44H225.001V57.36C225.988 57.3333 226.801 57 227.441 56.36C228.081 55.6933 228.401 54.8667 228.401 53.88V53.6H228.801ZM230.761 45.6V50.28H230.361V49.8C230.361 48.5733 229.988 47.5867 229.241 46.84C228.521 46.0933 227.534 45.7067 226.281 45.68V45.6H230.761ZM230.761 43.28V44.44L225.881 44C226.468 44 227.081 43.96 227.721 43.88C228.388 43.8 229.001 43.7067 229.561 43.6C230.121 43.4933 230.521 43.3867 230.761 43.28ZM213.841 69.08V72H210.641V71.6C210.641 71.6 210.721 71.6 210.881 71.6C211.068 71.6 211.161 71.6 211.161 71.6C211.854 71.6 212.441 71.36 212.921 70.88C213.428 70.3733 213.694 69.7733 213.721 69.08H213.841ZM213.841 46.92H213.721C213.694 46.2267 213.428 45.64 212.921 45.16C212.441 44.6533 211.854 44.4 211.161 44.4C211.161 44.4 211.068 44.4 210.881 44.4C210.721 44.4 210.641 44.4 210.641 44.4V44H213.841V46.92ZM249.094 44.12V72H243.094V44.12H249.094ZM258.894 43.96V45.64H233.294V43.96H258.894ZM258.894 45.52V50.24L258.494 50.2V49.76C258.494 48.5067 258.121 47.52 257.374 46.8C256.654 46.0533 255.668 45.6667 254.414 45.64V45.52H258.894ZM258.894 43.24V44.4L254.014 43.96C254.601 43.96 255.214 43.92 255.854 43.84C256.521 43.76 257.134 43.6667 257.694 43.56C258.254 43.4533 258.654 43.3467 258.894 43.24ZM243.214 69.08V72H240.014V71.6C240.014 71.6 240.094 71.6 240.254 71.6C240.441 71.6 240.534 71.6 240.534 71.6C241.228 71.6 241.814 71.36 242.294 70.88C242.801 70.3733 243.068 69.7733 243.094 69.08H243.214ZM248.974 69.08H249.094C249.121 69.7733 249.374 70.3733 249.854 70.88C250.361 71.36 250.961 71.6 251.654 71.6C251.654 71.6 251.734 71.6 251.894 71.6C252.081 71.6 252.174 71.6 252.174 71.6V72H248.974V69.08ZM237.734 45.52V45.64C236.508 45.6667 235.521 46.0533 234.774 46.8C234.054 47.52 233.694 48.5067 233.694 49.76V50.2L233.294 50.24V45.52H237.734ZM233.294 43.24C233.561 43.3467 233.961 43.4533 234.494 43.56C235.054 43.6667 235.668 43.76 236.334 43.84C237.001 43.92 237.614 43.96 238.174 43.96L233.294 44.4V43.24Z" fill="white"/>
</svg>
