<svg width="32.000000" height="32.000000" viewBox="0 0 32 32" fill="none" xmlns="http://www.w3.org/2000/svg" xmlns:xlink="http://www.w3.org/1999/xlink">
	<desc>
			Created with Pixso.
	</desc>
	<defs>
		<clipPath id="clip41317_307">
			<rect id="Icon-Close" width="32.000000" height="32.000000" fill="white" fill-opacity="0"/>
		</clipPath>
	</defs>
	<rect id="Icon-Close" width="32.000000" height="32.000000" fill="#FFFFFF" fill-opacity="0"/>
	<g clip-path="url(#clip41317_307)">
		<path id="Vector" d="M25.59 8.55C26.18 7.96 26.18 7 25.59 6.4C24.99 5.81 24.03 5.81 23.44 6.4L16 13.85L8.55 6.4C7.96 5.81 7 5.81 6.4 6.4C5.81 7 5.81 7.96 6.4 8.55L13.85 16L6.4 23.44C5.81 24.03 5.81 24.99 6.4 25.59C7 26.18 7.96 26.18 8.55 25.59L16 18.14L23.44 25.59C24.03 26.18 24.99 26.18 25.59 25.59C26.18 24.99 26.18 24.03 25.59 23.44L18.14 16L25.59 8.55Z" fill="#1B2129" fill-opacity="1.000000" fill-rule="nonzero"/>
	</g>
</svg>
