<svg width="22" height="22" viewBox="0 0 22 22" fill="none" xmlns="http://www.w3.org/2000/svg">
<path d="M20.5921 3.55623C21.1854 2.96292 21.1854 2.00097 20.5921 1.40766C19.9987 0.814348 19.0368 0.814348 18.4435 1.40766L10.9997 8.85147L3.55586 1.40766C2.96255 0.814347 2.0006 0.814348 1.40729 1.40766C0.813982 2.00097 0.813982 2.96292 1.40729 3.55623L8.8511 11L1.40729 18.4439C0.813981 19.0372 0.813982 19.9991 1.40729 20.5924C2.0006 21.1857 2.96255 21.1857 3.55586 20.5924L10.9997 13.1486L18.4435 20.5924C19.0368 21.1857 19.9987 21.1857 20.5921 20.5924C21.1854 19.9991 21.1854 19.0372 20.5921 18.4438L13.1482 11L20.5921 3.55623Z" fill="#1B2129"/>
</svg>
