<?xml version="1.0" ?><svg xmlns="http://www.w3.org/2000/svg" width="16" height="16" viewBox="0 0 16 16" fill="none"><path fill-rule="evenodd" clip-rule="evenodd" d="M3 1V15H9.75C12.0972 15 14 13.0972 14 10.75C14 9.40522 13.3754 8.20632 12.4005 7.42756C12.7812 6.79071 13 6.04591 13 5.25C13 2.90279 11.0972 1 8.75 1H3ZM9.75 12H6V9.5H9.75C10.4404 9.5 11 10.0596 11 10.75C11 11.4404 10.4404 12 9.75 12ZM8.75 6.5H6V4H8.75C9.44036 4 10 4.55964 10 5.25C10 5.94036 9.44036 6.5 8.75 6.5Z" fill="black"/></svg>