<?xml version="1.0" standalone="no"?>
<!DOCTYPE svg PUBLIC "-//W3C//DTD SVG 20010904//EN"
 "http://www.w3.org/TR/2001/REC-SVG-20010904/DTD/svg10.dtd">
<svg version="1.0" xmlns="http://www.w3.org/2000/svg"
 width="382.000000pt" height="384.000000pt" viewBox="0 0 382.000000 384.000000"
 preserveAspectRatio="xMidYMid meet">

<g transform="translate(0.000000,384.000000) scale(0.100000,-0.100000)"
fill="#000000" stroke="none">
<path d="M442 3394 c-68 -54 -82 -137 -35 -203 73 -101 199 -94 260 14 31 54
29 94 -6 141 -41 57 -71 74 -133 74 -42 0 -60 -6 -86 -26z"/>
<path d="M855 3408 c-11 -6 -31 -22 -45 -37 -22 -22 -25 -34 -25 -97 0 -63 3
-76 25 -99 34 -37 72 -55 115 -55 67 0 115 38 135 107 19 62 6 111 -41 155
-36 34 -45 38 -92 38 -29 0 -61 -6 -72 -12z"/>
<path d="M2818 3399 c-72 -53 -90 -148 -40 -212 50 -65 128 -85 189 -47 42 25
83 91 83 133 0 37 -41 103 -82 131 -33 23 -116 21 -150 -5z"/>
<path d="M3210 3403 c-64 -39 -89 -134 -53 -203 29 -55 78 -83 140 -78 99 8
154 80 139 182 -6 37 -15 52 -48 81 -37 31 -47 35 -97 34 -31 0 -67 -8 -81
-16z"/>
<path d="M473 3019 c-18 -5 -44 -25 -59 -45 -89 -117 17 -270 161 -232 54 15
89 50 106 108 10 34 9 46 -7 82 -25 56 -49 79 -93 89 -44 10 -66 10 -108 -2z"/>
<path d="M872 3019 c-48 -15 -92 -80 -92 -138 0 -64 29 -107 87 -132 42 -18
53 -19 90 -8 24 6 52 19 63 29 24 20 50 80 50 112 -1 35 -36 105 -62 122 -31
20 -95 27 -136 15z"/>
<path d="M1275 3023 c-37 -6 -61 -27 -86 -75 -44 -86 -3 -177 94 -208 33 -10
45 -9 83 5 67 26 94 64 94 135 0 52 -4 64 -31 94 -27 31 -85 59 -114 54 -5 0
-23 -3 -40 -5z"/>
<path d="M2852 3023 c-39 -8 -90 -70 -98 -119 -15 -104 80 -191 180 -162 51
14 73 32 97 80 24 46 24 77 2 119 -41 74 -95 98 -181 82z"/>
<path d="M3236 3020 c-33 -10 -84 -64 -93 -98 -19 -77 31 -159 112 -182 88
-25 174 37 182 129 5 53 -17 104 -57 133 -30 21 -104 31 -144 18z"/>
<path d="M470 2616 c-104 -54 -120 -168 -35 -246 23 -21 36 -25 93 -25 81 0
113 19 143 84 25 53 20 89 -17 139 -25 33 -92 71 -124 72 -8 0 -35 -11 -60
-24z"/>
<path d="M900 2630 c-82 -23 -120 -71 -120 -154 0 -40 5 -52 41 -91 38 -41 45
-45 90 -45 64 0 92 12 124 54 66 87 26 205 -80 234 -16 5 -41 6 -55 2z"/>
<path d="M1295 2631 c-69 -20 -125 -83 -125 -142 0 -43 36 -107 73 -129 21
-13 50 -20 85 -20 47 0 55 3 92 40 37 37 40 44 40 98 0 39 -6 66 -19 85 -32
49 -100 80 -146 68z"/>
<path d="M1695 2630 c-75 -17 -116 -61 -123 -131 -9 -93 50 -159 142 -159 87
0 156 67 156 151 0 72 -104 155 -175 139z"/>
<path d="M2881 2632 c-66 -11 -131 -83 -131 -146 0 -41 24 -89 59 -119 26 -22
43 -27 85 -27 61 0 107 28 137 84 27 50 24 86 -11 134 -39 54 -91 82 -139 74z"/>
<path d="M3270 2633 c-42 -14 -78 -34 -100 -58 -21 -23 -25 -36 -25 -90 0 -61
2 -66 40 -105 37 -38 42 -40 102 -40 55 0 66 3 97 30 83 74 69 199 -29 247
-29 15 -68 22 -85 16z"/>
<path d="M458 2219 c-45 -23 -78 -82 -78 -136 1 -69 87 -153 158 -153 60 0
152 97 152 160 0 36 -39 98 -77 125 -46 31 -102 32 -155 4z"/>
<path d="M865 2226 c-16 -7 -41 -26 -55 -41 -21 -23 -25 -36 -25 -94 0 -54 4
-72 22 -95 26 -33 83 -66 113 -66 26 0 90 32 112 56 53 60 43 174 -19 221 -40
30 -105 39 -148 19z"/>
<path d="M1654 2226 c-50 -22 -84 -75 -84 -130 0 -60 20 -99 72 -136 48 -35
88 -38 134 -9 91 56 120 148 68 216 -52 68 -120 89 -190 59z"/>
<path d="M2034 2221 c-17 -10 -41 -32 -53 -47 -20 -25 -23 -37 -19 -95 6 -75
21 -99 85 -131 53 -27 96 -19 150 27 28 24 44 48 53 79 11 42 11 49 -11 93
-43 86 -133 118 -205 74z"/>
<path d="M2833 2223 c-50 -28 -76 -69 -81 -127 -3 -44 0 -56 25 -87 78 -100
170 -98 244 5 39 53 39 100 -1 154 -51 70 -121 91 -187 55z"/>
<path d="M3220 2222 c-19 -10 -46 -34 -58 -53 -21 -29 -23 -42 -19 -92 3 -37
12 -66 24 -79 30 -34 91 -68 120 -68 35 0 100 37 125 71 25 34 33 97 18 143
-26 78 -135 119 -210 78z"/>
<path d="M481 1840 c-41 -10 -89 -63 -97 -107 -21 -113 80 -206 189 -174 23 7
50 20 61 29 23 21 56 85 56 109 0 32 -33 97 -59 119 -30 24 -101 36 -150 24z"/>
<path d="M882 1840 c-36 -8 -89 -61 -99 -98 -9 -38 3 -111 23 -133 26 -29 88
-59 119 -59 70 0 145 77 145 147 -1 40 -34 109 -62 126 -30 19 -85 27 -126 17z"/>
<path d="M2060 1840 c-20 -5 -49 -24 -67 -44 -30 -32 -33 -42 -33 -96 0 -51 4
-64 29 -93 94 -106 265 -45 263 94 -2 101 -87 163 -192 139z"/>
<path d="M2459 1843 c-38 -6 -82 -52 -98 -100 -18 -56 -1 -112 46 -153 61 -54
148 -48 205 14 25 27 28 38 28 96 0 63 -2 68 -37 102 -39 37 -87 51 -144 41z"/>
<path d="M2859 1843 c-14 -2 -43 -22 -65 -44 -35 -36 -38 -44 -39 -97 0 -45 5
-64 23 -87 68 -87 176 -84 241 6 20 26 31 54 31 75 0 59 -61 144 -104 144 -12
0 -30 2 -41 4 -11 2 -32 2 -46 -1z"/>
<path d="M3243 1841 c-124 -31 -139 -212 -22 -271 50 -26 95 -25 144 3 92 51
99 188 14 248 -29 21 -93 30 -136 20z"/>
<path d="M452 1427 c-88 -59 -96 -164 -18 -236 39 -36 131 -42 181 -11 37 23
75 84 75 120 0 27 -33 91 -56 110 -58 47 -128 53 -182 17z"/>
<path d="M855 1433 c-47 -23 -69 -60 -73 -124 -4 -56 -3 -58 39 -104 l43 -47
64 4 c59 4 67 7 98 40 111 121 -23 303 -171 231z"/>
<path d="M2445 1438 c-53 -29 -95 -89 -95 -135 0 -38 38 -102 73 -123 21 -13
50 -20 86 -20 49 0 57 3 92 39 37 37 39 42 39 100 0 73 -17 104 -71 132 -42
21 -93 24 -124 7z"/>
<path d="M2833 1432 c-96 -52 -109 -170 -27 -242 67 -59 182 -33 224 51 28 53
25 89 -10 137 -50 70 -120 90 -187 54z"/>
<path d="M3208 1424 c-51 -33 -71 -75 -66 -136 4 -40 12 -56 44 -89 36 -37 41
-39 101 -39 55 0 66 3 97 30 82 73 70 192 -24 240 -52 27 -106 25 -152 -6z"/>
<path d="M444 1031 c-63 -38 -82 -133 -40 -199 23 -36 95 -82 130 -82 20 0 74
26 100 49 24 21 56 85 56 111 0 31 -36 95 -66 119 -36 28 -135 29 -180 2z"/>
<path d="M822 1016 c-36 -33 -37 -37 -37 -103 0 -81 18 -112 82 -145 38 -19
47 -20 82 -9 91 27 136 107 111 197 -19 67 -59 94 -139 94 -56 0 -65 -3 -99
-34z"/>
<path d="M2797 1015 c-77 -79 -58 -182 44 -243 63 -38 123 -17 180 62 36 49
37 93 4 145 -36 58 -60 71 -132 71 -58 0 -64 -2 -96 -35z"/>
<path d="M3196 1029 c-43 -34 -59 -75 -53 -135 7 -65 28 -95 87 -123 56 -26
69 -26 122 1 56 29 76 54 84 105 9 60 -3 99 -43 138 -34 33 -40 35 -103 35
-53 0 -73 -4 -94 -21z"/>
<path d="M483 660 c-40 -9 -91 -65 -99 -107 -14 -73 23 -147 86 -173 18 -7 52
-10 82 -8 46 5 57 11 90 48 21 23 40 57 44 76 8 42 -19 111 -55 140 -30 24
-101 36 -148 24z"/>
<path d="M895 660 c-42 -7 -79 -34 -100 -74 -24 -45 -17 -134 13 -164 78 -78
198 -65 244 28 21 43 22 81 4 124 -29 69 -86 99 -161 86z"/>
<path d="M2869 662 c-26 -2 -46 -13 -73 -41 -68 -70 -57 -173 25 -229 28 -19
44 -23 85 -20 58 5 92 27 123 80 26 46 27 83 2 131 -33 66 -76 86 -162 79z"/>
<path d="M3255 661 c-76 -15 -120 -75 -113 -157 7 -83 64 -134 151 -134 107 0
178 116 132 214 -29 60 -96 91 -170 77z"/>
</g>
</svg>
