<svg height="2500" width="2355" xmlns="http://www.w3.org/2000/svg" viewBox="0.5 0 1460.7 1552"><path d="M886 326.8l53.3-52c-25.3-23.4-61-61.8-61-124.4 0-37.7 15.2-75.4 41.8-103.6C948.5 16.6 987.3 0 1029.2 0c54.9 0 90.3 27.6 106.5 44l1.6 1.9-1 1.2-24.6 24.5L1076 107l-1.3 1.2-1.3-1.3c-5.1-5.4-19.9-18.1-44-18.1-15.8 0-33.1 7.3-44.8 19-8.1 8-17.6 21.9-17.6 42.9 0 19.7 7.2 32.2 18.9 44 21.7 21.9 197 196.9 197 196.9l60-59.8 62.7 62.4-59.9 59.8 84.3 84.1-.8 1.5-60.1 60.1-85.6-83.1c-12.5 12.1-25.3 24.8-46.1 45.6l-7.3 7.2c-28.4 28.2-70 47-111.3 50.4-34.8 2.8-85.8-3.6-132.4-49.9-33.2-33-50.7-74-50.7-118.5 0-45.9 19.3-93.7 50.3-124.6zm38.4 122.5c0 21.8 8.5 41.7 24.5 57.8 36.8 36.6 87.4 30.3 117.9.4 25.3-25 48.3-48.1 53.7-53.6l-118.6-117-53 52.8c-15.3 15.3-24.5 37.7-24.5 59.6zm536.8 675.6c0 113.8-44.7 220.7-125.8 301.1-81.1 80.5-188.9 124.8-303.5 124.8-114.7 0-222.5-44.3-303.6-124.8-81.1-80.4-125.7-187.3-125.7-301.1 0-113.7 44.6-220.7 125.7-301.2C809.4 743.3 917.2 699 1031.9 699c114.6 0 222.4 44.3 303.5 124.7 81.1 80.5 125.8 187.5 125.8 301.2zm-110.5 0c0-84.6-33.2-164-93.3-223.7-60.3-59.8-140.4-92.7-225.5-92.7-85.2 0-165.3 32.9-225.5 92.7-60.2 59.7-93.5 139.1-93.5 223.7 0 84.4 33.3 163.9 93.5 223.6 60.2 59.8 140.3 92.7 225.5 92.7 175.8 0 318.8-141.9 318.8-316.3zM603.3 510.6c0 181.2-99.9 346.5-261.1 432 46 29 84.8 69 111.6 116.1 28.4 49.4 43.4 105.7 43.4 162.8 0 88.2-34.8 171.2-97.8 233.7-62.8 62.4-146.5 96.8-235.5 96.8H.8L.5 21.1H110c131.7 0 255.7 50.9 348.9 143.4 93.3 92.5 144.4 215.4 144.4 346.1zM380.8 241.9c-71.9-71.3-167.6-110.8-269.3-111.2v759.9c101.7-.5 197.4-40 269.3-111.3 72.4-71.7 112.1-167.2 112.1-268.7 0-101.4-39.7-196.8-112.1-268.7zM111.5 1442.5h52.3c122.8 0 222.7-99.2 222.7-221 0-59-23.1-114.5-65.1-156.3-42.1-41.7-98.5-64.6-158.1-64.6 0 0-42.7-.2-51.8-.2z" fill-rule="evenodd"/></svg>