<?xml version="1.0" standalone="no"?>
<!DOCTYPE svg PUBLIC "-//W3C//DTD SVG 20010904//EN"
 "http://www.w3.org/TR/2001/REC-SVG-20010904/DTD/svg10.dtd">
<svg version="1.0" xmlns="http://www.w3.org/2000/svg"
 width="1280.000000pt" height="1280.000000pt" viewBox="0 0 1280.000000 1280.000000"
 preserveAspectRatio="xMidYMid meet">
<g transform="translate(0.000000,1280.000000) scale(0.100000,-0.100000)"
fill="#000000" stroke="none">
<path d="M6225 12713 c-1360 -27 -2593 -460 -3649 -1282 -407 -316 -849 -755
-1169 -1157 -931 -1174 -1373 -2562 -1317 -4131 44 -1194 367 -2225 998 -3178
602 -910 1497 -1721 2427 -2201 744 -384 1471 -588 2340 -659 369 -30 916 -22
1300 21 1429 157 2666 763 3722 1823 1041 1044 1642 2277 1797 3686 29 262 38
440 38 760 0 321 -9 499 -38 760 -141 1280 -640 2402 -1505 3385 -152 173
-468 489 -629 631 -1216 1067 -2640 1575 -4315 1542z"/>
</g>
</svg>
