<svg width="24.000000" height="24.000000" viewBox="0 0 24 24" fill="none" xmlns="http://www.w3.org/2000/svg" xmlns:xlink="http://www.w3.org/1999/xlink">
	<desc>
			Created with Pixso.
	</desc>
	<defs>
		<clipPath id="clip26_318">
			<rect id="Icon-Close" rx="0.000000" width="23.000000" height="23.000000" transform="translate(0.500000 0.500000)" fill="white" fill-opacity="0"/>
		</clipPath>
	</defs>
	<rect id="Icon-Close" rx="0.000000" width="23.000000" height="23.000000" transform="translate(0.500000 0.500000)" fill="#FFFFFF" fill-opacity="0"/>
	<g clip-path="url(#clip26_318)">
		<path id="Vector" d="M19.19 6.41C19.63 5.97 19.63 5.25 19.19 4.8C18.74 4.36 18.02 4.36 17.58 4.8L12 10.38L6.41 4.8C5.97 4.36 5.25 4.36 4.8 4.8C4.36 5.25 4.36 5.97 4.8 6.41L10.38 12L4.8 17.58C4.36 18.02 4.36 18.74 4.8 19.19C5.25 19.63 5.97 19.63 6.41 19.19L12 13.61L17.58 19.19C18.02 19.63 18.74 19.63 19.19 19.19C19.63 18.74 19.63 18.02 19.19 17.58L13.61 12L19.19 6.41Z" fill="#1D1D1D" fill-opacity="1.000000" fill-rule="nonzero"/>
	</g>
</svg>
