<svg width="24.000000" height="24.000000" viewBox="0 0 24 24" fill="none" xmlns="http://www.w3.org/2000/svg" xmlns:xlink="http://www.w3.org/1999/xlink">
	<desc>
			Created with Pixso.
	</desc>
	<defs>
		<clipPath id="clip6817_386">
			<rect id="Icon-Close" width="24.000000" height="24.000000" fill="white" fill-opacity="0"/>
		</clipPath>
	</defs>
	<rect id="Icon-Close" width="24.000000" height="24.000000" fill="#FFFFFF" fill-opacity="0"/>
	<g clip-path="url(#clip6817_386)">
		<path id="Vector" d="M19.1943 6.41711C19.6392 5.97217 19.6392 5.25073 19.1943 4.80566C18.7493 4.36072 18.0278 4.36072 17.5828 4.80566L12 10.3885L6.41724 4.80566C5.97217 4.36072 5.25073 4.36072 4.80566 4.80566C4.36084 5.25073 4.36084 5.97217 4.80566 6.41711L10.3887 12L4.80566 17.5829C4.36084 18.0278 4.36084 18.7493 4.80566 19.1943C5.25073 19.6393 5.97217 19.6393 6.41724 19.1943L12 13.6115L17.5828 19.1943C18.0278 19.6393 18.7493 19.6393 19.1943 19.1943C19.6392 18.7493 19.6392 18.0278 19.1943 17.5829L13.6113 12L19.1943 6.41711Z" fill="#292929" fill-opacity="1.000000" fill-rule="nonzero"/>
	</g>
</svg>
