<svg width="24.000000" height="24.000000" viewBox="0 0 24 24" fill="none" xmlns="http://www.w3.org/2000/svg" xmlns:xlink="http://www.w3.org/1999/xlink">
	<desc>
			Created with Pixso.
	</desc>
	<defs>
		<clipPath id="clip6817_383">
			<rect id="Icon-Phone-call" width="24.000000" height="24.000000" fill="white" fill-opacity="0"/>
		</clipPath>
	</defs>
	<rect id="Icon-Phone-call" width="24.000000" height="24.000000" fill="#FFFFFF" fill-opacity="0"/>
	<g clip-path="url(#clip6817_383)">
		<path id="Vector" d="M20.01 15.38C18.78 15.38 17.5901 15.1801 16.48 14.8199C16.1299 14.7 15.74 14.79 15.47 15.0601L13.8999 17.03C11.0701 15.6801 8.41992 13.13 7.01001 10.2L8.95996 8.54004C9.22998 8.26001 9.31006 7.87 9.19995 7.52002C8.83008 6.41003 8.63989 5.21997 8.63989 3.98999C8.63989 3.44995 8.18994 3 7.6499 3L4.18994 3C3.6499 3 3 3.23999 3 3.98999C3 13.28 10.73 21 20.01 21C20.72 21 21 20.37 21 19.8199L21 16.37C21 15.83 20.55 15.38 20.01 15.38Z" fill="#292929" fill-opacity="1.000000" fill-rule="nonzero"/>
	</g>
</svg>
