<svg width="24.000000" height="24.000000" viewBox="0 0 24 24" fill="none" xmlns="http://www.w3.org/2000/svg" xmlns:xlink="http://www.w3.org/1999/xlink">
	<desc>
			Created with Pixso.
	</desc>
	<defs>
		<clipPath id="clip6817_384">
			<rect id="Icon-Burger-menu" width="24.000000" height="24.000000" fill="white" fill-opacity="0"/>
		</clipPath>
	</defs>
	<rect id="Icon-Burger-menu" width="24.000000" height="24.000000" fill="#FFFFFF" fill-opacity="0"/>
	<g clip-path="url(#clip6817_384)">
		<path id="Vector" d="M4 18L20 18C20.5522 18 21 17.5522 21 17C21 16.4478 20.5522 16 20 16L4 16C3.44775 16 3 16.4478 3 17C3 17.5522 3.44775 18 4 18ZM4 13L20 13C20.5522 13 21 12.5522 21 12C21 11.4478 20.5522 11 20 11L4 11C3.44775 11 3 11.4478 3 12C3 12.5522 3.44775 13 4 13ZM4 6C3.44775 6 3 6.44775 3 7C3 7.55225 3.44775 8 4 8L20 8C20.5522 8 21 7.55225 21 7C21 6.44775 20.5522 6 20 6L4 6Z" fill="#292929" fill-opacity="1.000000" fill-rule="nonzero"/>
	</g>
</svg>
