<?xml version="1.0" standalone="no"?>
<!DOCTYPE svg PUBLIC "-//W3C//DTD SVG 20010904//EN"
 "http://www.w3.org/TR/2001/REC-SVG-20010904/DTD/svg10.dtd">
<svg version="1.0" xmlns="http://www.w3.org/2000/svg"
 width="344.000000pt" height="48.000000pt" viewBox="0 0 344.000000 48.000000"
 preserveAspectRatio="xMidYMid meet">

<g transform="translate(0.000000,48.000000) scale(0.100000,-0.100000)"
fill="#000000" stroke="none">
<path d="M856 464 c-20 -19 -20 -28 0 -45 13 -10 20 -10 36 0 16 10 23 10 35
0 11 -10 19 -10 33 -1 12 7 21 8 25 2 10 -16 45 -12 52 6 5 15 7 15 15 0 11
-20 47 -21 54 -1 6 14 8 14 18 -1 17 -22 50 -14 54 14 4 26 -22 40 -47 25 -11
-7 -22 -7 -34 1 -12 8 -22 8 -37 -2 -12 -7 -20 -8 -20 -2 0 14 -43 13 -58 -2
-9 -9 -12 -9 -12 1 0 9 -10 12 -32 8 -18 -2 -41 -1 -50 4 -11 6 -22 4 -32 -7z"/>
<path d="M1726 464 c-9 -9 -17 -10 -21 -4 -9 14 -52 12 -58 -2 -11 -33 40 -67
58 -38 4 6 13 5 25 -2 15 -10 22 -10 31 -1 8 8 16 9 29 1 24 -15 50 -3 50 22
0 26 -27 37 -51 21 -11 -6 -19 -7 -19 -2 0 17 -29 20 -44 5z"/>
<path d="M2596 465 c-9 -9 -17 -11 -21 -5 -8 13 -55 13 -55 0 0 -6 -8 -5 -20
2 -15 10 -25 10 -37 2 -12 -8 -23 -8 -34 -1 -25 15 -51 1 -47 -25 4 -28 37
-36 54 -14 10 15 12 15 18 1 7 -20 43 -19 54 1 8 15 10 15 15 0 7 -18 42 -22
52 -6 4 6 13 5 25 -2 21 -13 50 3 50 28 0 23 -36 36 -54 19z"/>
<path d="M44 455 c-7 -17 12 -45 31 -45 19 0 36 25 29 44 -8 20 -53 21 -60 1z"/>
<path d="M314 455 c-7 -17 12 -45 31 -45 19 0 36 25 29 44 -8 20 -53 21 -60 1z"/>
<path d="M513 454 c-3 -8 2 -23 11 -32 13 -14 20 -14 36 -5 12 8 21 9 25 3 10
-15 45 -12 51 5 6 14 8 13 20 -2 10 -14 17 -16 31 -7 28 18 23 48 -9 52 -16 2
-28 -2 -28 -7 0 -8 -7 -7 -20 1 -16 10 -24 10 -40 0 -12 -7 -20 -8 -20 -2 0
16 -50 11 -57 -6z"/>
<path d="M1246 454 c-10 -26 19 -52 42 -38 9 6 17 20 17 30 0 26 -50 32 -59 8z"/>
<path d="M1514 455 c-7 -17 12 -45 31 -45 19 0 36 25 29 44 -8 20 -53 21 -60
1z"/>
<path d="M1917 457 c-8 -22 16 -50 39 -45 13 2 19 12 19 28 0 20 -6 26 -26 28
-16 2 -29 -3 -32 -11z"/>
<path d="M2184 456 c-10 -26 4 -48 28 -44 17 2 23 10 23 28 0 18 -6 26 -23 28
-13 2 -25 -3 -28 -12z"/>
<path d="M2857 424 c-12 -12 -8 -41 8 -54 20 -17 47 5 43 34 -3 21 -37 34 -51
20z"/>
<path d="M3317 413 c-14 -13 -7 -43 12 -53 15 -7 23 -6 35 6 19 19 20 26 4 42
-13 13 -41 16 -51 5z"/>
<path d="M2994 376 c-10 -26 4 -48 28 -44 17 2 23 10 23 28 0 18 -6 26 -23 28
-13 2 -25 -3 -28 -12z"/>
<path d="M3064 375 c-4 -8 -4 -22 0 -30 6 -17 42 -20 51 -5 4 6 13 5 24 -2 24
-15 51 -4 51 22 0 26 -27 37 -51 22 -11 -7 -20 -8 -24 -2 -9 15 -45 12 -51 -5z"/>
<path d="M1987 363 c-11 -11 -17 -13 -17 -5 0 18 -47 14 -54 -5 -4 -9 0 -23 9
-32 13 -13 19 -14 36 -2 15 9 24 10 32 2 17 -17 35 -13 47 8 7 15 6 23 -6 35
-20 20 -26 20 -47 -1z"/>
<path d="M2320 366 c-27 -33 18 -72 48 -42 13 13 14 20 6 34 -15 23 -38 26
-54 8z"/>
<path d="M46 353 c-4 -8 -1 -22 5 -29 13 -16 49 -19 49 -4 0 6 7 6 19 -1 26
-17 53 -4 49 23 -3 21 -9 23 -60 25 -43 2 -58 -1 -62 -14z"/>
<path d="M314 356 c-10 -26 4 -48 28 -44 33 4 33 52 0 56 -13 2 -25 -3 -28
-12z"/>
<path d="M446 354 c-13 -33 30 -58 53 -30 16 20 3 46 -24 46 -13 0 -26 -7 -29
-16z"/>
<path d="M714 356 c-10 -26 4 -48 28 -44 17 2 23 10 23 28 0 18 -6 26 -23 28
-13 2 -25 -3 -28 -12z"/>
<path d="M984 356 c-10 -26 4 -48 28 -44 17 2 23 10 23 28 0 18 -6 26 -23 28
-13 2 -25 -3 -28 -12z"/>
<path d="M1246 354 c-8 -21 11 -44 35 -44 19 0 35 33 24 50 -10 16 -52 12 -59
-6z"/>
<path d="M1515 360 c-11 -17 5 -50 24 -50 24 0 43 23 35 44 -7 18 -49 22 -59
6z"/>
<path d="M1716 354 c-10 -26 19 -52 42 -38 9 6 17 20 17 30 0 26 -50 32 -59 8z"/>
<path d="M2184 356 c-10 -26 4 -48 28 -44 17 2 23 10 23 28 0 18 -6 26 -23 28
-13 2 -25 -3 -28 -12z"/>
<path d="M2801 337 c-25 -31 20 -71 48 -42 12 12 13 19 5 33 -15 22 -38 26
-53 9z"/>
<path d="M3372 341 c-8 -4 -12 -19 -10 -32 2 -18 9 -24 28 -24 19 0 26 6 28
24 3 20 -11 41 -28 41 -3 0 -11 -4 -18 -9z"/>
<path d="M2997 313 c-12 -11 -8 -51 6 -56 9 -4 9 -8 -1 -15 -22 -15 -11 -56
16 -60 27 -4 40 23 23 49 -8 15 -8 23 0 38 7 10 9 26 6 35 -6 16 -38 22 -50 9z"/>
<path d="M3187 313 c-12 -11 -8 -40 7 -52 28 -23 68 17 45 45 -12 15 -41 19
-52 7z"/>
<path d="M320 265 c-19 -23 -8 -50 20 -50 19 0 26 6 28 24 5 35 -26 53 -48 26z"/>
<path d="M455 266 c-20 -15 -15 -43 10 -52 18 -7 45 12 45 32 0 22 -35 35 -55
20z"/>
<path d="M1925 266 c-20 -15 -15 -43 10 -52 18 -7 45 12 45 32 0 22 -35 35
-55 20z"/>
<path d="M2063 273 c-15 -6 -17 -49 -3 -58 33 -20 65 26 38 53 -13 13 -16 13
-35 5z"/>
<path d="M2598 266 c-10 -10 -17 -11 -30 -2 -13 8 -23 8 -36 0 -12 -8 -22 -8
-33 -1 -24 15 -51 1 -47 -25 4 -28 37 -36 54 -14 10 15 12 15 18 1 6 -17 41
-20 51 -5 4 6 13 5 25 -2 21 -13 50 3 50 28 0 22 -37 37 -52 20z"/>
<path d="M44 255 c-9 -23 3 -45 24 -45 29 0 48 26 32 45 -7 8 -21 15 -32 15
-10 0 -21 -7 -24 -15z"/>
<path d="M184 256 c-10 -26 4 -48 28 -44 17 2 23 10 23 28 0 18 -6 26 -23 28
-13 2 -25 -3 -28 -12z"/>
<path d="M714 256 c-10 -26 4 -48 28 -44 17 2 23 10 23 28 0 18 -6 26 -23 28
-13 2 -25 -3 -28 -12z"/>
<path d="M984 256 c-10 -26 4 -48 28 -44 17 2 23 10 23 28 0 18 -6 26 -23 28
-13 2 -25 -3 -28 -12z"/>
<path d="M1250 255 c-25 -30 30 -61 58 -33 9 9 12 9 12 0 0 -14 36 -16 45 -2
4 6 13 5 25 -3 15 -9 25 -9 38 -1 12 8 22 8 35 0 12 -8 22 -8 35 0 12 8 22 8
33 1 23 -14 49 -2 49 23 0 25 -26 37 -49 23 -11 -7 -22 -7 -34 1 -12 8 -22 8
-35 0 -12 -8 -22 -8 -35 0 -12 8 -22 8 -37 -2 -12 -7 -20 -8 -20 -2 0 5 -11
10 -25 10 -14 0 -25 -5 -25 -12 0 -9 -3 -9 -12 0 -16 16 -43 15 -58 -3z"/>
<path d="M1716 254 c-8 -20 11 -44 34 -44 20 0 32 23 24 45 -8 20 -50 19 -58
-1z"/>
<path d="M2184 256 c-10 -26 4 -48 28 -44 17 2 23 10 23 28 0 18 -6 26 -23 28
-13 2 -25 -3 -28 -12z"/>
<path d="M2316 254 c-8 -20 11 -44 34 -44 20 0 32 23 24 45 -8 20 -50 19 -58
-1z"/>
<path d="M2802 258 c-18 -18 -15 -36 9 -49 29 -15 59 12 43 39 -14 22 -36 26
-52 10z"/>
<path d="M3364 256 c-10 -26 4 -48 28 -44 17 2 23 10 23 28 0 18 -6 26 -23 28
-13 2 -25 -3 -28 -12z"/>
<path d="M3072 238 c-19 -19 -14 -46 10 -54 14 -4 25 -1 33 9 11 15 13 15 28
-1 21 -20 52 -6 52 23 0 29 -30 42 -52 23 -15 -14 -20 -14 -31 -2 -16 17 -24
18 -40 2z"/>
<path d="M2800 176 c-27 -33 18 -72 48 -42 13 13 14 20 6 34 -15 23 -38 26
-54 8z"/>
<path d="M3364 176 c-10 -26 4 -48 28 -44 17 2 23 10 23 28 0 18 -6 26 -23 28
-13 2 -25 -3 -28 -12z"/>
<path d="M256 164 c-20 -19 -20 -28 0 -45 12 -10 20 -10 35 -1 15 10 23 9 39
0 16 -10 22 -10 35 3 25 25 8 52 -29 46 -17 -2 -39 -1 -48 4 -11 6 -22 4 -32
-7z"/>
<path d="M454 166 c-20 -15 -14 -43 12 -53 20 -8 47 19 39 39 -9 23 -30 29
-51 14z"/>
<path d="M1924 166 c-20 -15 -14 -43 12 -53 20 -8 47 19 39 39 -9 23 -30 29
-51 14z"/>
<path d="M46 154 c-10 -26 19 -52 42 -38 9 6 17 20 17 30 0 26 -50 32 -59 8z"/>
<path d="M714 155 c-10 -25 4 -47 28 -43 17 2 24 11 26 31 3 23 0 27 -23 27
-14 0 -28 -7 -31 -15z"/>
<path d="M984 156 c-10 -26 4 -48 28 -44 17 2 23 10 23 28 0 18 -6 26 -23 28
-13 2 -25 -3 -28 -12z"/>
<path d="M1251 157 c-18 -23 -2 -49 28 -45 20 2 26 8 26 28 0 29 -34 40 -54
17z"/>
<path d="M1514 155 c-7 -17 12 -45 31 -45 19 0 36 25 29 44 -8 20 -53 21 -60
1z"/>
<path d="M1721 156 c-17 -20 -3 -46 24 -46 29 0 38 13 30 40 -7 23 -37 26 -54
6z"/>
<path d="M2113 154 c-9 -24 23 -51 45 -38 12 8 22 8 33 1 23 -14 49 -2 49 23
0 26 -27 37 -51 21 -12 -7 -19 -7 -19 -1 0 16 -50 11 -57 -6z"/>
<path d="M2321 156 c-16 -20 -3 -46 24 -46 25 0 38 21 29 45 -8 19 -38 19 -53
1z"/>
<path d="M2591 156 c-17 -20 -3 -46 24 -46 29 0 38 13 30 40 -7 23 -37 26 -54
6z"/>
<path d="M2994 156 c-10 -26 4 -48 28 -44 17 2 23 10 23 28 0 18 -6 26 -23 28
-13 2 -25 -3 -28 -12z"/>
<path d="M3140 156 c-27 -33 18 -72 48 -42 13 13 14 20 6 34 -15 23 -38 26
-54 8z"/>
<path d="M2854 106 c-10 -26 4 -48 28 -44 17 2 23 10 23 28 0 18 -6 26 -23 28
-13 2 -25 -3 -28 -12z"/>
<path d="M3315 99 c-14 -42 44 -63 59 -22 4 9 1 22 -5 29 -17 21 -47 17 -54
-7z"/>
<path d="M2997 94 c-13 -13 -7 -52 9 -58 22 -9 46 13 42 38 -3 21 -37 34 -51
20z"/>
<path d="M3184 75 c-15 -38 29 -62 56 -30 10 12 10 18 0 30 -16 19 -49 19 -56
0z"/>
<path d="M46 54 c-9 -22 12 -46 38 -42 15 2 21 10 21 28 0 20 -6 26 -26 28
-18 2 -29 -3 -33 -14z"/>
<path d="M315 60 c-11 -17 5 -50 24 -50 24 0 43 23 35 44 -7 18 -49 22 -59 6z"/>
<path d="M514 55 c-4 -8 -4 -22 0 -30 6 -17 42 -20 51 -5 4 6 13 5 25 -3 16
-9 24 -9 40 1 12 7 20 8 20 2 0 -15 36 -12 49 4 23 27 2 45 -52 44 -29 0 -58
-5 -64 -11 -9 -6 -13 -6 -13 2 0 17 -50 13 -56 -4z"/>
<path d="M984 56 c-10 -26 4 -48 28 -44 17 2 23 10 23 28 0 18 -6 26 -23 28
-13 2 -25 -3 -28 -12z"/>
<path d="M1251 56 c-17 -20 -3 -46 24 -46 29 0 38 13 30 40 -7 23 -37 26 -54
6z"/>
<path d="M1515 60 c-11 -17 5 -50 24 -50 24 0 43 23 35 44 -7 18 -49 22 -59 6z"/>
<path d="M1652 58 c-7 -7 -8 -17 -1 -30 11 -21 39 -24 57 -6 9 9 12 9 12 0 0
-7 11 -12 25 -12 14 0 25 5 25 10 0 6 7 6 19 -1 24 -16 51 -5 51 21 0 25 -26
37 -50 22 -13 -8 -21 -7 -29 1 -9 9 -16 9 -31 -1 -12 -7 -21 -8 -25 -2 -8 14
-38 13 -53 -2z"/>
<path d="M1920 55 c-17 -21 -5 -45 24 -45 27 0 42 26 25 46 -15 18 -33 18 -49
-1z"/>
<path d="M2186 54 c-7 -19 10 -44 29 -44 19 0 36 25 29 44 -8 21 -50 21 -58 0z"/>
<path d="M2384 56 c-10 -26 4 -48 28 -44 17 2 23 10 23 28 0 18 -6 26 -23 28
-13 2 -25 -3 -28 -12z"/>
<path d="M2454 55 c-9 -23 3 -45 26 -45 11 0 23 7 26 15 6 14 8 14 18 -1 17
-22 50 -14 54 14 4 27 -23 40 -49 24 -11 -7 -20 -8 -24 -2 -9 15 -45 12 -51
-5z"/>
</g>
</svg>
