<svg width="195" height="64" viewBox="0 0 195 64" fill="none" xmlns="http://www.w3.org/2000/svg">
<g filter="url(#filter0_d_7_47)">
<path d="M46.3067 5.20075V42.0788H37.2068V19.9625L28.8518 42.0788H21.508L13.0999 19.9099V42.0788H4V5.20075H14.7496L25.2332 30.7317L35.6103 5.20075H46.3067Z" fill="white"/>
<path d="M81.9364 12.7655L63.3108 56H53.5191L60.3307 41.0807L48.2507 12.7655H58.415L65.2798 31.0994L72.0915 12.7655H81.9364Z" fill="white"/>
<path d="M106.597 23.167C108.761 23.6223 110.499 24.6904 111.812 26.3715C113.124 28.0175 113.781 29.9087 113.781 32.045C113.781 35.127 112.681 37.5785 110.481 39.3996C108.317 41.1857 105.284 42.0788 101.381 42.0788H83.9798V5.20075H100.796C104.592 5.20075 107.554 6.05879 109.683 7.77486C111.847 9.49093 112.929 11.8199 112.929 14.7617C112.929 16.9331 112.344 18.7367 111.173 20.1726C110.038 21.6085 108.512 22.6066 106.597 23.167ZM93.0797 20.1201H99.0399C100.53 20.1201 101.665 19.8049 102.446 19.1745C103.262 18.5091 103.67 17.546 103.67 16.2852C103.67 15.0244 103.262 14.0613 102.446 13.3959C101.665 12.7305 100.53 12.3978 99.0399 12.3978H93.0797V20.1201ZM99.785 34.8293C101.31 34.8293 102.481 34.4966 103.297 33.8311C104.149 33.1307 104.574 32.1326 104.574 30.8368C104.574 29.541 104.131 28.5253 103.244 27.7899C102.393 27.0544 101.204 26.6867 99.6785 26.6867H93.0797V34.8293H99.785Z" fill="white"/>
<path d="M122.388 9.71857C120.792 9.71857 119.479 9.26329 118.45 8.35272C117.457 7.40713 116.96 6.25141 116.96 4.88556C116.96 3.48468 117.457 2.32896 118.45 1.41839C119.479 0.472796 120.792 0 122.388 0C123.949 0 125.226 0.472796 126.22 1.41839C127.248 2.32896 127.763 3.48468 127.763 4.88556C127.763 6.25141 127.248 7.40713 126.22 8.35272C125.226 9.26329 123.949 9.71857 122.388 9.71857ZM126.911 12.7655V42.0788H117.811V12.7655H126.911Z" fill="white"/>
<path d="M153.918 42.0788L141.359 25.7936V42.0788H132.259V5.20075H141.359V21.3809L153.811 5.20075H164.508L150.033 23.272L165.04 42.0788H153.918Z" fill="white"/>
<path d="M177.217 12.3978V19.8574H189.404V26.7917H177.217V34.8818H191V42.0788H168.117V5.20075H191V12.3978H177.217Z" fill="white"/>
</g>
<defs>
<filter id="filter0_d_7_47" x="0" y="0" width="195" height="64" filterUnits="userSpaceOnUse" color-interpolation-filters="sRGB">
<feFlood flood-opacity="0" result="BackgroundImageFix"/>
<feColorMatrix in="SourceAlpha" type="matrix" values="0 0 0 0 0 0 0 0 0 0 0 0 0 0 0 0 0 0 127 0" result="hardAlpha"/>
<feOffset dy="4"/>
<feGaussianBlur stdDeviation="2"/>
<feComposite in2="hardAlpha" operator="out"/>
<feColorMatrix type="matrix" values="0 0 0 0 0 0 0 0 0 0 0 0 0 0 0 0 0 0 0.25 0"/>
<feBlend mode="normal" in2="BackgroundImageFix" result="effect1_dropShadow_7_47"/>
<feBlend mode="normal" in="SourceGraphic" in2="effect1_dropShadow_7_47" result="shape"/>
</filter>
</defs>
</svg>
