<svg width="32.000000" height="32.000000" viewBox="0 0 32 32" fill="none" xmlns="http://www.w3.org/2000/svg" xmlns:xlink="http://www.w3.org/1999/xlink">
	<desc>
			Created with Pixso.
	</desc>
	<defs>
		<clipPath id="clip41317_170">
			<rect id="Icon-Phone-call" width="32.000000" height="32.000000" fill="white" fill-opacity="0"/>
		</clipPath>
	</defs>
	<rect id="Icon-Phone-call" width="32.000000" height="32.000000" fill="#FFFFFF" fill-opacity="0"/>
	<g clip-path="url(#clip41317_170)">
		<path id="Vector" d="M26.68 20.5C25.04 20.5 23.45 20.24 21.97 19.76C21.5 19.6 20.98 19.71 20.62 20.08L18.53 22.7C14.75 20.9 11.22 17.5 9.34 13.6L11.94 11.38C12.3 11.01 12.41 10.49 12.26 10.02C11.77 8.54 11.52 6.95 11.52 5.31C11.52 4.59 10.91 4 10.2 4L5.58 4C4.86 4 4 4.31 4 5.31C4 17.7 14.3 28 26.68 28C27.62 28 28 27.16 28 26.42L28 21.82C28 21.1 27.39 20.5 26.68 20.5Z" fill="#FFFFFF" fill-opacity="1.000000" fill-rule="nonzero"/>
	</g>
</svg>
