<svg width="276" height="70" viewBox="0 0 276 70" fill="none" xmlns="http://www.w3.org/2000/svg">
<path d="M1.656 26V21.824H4.968V4.976H1.656V0.799998H14.616C16.152 0.799998 17.484 1.064 18.612 1.592C19.764 2.096 20.652 2.828 21.276 3.788C21.924 4.724 22.248 5.852 22.248 7.172V7.532C22.248 8.684 22.032 9.632 21.6 10.376C21.168 11.096 20.652 11.66 20.052 12.068C19.476 12.452 18.924 12.728 18.396 12.896V13.544C18.924 13.688 19.5 13.964 20.124 14.372C20.748 14.756 21.276 15.32 21.708 16.064C22.164 16.808 22.392 17.78 22.392 18.98V19.34C22.392 20.732 22.068 21.932 21.42 22.94C20.772 23.924 19.872 24.68 18.72 25.208C17.592 25.736 16.272 26 14.76 26H1.656ZM9.72 21.68H14.184C15.216 21.68 16.044 21.428 16.668 20.924C17.316 20.42 17.64 19.7 17.64 18.764V18.404C17.64 17.468 17.328 16.748 16.704 16.244C16.08 15.74 15.24 15.488 14.184 15.488H9.72V21.68ZM9.72 11.168H14.112C15.096 11.168 15.9 10.916 16.524 10.412C17.172 9.908 17.496 9.212 17.496 8.324V7.964C17.496 7.052 17.184 6.356 16.56 5.876C15.936 5.372 15.12 5.12 14.112 5.12H9.72V11.168ZM26.4263 26V8.144H30.8903V10.16H31.5383C31.8023 9.44 32.2343 8.912 32.8343 8.576C33.4583 8.24 34.1783 8.072 34.9943 8.072H37.1543V12.104H34.9223C33.7703 12.104 32.8223 12.416 32.0783 13.04C31.3343 13.64 30.9623 14.576 30.9623 15.848V26H26.4263ZM40.6997 26V8.144H45.2357V26H40.6997ZM42.9677 6.056C42.1517 6.056 41.4557 5.792 40.8797 5.264C40.3277 4.736 40.0517 4.04 40.0517 3.176C40.0517 2.312 40.3277 1.616 40.8797 1.088C41.4557 0.559999 42.1517 0.295998 42.9677 0.295998C43.8077 0.295998 44.5037 0.559999 45.0557 1.088C45.6077 1.616 45.8837 2.312 45.8837 3.176C45.8837 4.04 45.6077 4.736 45.0557 5.264C44.5037 5.792 43.8077 6.056 42.9677 6.056ZM50.2622 26V8.144H54.7262V10.484H55.3742C55.6622 9.86 56.2022 9.272 56.9942 8.72C57.7862 8.144 58.9862 7.856 60.5942 7.856C61.9862 7.856 63.1982 8.18 64.2302 8.828C65.2862 9.452 66.1022 10.328 66.6782 11.456C67.2542 12.56 67.5422 13.856 67.5422 15.344V26H63.0062V15.704C63.0062 14.36 62.6702 13.352 61.9982 12.68C61.3502 12.008 60.4142 11.672 59.1902 11.672C57.7982 11.672 56.7182 12.14 55.9502 13.076C55.1822 13.988 54.7982 15.272 54.7982 16.928V26H50.2622ZM71.5818 17.144V16.568C71.5818 14.696 71.9538 13.1 72.6978 11.78C73.4418 10.436 74.4258 9.416 75.6498 8.72C76.8978 8 78.2538 7.64 79.7178 7.64C81.3498 7.64 82.5858 7.928 83.4258 8.504C84.2658 9.08 84.8778 9.68 85.2618 10.304H85.9098V8.144H90.3738V29.168C90.3738 30.392 90.0138 31.364 89.2938 32.084C88.5738 32.828 87.6138 33.2 86.4138 33.2H74.4618V29.24H84.8298C85.5018 29.24 85.8378 28.88 85.8378 28.16V23.516H85.1898C84.9498 23.9 84.6138 24.296 84.1818 24.704C83.7498 25.088 83.1738 25.412 82.4538 25.676C81.7338 25.94 80.8218 26.072 79.7178 26.072C78.2538 26.072 76.8978 25.724 75.6498 25.028C74.4258 24.308 73.4418 23.288 72.6978 21.968C71.9538 20.624 71.5818 19.016 71.5818 17.144ZM81.0138 22.112C82.4058 22.112 83.5698 21.668 84.5058 20.78C85.4418 19.892 85.9098 18.644 85.9098 17.036V16.676C85.9098 15.044 85.4418 13.796 84.5058 12.932C83.5938 12.044 82.4298 11.6 81.0138 11.6C79.6218 11.6 78.4578 12.044 77.5218 12.932C76.5858 13.796 76.1178 15.044 76.1178 16.676V17.036C76.1178 18.644 76.5858 19.892 77.5218 20.78C78.4578 21.668 79.6218 22.112 81.0138 22.112ZM101.231 33.2V29.312H103.607C104.279 29.312 104.615 28.952 104.615 28.232V8.144H109.151V29.168C109.151 30.392 108.791 31.364 108.071 32.084C107.351 32.828 106.391 33.2 105.191 33.2H101.231ZM106.883 6.056C106.067 6.056 105.371 5.792 104.795 5.264C104.243 4.736 103.967 4.04 103.967 3.176C103.967 2.312 104.243 1.616 104.795 1.088C105.371 0.559999 106.067 0.295998 106.883 0.295998C107.723 0.295998 108.419 0.559999 108.971 1.088C109.523 1.616 109.799 2.312 109.799 3.176C109.799 4.04 109.523 4.736 108.971 5.264C108.419 5.792 107.723 6.056 106.883 6.056ZM122.672 26.504C120.896 26.504 119.3 26.144 117.884 25.424C116.468 24.704 115.352 23.66 114.536 22.292C113.72 20.924 113.312 19.28 113.312 17.36V16.784C113.312 14.864 113.72 13.22 114.536 11.852C115.352 10.484 116.468 9.44 117.884 8.72C119.3 8 120.896 7.64 122.672 7.64C124.448 7.64 126.044 8 127.46 8.72C128.876 9.44 129.992 10.484 130.808 11.852C131.624 13.22 132.032 14.864 132.032 16.784V17.36C132.032 19.28 131.624 20.924 130.808 22.292C129.992 23.66 128.876 24.704 127.46 25.424C126.044 26.144 124.448 26.504 122.672 26.504ZM122.672 22.472C124.064 22.472 125.216 22.028 126.128 21.14C127.04 20.228 127.496 18.932 127.496 17.252V16.892C127.496 15.212 127.04 13.928 126.128 13.04C125.24 12.128 124.088 11.672 122.672 11.672C121.28 11.672 120.128 12.128 119.216 13.04C118.304 13.928 117.848 15.212 117.848 16.892V17.252C117.848 18.932 118.304 20.228 119.216 21.14C120.128 22.028 121.28 22.472 122.672 22.472ZM138.163 33.2V29.24H147.883C148.555 29.24 148.891 28.88 148.891 28.16V23.66H148.243C148.051 24.068 147.751 24.476 147.343 24.884C146.935 25.292 146.383 25.628 145.687 25.892C144.991 26.156 144.103 26.288 143.023 26.288C141.631 26.288 140.407 25.976 139.351 25.352C138.319 24.704 137.515 23.816 136.939 22.688C136.363 21.56 136.075 20.264 136.075 18.8V8.144H140.611V18.44C140.611 19.784 140.935 20.792 141.583 21.464C142.255 22.136 143.203 22.472 144.427 22.472C145.819 22.472 146.899 22.016 147.667 21.104C148.435 20.168 148.819 18.872 148.819 17.216V8.144H153.355V29.168C153.355 30.392 152.995 31.364 152.275 32.084C151.555 32.828 150.595 33.2 149.395 33.2H138.163ZM178.271 26.504C176.663 26.504 175.427 26.228 174.563 25.676C173.699 25.124 173.063 24.512 172.655 23.84H172.007V26H167.543V0.799998H172.079V10.196H172.727C172.991 9.764 173.339 9.356 173.771 8.972C174.227 8.588 174.815 8.276 175.535 8.036C176.279 7.772 177.191 7.64 178.271 7.64C179.711 7.64 181.043 8 182.267 8.72C183.491 9.416 184.475 10.448 185.219 11.816C185.963 13.184 186.335 14.84 186.335 16.784V17.36C186.335 19.304 185.963 20.96 185.219 22.328C184.475 23.696 183.491 24.74 182.267 25.46C181.043 26.156 179.711 26.504 178.271 26.504ZM176.903 22.544C178.295 22.544 179.459 22.1 180.395 21.212C181.331 20.3 181.799 18.98 181.799 17.252V16.892C181.799 15.164 181.331 13.856 180.395 12.968C179.483 12.056 178.319 11.6 176.903 11.6C175.511 11.6 174.347 12.056 173.411 12.968C172.475 13.856 172.007 15.164 172.007 16.892V17.252C172.007 18.98 172.475 20.3 173.411 21.212C174.347 22.1 175.511 22.544 176.903 22.544ZM196.044 26.504C194.772 26.504 193.632 26.288 192.624 25.856C191.616 25.4 190.812 24.752 190.212 23.912C189.636 23.048 189.348 22.004 189.348 20.78C189.348 19.556 189.636 18.536 190.212 17.72C190.812 16.88 191.628 16.256 192.66 15.848C193.716 15.416 194.916 15.2 196.26 15.2H201.156V14.192C201.156 13.352 200.892 12.668 200.364 12.14C199.836 11.588 198.996 11.312 197.844 11.312C196.716 11.312 195.876 11.576 195.324 12.104C194.772 12.608 194.412 13.268 194.244 14.084L190.068 12.68C190.356 11.768 190.812 10.94 191.436 10.196C192.084 9.428 192.936 8.816 193.992 8.36C195.072 7.88 196.38 7.64 197.916 7.64C200.268 7.64 202.128 8.228 203.496 9.404C204.864 10.58 205.548 12.284 205.548 14.516V21.176C205.548 21.896 205.884 22.256 206.556 22.256H207.996V26H204.972C204.084 26 203.352 25.784 202.776 25.352C202.2 24.92 201.912 24.344 201.912 23.624V23.588H201.228C201.132 23.876 200.916 24.26 200.58 24.74C200.244 25.196 199.716 25.604 198.996 25.964C198.276 26.324 197.292 26.504 196.044 26.504ZM196.836 22.832C198.108 22.832 199.14 22.484 199.932 21.788C200.748 21.068 201.156 20.12 201.156 18.944V18.584H196.584C195.744 18.584 195.084 18.764 194.604 19.124C194.124 19.484 193.884 19.988 193.884 20.636C193.884 21.284 194.136 21.812 194.64 22.22C195.144 22.628 195.876 22.832 196.836 22.832ZM219.349 26.504C217.621 26.504 216.049 26.144 214.633 25.424C213.241 24.704 212.137 23.66 211.321 22.292C210.505 20.924 210.097 19.268 210.097 17.324V16.82C210.097 14.876 210.505 13.22 211.321 11.852C212.137 10.484 213.241 9.44 214.633 8.72C216.049 8 217.621 7.64 219.349 7.64C221.053 7.64 222.517 7.94 223.741 8.54C224.965 9.14 225.949 9.968 226.693 11.024C227.461 12.056 227.965 13.232 228.205 14.552L223.813 15.488C223.717 14.768 223.501 14.12 223.165 13.544C222.829 12.968 222.349 12.512 221.725 12.176C221.125 11.84 220.369 11.672 219.457 11.672C218.545 11.672 217.717 11.876 216.973 12.284C216.253 12.668 215.677 13.256 215.245 14.048C214.837 14.816 214.633 15.764 214.633 16.892V17.252C214.633 18.38 214.837 19.34 215.245 20.132C215.677 20.9 216.253 21.488 216.973 21.896C217.717 22.28 218.545 22.472 219.457 22.472C220.825 22.472 221.857 22.124 222.553 21.428C223.273 20.708 223.729 19.772 223.921 18.62L228.313 19.664C228.001 20.936 227.461 22.1 226.693 23.156C225.949 24.188 224.965 25.004 223.741 25.604C222.517 26.204 221.053 26.504 219.349 26.504ZM232.055 26V0.799998H236.591V14.732H237.239L243.143 8.144H249.047L240.803 16.784L249.335 26H243.503L237.239 18.908H236.591V26H232.055ZM9.36 62C8.184 62 7.224 61.64 6.48 60.92C5.76 60.176 5.4 59.192 5.4 57.968V47.888H0.936V44.144H5.4V38.6H9.936V44.144H14.832V47.888H9.936V57.176C9.936 57.896 10.272 58.256 10.944 58.256H14.4V62H9.36ZM26.8012 62.504C25.0252 62.504 23.4292 62.144 22.0132 61.424C20.5972 60.704 19.4812 59.66 18.6652 58.292C17.8492 56.924 17.4412 55.28 17.4412 53.36V52.784C17.4412 50.864 17.8492 49.22 18.6652 47.852C19.4812 46.484 20.5972 45.44 22.0132 44.72C23.4292 44 25.0252 43.64 26.8012 43.64C28.5772 43.64 30.1732 44 31.5892 44.72C33.0052 45.44 34.1212 46.484 34.9372 47.852C35.7532 49.22 36.1612 50.864 36.1612 52.784V53.36C36.1612 55.28 35.7532 56.924 34.9372 58.292C34.1212 59.66 33.0052 60.704 31.5892 61.424C30.1732 62.144 28.5772 62.504 26.8012 62.504ZM26.8012 58.472C28.1932 58.472 29.3452 58.028 30.2572 57.14C31.1692 56.228 31.6252 54.932 31.6252 53.252V52.892C31.6252 51.212 31.1692 49.928 30.2572 49.04C29.3692 48.128 28.2172 47.672 26.8012 47.672C25.4092 47.672 24.2572 48.128 23.3452 49.04C22.4332 49.928 21.9772 51.212 21.9772 52.892V53.252C21.9772 54.932 22.4332 56.228 23.3452 57.14C24.2572 58.028 25.4092 58.472 26.8012 58.472ZM56.3288 62C55.1528 62 54.1928 61.64 53.4488 60.92C52.7288 60.176 52.3688 59.192 52.3688 57.968V47.888H47.9048V44.144H52.3688V38.6H56.9048V44.144H61.8008V47.888H56.9048V57.176C56.9048 57.896 57.2408 58.256 57.9128 58.256H61.3688V62H56.3288ZM65.9067 62V36.8H70.4427V46.34H71.0907C71.2827 45.956 71.5827 45.572 71.9907 45.188C72.3987 44.804 72.9387 44.492 73.6107 44.252C74.3067 43.988 75.1827 43.856 76.2387 43.856C77.6307 43.856 78.8427 44.18 79.8747 44.828C80.9307 45.452 81.7467 46.328 82.3227 47.456C82.8987 48.56 83.1867 49.856 83.1867 51.344V62H78.6507V51.704C78.6507 50.36 78.3147 49.352 77.6427 48.68C76.9947 48.008 76.0587 47.672 74.8347 47.672C73.4427 47.672 72.3627 48.14 71.5947 49.076C70.8267 49.988 70.4427 51.272 70.4427 52.928V62H65.9067ZM96.2263 62.504C94.4503 62.504 92.8783 62.132 91.5103 61.388C90.1663 60.62 89.1103 59.552 88.3423 58.184C87.5983 56.792 87.2263 55.16 87.2263 53.288V52.856C87.2263 50.984 87.5983 49.364 88.3423 47.996C89.0863 46.604 90.1303 45.536 91.4743 44.792C92.8183 44.024 94.3783 43.64 96.1543 43.64C97.9063 43.64 99.4303 44.036 100.726 44.828C102.022 45.596 103.03 46.676 103.75 48.068C104.47 49.436 104.83 51.032 104.83 52.856V54.404H91.8343C91.8823 55.628 92.3383 56.624 93.2023 57.392C94.0663 58.16 95.1223 58.544 96.3703 58.544C97.6423 58.544 98.5783 58.268 99.1783 57.716C99.7783 57.164 100.234 56.552 100.546 55.88L104.254 57.824C103.918 58.448 103.426 59.132 102.778 59.876C102.154 60.596 101.314 61.22 100.258 61.748C99.2023 62.252 97.8583 62.504 96.2263 62.504ZM91.8703 51.02H100.222C100.126 49.988 99.7063 49.16 98.9623 48.536C98.2423 47.912 97.2943 47.6 96.1183 47.6C94.8943 47.6 93.9223 47.912 93.2023 48.536C92.4823 49.16 92.0383 49.988 91.8703 51.02ZM126.144 62.504C124.368 62.504 122.796 62.132 121.428 61.388C120.084 60.62 119.028 59.552 118.26 58.184C117.516 56.792 117.144 55.16 117.144 53.288V52.856C117.144 50.984 117.516 49.364 118.26 47.996C119.004 46.604 120.048 45.536 121.392 44.792C122.736 44.024 124.296 43.64 126.072 43.64C127.824 43.64 129.348 44.036 130.644 44.828C131.94 45.596 132.948 46.676 133.668 48.068C134.388 49.436 134.748 51.032 134.748 52.856V54.404H121.752C121.8 55.628 122.256 56.624 123.12 57.392C123.984 58.16 125.04 58.544 126.288 58.544C127.56 58.544 128.496 58.268 129.096 57.716C129.696 57.164 130.152 56.552 130.464 55.88L134.172 57.824C133.836 58.448 133.344 59.132 132.696 59.876C132.072 60.596 131.232 61.22 130.176 61.748C129.12 62.252 127.776 62.504 126.144 62.504ZM121.788 51.02H130.14C130.044 49.988 129.624 49.16 128.88 48.536C128.16 47.912 127.212 47.6 126.036 47.6C124.812 47.6 123.84 47.912 123.12 48.536C122.4 49.16 121.956 49.988 121.788 51.02ZM142.002 62L136.314 44.144H141.138L145.278 58.688H145.926L150.066 44.144H154.89L149.202 62H142.002ZM165.59 62.504C163.814 62.504 162.242 62.132 160.874 61.388C159.53 60.62 158.474 59.552 157.706 58.184C156.962 56.792 156.59 55.16 156.59 53.288V52.856C156.59 50.984 156.962 49.364 157.706 47.996C158.45 46.604 159.494 45.536 160.838 44.792C162.182 44.024 163.742 43.64 165.518 43.64C167.27 43.64 168.794 44.036 170.09 44.828C171.386 45.596 172.394 46.676 173.114 48.068C173.834 49.436 174.194 51.032 174.194 52.856V54.404H161.198C161.246 55.628 161.702 56.624 162.566 57.392C163.43 58.16 164.486 58.544 165.734 58.544C167.006 58.544 167.942 58.268 168.542 57.716C169.142 57.164 169.598 56.552 169.91 55.88L173.618 57.824C173.282 58.448 172.79 59.132 172.142 59.876C171.518 60.596 170.678 61.22 169.622 61.748C168.566 62.252 167.222 62.504 165.59 62.504ZM161.234 51.02H169.586C169.49 49.988 169.07 49.16 168.326 48.536C167.606 47.912 166.658 47.6 165.482 47.6C164.258 47.6 163.286 47.912 162.566 48.536C161.846 49.16 161.402 49.988 161.234 51.02ZM178.231 62V44.144H182.695V46.16H183.343C183.607 45.44 184.039 44.912 184.639 44.576C185.263 44.24 185.983 44.072 186.799 44.072H188.959V48.104H186.727C185.575 48.104 184.627 48.416 183.883 49.04C183.139 49.64 182.767 50.576 182.767 51.848V62H178.231ZM194.448 69.2V65.24H204.168C204.84 65.24 205.176 64.88 205.176 64.16V59.66H204.528C204.336 60.068 204.036 60.476 203.628 60.884C203.22 61.292 202.668 61.628 201.972 61.892C201.276 62.156 200.388 62.288 199.308 62.288C197.916 62.288 196.692 61.976 195.636 61.352C194.604 60.704 193.8 59.816 193.224 58.688C192.648 57.56 192.36 56.264 192.36 54.8V44.144H196.896V54.44C196.896 55.784 197.22 56.792 197.868 57.464C198.54 58.136 199.488 58.472 200.712 58.472C202.104 58.472 203.184 58.016 203.952 57.104C204.72 56.168 205.104 54.872 205.104 53.216V44.144H209.64V65.168C209.64 66.392 209.28 67.364 208.56 68.084C207.84 68.828 206.88 69.2 205.68 69.2H194.448ZM221.888 62.504C220.472 62.504 219.14 62.156 217.892 61.46C216.668 60.74 215.684 59.696 214.94 58.328C214.196 56.96 213.824 55.304 213.824 53.36V52.784C213.824 50.84 214.196 49.184 214.94 47.816C215.684 46.448 216.668 45.416 217.892 44.72C219.116 44 220.448 43.64 221.888 43.64C222.968 43.64 223.868 43.772 224.588 44.036C225.332 44.276 225.932 44.588 226.388 44.972C226.844 45.356 227.192 45.764 227.432 46.196H228.08V36.8H232.616V62H228.152V59.84H227.504C227.096 60.512 226.46 61.124 225.596 61.676C224.756 62.228 223.52 62.504 221.888 62.504ZM223.256 58.544C224.648 58.544 225.812 58.1 226.748 57.212C227.684 56.3 228.152 54.98 228.152 53.252V52.892C228.152 51.164 227.684 49.856 226.748 48.968C225.836 48.056 224.672 47.6 223.256 47.6C221.864 47.6 220.7 48.056 219.764 48.968C218.828 49.856 218.36 51.164 218.36 52.892V53.252C218.36 54.98 218.828 56.3 219.764 57.212C220.7 58.1 221.864 58.544 223.256 58.544ZM243.189 62.504C241.917 62.504 240.777 62.288 239.769 61.856C238.761 61.4 237.957 60.752 237.357 59.912C236.781 59.048 236.493 58.004 236.493 56.78C236.493 55.556 236.781 54.536 237.357 53.72C237.957 52.88 238.773 52.256 239.805 51.848C240.861 51.416 242.061 51.2 243.405 51.2H248.301V50.192C248.301 49.352 248.037 48.668 247.509 48.14C246.981 47.588 246.141 47.312 244.989 47.312C243.861 47.312 243.021 47.576 242.469 48.104C241.917 48.608 241.557 49.268 241.389 50.084L237.213 48.68C237.501 47.768 237.957 46.94 238.581 46.196C239.229 45.428 240.081 44.816 241.137 44.36C242.217 43.88 243.525 43.64 245.061 43.64C247.413 43.64 249.273 44.228 250.641 45.404C252.009 46.58 252.693 48.284 252.693 50.516V57.176C252.693 57.896 253.029 58.256 253.701 58.256H255.141V62H252.117C251.229 62 250.497 61.784 249.921 61.352C249.345 60.92 249.057 60.344 249.057 59.624V59.588H248.373C248.277 59.876 248.061 60.26 247.725 60.74C247.389 61.196 246.861 61.604 246.141 61.964C245.421 62.324 244.437 62.504 243.189 62.504ZM243.981 58.832C245.253 58.832 246.285 58.484 247.077 57.788C247.893 57.068 248.301 56.12 248.301 54.944V54.584H243.729C242.889 54.584 242.229 54.764 241.749 55.124C241.269 55.484 241.029 55.988 241.029 56.636C241.029 57.284 241.281 57.812 241.785 58.22C242.289 58.628 243.021 58.832 243.981 58.832ZM259.909 69.2V65.24H269.629C270.301 65.24 270.637 64.88 270.637 64.16V59.66H269.989C269.797 60.068 269.497 60.476 269.089 60.884C268.681 61.292 268.129 61.628 267.433 61.892C266.737 62.156 265.849 62.288 264.769 62.288C263.377 62.288 262.153 61.976 261.097 61.352C260.065 60.704 259.261 59.816 258.685 58.688C258.109 57.56 257.821 56.264 257.821 54.8V44.144H262.357V54.44C262.357 55.784 262.681 56.792 263.329 57.464C264.001 58.136 264.949 58.472 266.173 58.472C267.565 58.472 268.645 58.016 269.413 57.104C270.181 56.168 270.565 54.872 270.565 53.216V44.144H275.101V65.168C275.101 66.392 274.741 67.364 274.021 68.084C273.301 68.828 272.341 69.2 271.141 69.2H259.909Z" fill="#292929"/>
</svg>
