<?xml version="1.0"?>
<svg width="88" height="63" xmlns="http://www.w3.org/2000/svg" xmlns:svg="http://www.w3.org/2000/svg">
 <g class="layer">
  <title>Layer 1</title>
  <path d="m18.77,3.52l0,22.35c0.02,0.66 0.27,1.22 0.74,1.68c0.49,0.46 1.07,0.69 1.76,0.69l0.47,0l0.04,0.38l-11.88,0l0,-0.38l0.51,0c0.64,0 1.21,-0.23 1.68,-0.69c0.49,-0.46 0.76,-1 0.82,-1.64l0,-22.39l-5.28,0c-1.2,0.03 -2.15,0.39 -2.85,1.1c-0.7,0.71 -1.06,1.64 -1.06,2.78l0,0.46l-0.39,0l0,-6.63c1.06,0.43 2.6,0.66 4.61,0.69l15.75,0c0.8,0 1.68,-0.08 2.62,-0.23c0.96,-0.15 1.62,-0.3 1.99,-0.46l0,6.63l-0.39,0l0,-0.46c0,-1.57 -0.62,-2.69 -1.84,-3.35c-0.58,-0.33 -1.27,-0.5 -2.07,-0.53l-5.24,0zm29.25,24.72c0.67,0 1.19,-0.16 1.56,-0.5c0.6,-0.58 0.91,-1.21 0.94,-1.87l0,-9.71l-12.66,0l0,9.67c0,0.66 0.24,1.23 0.74,1.71c0.49,0.46 1.07,0.69 1.76,0.69l0.47,0l0.04,0.38l-11.88,0l0,-0.38l0.51,0c0.67,0 1.25,-0.23 1.72,-0.69c0.49,-0.49 0.75,-1.06 0.78,-1.71l0,-21.1c-0.03,-0.66 -0.29,-1.22 -0.78,-1.68c-0.47,-0.49 -1.05,-0.72 -1.72,-0.72l-0.51,0l0,-0.38l11.88,0l-0.04,0.38l-0.47,0c-0.68,0 -1.27,0.24 -1.76,0.72c-0.5,0.46 -0.74,1.02 -0.74,1.68l0,9.79l12.66,0l0,-9.79c-0.03,-0.66 -0.29,-1.22 -0.78,-1.68c-0.47,-0.49 -1.05,-0.72 -1.72,-0.72l-0.51,0l0,-0.38l11.88,0l0,0.38l-0.51,0c-0.68,0 -1.27,0.24 -1.76,0.72c-0.5,0.46 -0.74,1.02 -0.74,1.68l0,21.1c0,0.66 0.24,1.23 0.74,1.71c0.49,0.46 1.07,0.69 1.76,0.69l0.51,0l0,0.38l-11.88,0l0,-0.38l0.51,0zm13.67,0c0.67,0 1.25,-0.23 1.72,-0.69c0.5,-0.49 0.75,-1.06 0.78,-1.71l0,-21.21c-0.05,-0.66 -0.24,-1.14 -0.59,-1.45c-0.63,-0.56 -1.26,-0.84 -1.91,-0.84l-0.51,0l0,-0.38l14.97,0c1.28,0 2.33,-0.09 3.17,-0.27c0.83,-0.2 1.34,-0.34 1.52,-0.42l0,6.66l-0.39,-0.04l0,-0.42c0,-1.57 -0.6,-2.69 -1.8,-3.35c-0.58,-0.33 -1.25,-0.5 -2.03,-0.53l-6.57,0l0,11.08l5.16,0c0.97,-0.03 1.76,-0.34 2.38,-0.95c0.63,-0.64 0.94,-1.41 0.94,-2.32l0,-0.34l0.39,0l0,8.8l-0.39,0l0,-0.3c0,-0.94 -0.31,-1.71 -0.94,-2.32c-0.6,-0.61 -1.37,-0.92 -2.31,-0.95l-5.24,0l0,10.7l5.12,0c1.91,0 3.49,-0.53 4.77,-1.6c1.3,-1.07 2.27,-2.58 2.89,-4.53l0.39,0l-1.8,7.77l-20.24,0l0,-0.38l0.51,0zm-23.69,31.42l0.63,0l0,0.38l-11.72,0l0,-0.34l0.59,0c0.44,-0.03 0.82,-0.2 1.13,-0.53c0.31,-0.33 0.44,-0.69 0.39,-1.1l-1.52,-13.82l-7.35,12.34c-0.97,1.57 -1.46,2.98 -1.48,4.23l-0.39,0l-10.04,-16.45l-1.52,13.71c-0.05,0.41 0.08,0.79 0.39,1.14c0.31,0.33 0.69,0.5 1.13,0.5l0.59,0l0,0.34l-8.17,0l0,-0.38l0.63,0c0.73,0 1.36,-0.22 1.88,-0.65c0.55,-0.43 0.87,-1.02 0.98,-1.75l3.24,-24.41l0.35,0l12.11,19.42l11.65,-19.42l0.35,0l3.32,24.41c0.13,0.73 0.46,1.32 0.98,1.75c0.55,0.43 1.17,0.65 1.88,0.65zm0.93,0c0.67,0 1.24,-0.23 1.72,-0.69c0.49,-0.49 0.75,-1.06 0.77,-1.71l0,-21.21c-0.05,-0.66 -0.24,-1.14 -0.59,-1.45c-0.62,-0.56 -1.26,-0.84 -1.91,-0.84l-0.52,0l0,-0.38l14.98,0c1.27,0 2.33,-0.09 3.17,-0.27c0.83,-0.2 1.34,-0.34 1.51,-0.42l0,6.66l-0.39,-0.04l0,-0.42c0,-1.57 -0.6,-2.69 -1.79,-3.35c-0.58,-0.33 -1.25,-0.5 -2.04,-0.53l-6.57,0l0,11.08l5.16,0c0.97,-0.03 1.77,-0.34 2.38,-0.95c0.63,-0.64 0.94,-1.41 0.94,-2.32l0,-0.34l0.4,0l0,8.8l-0.4,0l0,-0.3c0,-0.94 -0.31,-1.71 -0.94,-2.32c-0.6,-0.61 -1.37,-0.92 -2.31,-0.95l-5.24,0l0,10.7l5.13,0c1.9,0 3.49,-0.53 4.77,-1.6c1.3,-1.07 2.27,-2.58 2.89,-4.53l0.39,0l-1.81,7.77l-20.24,0l0,-0.38l0.52,0zm37.02,-24.72l0,22.35c0.03,0.66 0.27,1.22 0.74,1.68c0.5,0.46 1.08,0.69 1.76,0.69l0.47,0l0.04,0.38l-11.88,0l0,-0.38l0.51,0c0.65,0 1.21,-0.23 1.68,-0.69c0.5,-0.46 0.77,-1 0.82,-1.64l0,-22.39l-5.28,0c-1.2,0.03 -2.15,0.39 -2.85,1.1c-0.7,0.71 -1.06,1.64 -1.06,2.78l0,0.46l-0.39,0l0,-6.63c1.06,0.43 2.61,0.66 4.61,0.69l15.75,0c0.81,0 1.68,-0.08 2.62,-0.23c0.97,-0.15 1.63,-0.3 1.99,-0.46l0,6.63l-0.39,0l0,-0.46c0,-1.57 -0.62,-2.69 -1.84,-3.35c-0.58,-0.33 -1.26,-0.5 -2.07,-0.53l-5.24,0z" fill="#dd2a2a" id="svg_1"/>
 </g>
</svg>