<svg xmlns="http://www.w3.org/2000/svg" width="27" height="22" fill="none"><path fill="#1D1D1D" d="M5.87 10.625H4.08V4.722H1.693v-2.36h7.16v2.36H6.465v3.3l11.709-3.104-.692-2.557h-3.858V.001h4.747c.267-.007.528.076.742.235s.367.384.436.64l1.853 6.841-2.305.61-.305-1.128zm-.597 8.264a2.4 2.4 0 0 0 1.687-.692 2.35 2.35 0 0 0 .7-1.67c0-.625-.252-1.226-.7-1.669a2.4 2.4 0 0 0-1.687-.691 2.4 2.4 0 0 0-1.688.691 2.35 2.35 0 0 0-.699 1.67c0 .626.252 1.227.7 1.67a2.4 2.4 0 0 0 1.687.69m0 2.361a4.8 4.8 0 0 1-3.375-1.383A4.7 4.7 0 0 1 .5 16.527c0-1.252.503-2.453 1.398-3.338a4.8 4.8 0 0 1 3.375-1.383c1.266 0 2.48.497 3.375 1.383a4.7 4.7 0 0 1 1.398 3.339 4.7 4.7 0 0 1-1.398 3.339 4.8 4.8 0 0 1-3.375 1.383m15.511-2.361c.95 0 1.86-.373 2.531-1.037a3.52 3.52 0 0 0 1.049-2.505c0-.939-.378-1.84-1.049-2.504a3.6 3.6 0 0 0-2.53-1.037c-.95 0-1.86.373-2.532 1.037a3.52 3.52 0 0 0-1.049 2.504c0 .94.378 1.84 1.049 2.505a3.6 3.6 0 0 0 2.531 1.037m0 2.361c-1.582 0-3.1-.622-4.218-1.729a5.87 5.87 0 0 1-1.748-4.174 5.87 5.87 0 0 1 1.748-4.173 6 6 0 0 1 4.218-1.73c1.582 0 3.1.622 4.219 1.73a5.87 5.87 0 0 1 1.747 4.173 5.87 5.87 0 0 1-1.747 4.174 6 6 0 0 1-4.219 1.729"/></svg>