<svg width="32" height="32" fill="none" xmlns="http://www.w3.org/2000/svg"><g clip-path="url('#clip0_6802_223')"><path d="M26.68 20.507c-1.64 0-3.227-.267-4.707-.747a1.303 1.303 0 0 0-1.346.32l-2.094 2.627c-3.773-1.8-7.306-5.2-9.186-9.107l2.6-2.213c.36-.374.466-.894.32-1.36a14.869 14.869 0 0 1-.747-4.707c0-.72-.6-1.32-1.32-1.32H5.587C4.867 4 4 4.32 4 5.32 4 17.707 14.307 28 26.68 28c.947 0 1.32-.84 1.32-1.573v-4.6c0-.72-.6-1.32-1.32-1.32Z" fill="#292929"/></g><defs><clipPath id="clip0_6802_223"><path fill="#fff" d="M0 0h32v32H0z"/></clipPath></defs></svg>