<svg width="179" height="32" fill="none" xmlns="http://www.w3.org/2000/svg"><path d="M3.741 18.67v-6.034h1.526v6.035H3.74Zm-2.254-2.254v-1.525H7.52v1.525H1.487Zm13.6-5.143V20H13.24v-6.976h-.051l-1.999 1.253v-1.636l2.16-1.368h1.735ZM23.936 20v-1.33l3.107-2.876c.265-.256.486-.486.665-.69a2.62 2.62 0 0 0 .413-.601c.094-.199.141-.414.141-.644 0-.255-.058-.476-.175-.66a1.147 1.147 0 0 0-.477-.43 1.496 1.496 0 0 0-.686-.154c-.267 0-.5.054-.699.162a1.115 1.115 0 0 0-.46.465 1.505 1.505 0 0 0-.162.72h-1.751c0-.571.129-1.067.387-1.488a2.59 2.59 0 0 1 1.087-.975c.466-.23 1.003-.346 1.61-.346.626 0 1.17.111 1.633.333a2.59 2.59 0 0 1 1.087.912c.258.389.387.835.387 1.338 0 .33-.065.655-.196.976-.127.32-.356.677-.686 1.07-.33.389-.794.856-1.393 1.401l-1.274 1.249v.06h3.664V20h-6.221Zm12.785.12c-.636 0-1.203-.11-1.7-.329-.494-.221-.885-.525-1.172-.912a2.293 2.293 0 0 1-.439-1.346h1.858c.012.213.081.4.209.562.13.16.304.283.52.37.216.089.459.133.729.133.28 0 .53-.05.745-.15.216-.099.385-.236.507-.413.123-.176.184-.379.184-.609a1.02 1.02 0 0 0-.196-.618 1.253 1.253 0 0 0-.554-.426 2.154 2.154 0 0 0-.853-.153h-.814v-1.355h.814c.279 0 .524-.049.738-.145.215-.097.383-.23.502-.4a1.04 1.04 0 0 0 .18-.606 1.047 1.047 0 0 0-.593-.967c-.185-.094-.4-.14-.648-.14-.25 0-.478.045-.686.135a1.2 1.2 0 0 0-.498.38.998.998 0 0 0-.2.58h-1.77c.01-.504.153-.947.431-1.33a2.794 2.794 0 0 1 1.125-.9c.475-.218 1.01-.328 1.607-.328.602 0 1.13.11 1.58.329.453.218.803.514 1.053.886.253.37.378.784.375 1.244.003.489-.149.896-.456 1.223-.304.327-.7.534-1.188.622v.069c.642.082 1.13.305 1.465.669.339.36.506.812.503 1.355a2.13 2.13 0 0 1-.43 1.325c-.287.386-.683.69-1.19.912-.505.222-1.084.332-1.738.332Zm6.553-1.654v-1.453l3.643-5.74h1.253v2.011h-.742l-2.297 3.635v.068h5.178v1.479h-7.035ZM47.463 20v-1.977l.035-.644v-6.106h1.73V20h-1.765Zm14.041.12c-.602 0-1.139-.111-1.61-.333a2.804 2.804 0 0 1-1.117-.916 2.353 2.353 0 0 1-.43-1.338h1.79c.02.338.161.612.425.822.265.21.579.316.942.316.29 0 .546-.064.767-.192.225-.131.4-.311.524-.541.128-.233.192-.5.192-.802 0-.306-.065-.576-.196-.81a1.385 1.385 0 0 0-.532-.545 1.568 1.568 0 0 0-.78-.2 1.85 1.85 0 0 0-.746.158 1.347 1.347 0 0 0-.558.43l-1.64-.294.412-4.602h5.336v1.508h-3.814l-.226 2.186h.051c.153-.216.385-.395.695-.537.31-.142.656-.213 1.04-.213.525 0 .994.124 1.406.371.412.247.737.587.975 1.019.24.428.357.923.354 1.483.003.588-.133 1.11-.409 1.568a2.884 2.884 0 0 1-1.146 1.073c-.489.26-1.057.388-1.705.388Zm9.735 0c-.603 0-1.14-.111-1.611-.333a2.804 2.804 0 0 1-1.117-.916 2.353 2.353 0 0 1-.43-1.338h1.79c.02.338.162.612.426.822.264.21.578.316.942.316.29 0 .545-.064.767-.192.224-.131.399-.311.524-.541.128-.233.192-.5.192-.802 0-.306-.066-.576-.196-.81a1.386 1.386 0 0 0-.533-.545 1.568 1.568 0 0 0-.78-.2c-.256 0-.504.053-.746.158a1.347 1.347 0 0 0-.558.43l-1.64-.294.413-4.602h5.335v1.508h-3.814l-.226 2.186h.051c.154-.216.385-.395.695-.537.31-.142.656-.213 1.04-.213.525 0 .994.124 1.406.371.412.247.737.587.976 1.019.239.428.356.923.354 1.483.002.588-.134 1.11-.41 1.568a2.884 2.884 0 0 1-1.146 1.073c-.489.26-1.057.388-1.704.388Zm9.734 0c-.602 0-1.14-.111-1.61-.333a2.805 2.805 0 0 1-1.117-.916 2.354 2.354 0 0 1-.43-1.338h1.79c.019.338.161.612.425.822.264.21.578.316.942.316.29 0 .546-.064.767-.192.225-.131.4-.311.524-.541.128-.233.192-.5.192-.802 0-.306-.065-.576-.196-.81a1.385 1.385 0 0 0-.533-.545 1.568 1.568 0 0 0-.78-.2 1.85 1.85 0 0 0-.745.158 1.347 1.347 0 0 0-.558.43l-1.641-.294.413-4.602h5.335v1.508h-3.814l-.225 2.186h.05c.154-.216.386-.395.695-.537.31-.142.657-.213 1.04-.213.526 0 .995.124 1.406.371.412.247.738.587.976 1.019.239.428.357.923.354 1.483.003.588-.134 1.11-.41 1.568a2.885 2.885 0 0 1-1.145 1.073c-.49.26-1.057.388-1.705.388Zm10.642-5.204v1.44h-3.98v-1.44h3.98Zm6.717 5.203c-.602 0-1.139-.11-1.61-.332a2.804 2.804 0 0 1-1.117-.916 2.353 2.353 0 0 1-.43-1.338h1.79c.02.338.161.612.426.822.264.21.578.316.941.316.29 0 .546-.064.767-.192.225-.131.4-.311.525-.541.127-.233.191-.5.191-.802 0-.306-.065-.576-.196-.81a1.385 1.385 0 0 0-.532-.545 1.568 1.568 0 0 0-.78-.2 1.85 1.85 0 0 0-.746.158 1.348 1.348 0 0 0-.558.43l-1.64-.294.413-4.602h5.335v1.508h-3.814l-.226 2.186h.051c.154-.216.385-.395.695-.537.31-.142.656-.213 1.04-.213.525 0 .994.124 1.406.371.412.247.737.587.976 1.019.238.428.356.923.353 1.483.003.588-.133 1.11-.409 1.568a2.882 2.882 0 0 1-1.146 1.073c-.489.26-1.057.388-1.705.388Zm9.735 0c-.603 0-1.139-.11-1.611-.332a2.807 2.807 0 0 1-1.117-.916 2.354 2.354 0 0 1-.43-1.338h1.79c.02.338.162.612.426.822.264.21.578.316.942.316.29 0 .545-.064.767-.192.224-.131.399-.311.524-.541.128-.233.192-.5.192-.802 0-.306-.066-.576-.196-.81a1.39 1.39 0 0 0-.533-.545 1.567 1.567 0 0 0-.78-.2c-.255 0-.504.053-.746.158a1.354 1.354 0 0 0-.558.43l-1.64-.294.413-4.602h5.335v1.508h-3.814l-.226 2.186h.052c.153-.216.384-.395.694-.537.31-.142.656-.213 1.04-.213.525 0 .994.124 1.406.371.412.247.737.587.976 1.019.239.428.357.923.354 1.483.003.588-.134 1.11-.409 1.568a2.885 2.885 0 0 1-1.147 1.073c-.488.26-1.057.388-1.704.388Zm10.642-5.203v1.44h-3.98v-1.44h3.98Zm6.717 5.203c-.602 0-1.139-.11-1.611-.332a2.804 2.804 0 0 1-1.116-.916 2.355 2.355 0 0 1-.431-1.338h1.79c.02.338.162.612.426.822.265.21.578.316.942.316.29 0 .546-.064.767-.192.225-.131.399-.311.524-.541.128-.233.192-.5.192-.802 0-.306-.065-.576-.196-.81a1.382 1.382 0 0 0-.533-.545 1.566 1.566 0 0 0-.779-.2 1.85 1.85 0 0 0-.746.158 1.34 1.34 0 0 0-.558.43l-1.641-.294.413-4.602h5.336v1.508h-3.814l-.226 2.186h.051c.153-.216.385-.395.695-.537a2.462 2.462 0 0 1 1.039-.213c.526 0 .995.124 1.407.371.411.247.737.587.975 1.019.239.428.357.923.354 1.483.003.588-.133 1.11-.409 1.568a2.888 2.888 0 0 1-1.146 1.073c-.489.26-1.057.388-1.705.388Zm9.735 0c-.603 0-1.14-.11-1.611-.332a2.807 2.807 0 0 1-1.117-.916 2.354 2.354 0 0 1-.43-1.338h1.79c.02.338.162.612.426.822.264.21.578.316.942.316.289 0 .545-.064.767-.192.224-.131.399-.311.524-.541.128-.233.191-.5.191-.802 0-.306-.065-.576-.196-.81a1.38 1.38 0 0 0-.532-.545 1.567 1.567 0 0 0-.78-.2c-.256 0-.504.053-.746.158a1.347 1.347 0 0 0-.558.43l-1.641-.294.414-4.602h5.335v1.508h-3.814l-.226 2.186h.051c.154-.216.385-.395.695-.537.31-.142.656-.213 1.04-.213.525 0 .994.124 1.406.371.412.247.737.587.976 1.019.238.428.356.923.353 1.483.003.588-.133 1.11-.409 1.568a2.875 2.875 0 0 1-1.146 1.073c-.489.26-1.057.388-1.704.388Z" fill="#1B2129"/><g clip-path="url('#clip0_6817_467')"><path d="M173.68 20.507a15.26 15.26 0 0 1-4.707-.747 1.302 1.302 0 0 0-1.346.32l-2.094 2.627c-3.773-1.8-7.306-5.2-9.186-9.107l2.6-2.213c.36-.374.466-.894.32-1.36a14.852 14.852 0 0 1-.747-4.707c0-.72-.6-1.32-1.32-1.32h-4.613c-.72 0-1.587.32-1.587 1.32C151 17.707 161.307 28 173.68 28c.947 0 1.32-.84 1.32-1.573v-4.6c0-.72-.6-1.32-1.32-1.32Z" fill="#1B2129"/></g><defs><clipPath id="clip0_6817_467"><path fill="#fff" transform="translate(147)" d="M0 0h32v32H0z"/></clipPath></defs></svg>