<svg xmlns="http://www.w3.org/2000/svg" width="32" height="32" fill="none"><g clip-path="url('#clip0_6802_472')"><path fill="#292929" d="M4 22.667C4 23.403 4.597 24 5.333 24h9.334a1.333 1.333 0 0 0 0-2.667H5.333c-.736 0-1.333.597-1.333 1.334M4 16c0 .736.597 1.333 1.333 1.333h21.334a1.333 1.333 0 0 0 0-2.666H5.333C4.597 14.667 4 15.264 4 16m1.333-8a1.333 1.333 0 0 0 0 2.667H20A1.333 1.333 0 0 0 20 8z"/></g><defs><clipPath id="clip0_6802_472"><path fill="#fff" d="M0 0h32v32H0z"/></clipPath></defs></svg>