<svg width="24" height="24" fill="none" xmlns="http://www.w3.org/2000/svg"><path fill="#E5E5E5" d="M0 0h24v24H0z"/><g id="Icons &amp; Logo" clip-path="url('#clip0_0_1')"><path transform="translate(-152 -56)" fill="#1D1D1D" d="M0 0h280v312H0z"/><g id="Icon-Burger-menu-hover" clip-path="url('#clip1_0_1')"><path id="Vector" d="M3 17a1 1 0 0 0 1 1h7a1 1 0 1 0 0-2H4a1 1 0 0 0-1 1Zm0-5a1 1 0 0 0 1 1h16a1 1 0 1 0 0-2H4a1 1 0 0 0-1 1Zm1-6a1 1 0 0 0 0 2h11a1 1 0 1 0 0-2H4Z" fill="#fff"/></g></g><defs><clipPath id="clip0_0_1"><path fill="#fff" transform="translate(-152 -56)" d="M0 0h280v312H0z"/></clipPath><clipPath id="clip1_0_1"><path fill="#fff" d="M0 0h24v24H0z"/></clipPath></defs></svg>