<svg width="64" height="46" fill="none" xmlns="http://www.w3.org/2000/svg"><path d="M13.676 1.765v17.264c.02.51.206.942.56 1.294.373.354.815.53 1.326.53h.354l.03.294H6.983v-.294h.383c.491 0 .914-.177 1.268-.53a1.9 1.9 0 0 0 .619-1.264V1.765h-3.98c-.904.02-1.622.304-2.152.853-.53.549-.796 1.264-.796 2.147v.353H2.03V0c.806.333 1.965.51 3.479.53h11.88c.61 0 1.268-.06 1.975-.177C20.092.235 20.594.118 20.87 0v5.118h-.295v-.353c0-1.216-.462-2.079-1.386-2.589-.432-.254-.953-.392-1.562-.411h-3.95ZM35.742 20.853c.51 0 .904-.128 1.179-.382.452-.451.688-.932.707-1.442v-7.5h-9.551V19c0 .51.187.951.56 1.323.373.354.816.53 1.327.53h.353l.03.294h-8.962v-.294h.383c.511 0 .944-.177 1.297-.53.374-.372.57-.813.59-1.323V2.706a1.814 1.814 0 0 0-.59-1.294 1.72 1.72 0 0 0-1.297-.56h-.383V.56h8.962l-.03.294h-.353c-.511 0-.954.186-1.327.559-.373.353-.56.784-.56 1.294v7.559h9.551v-7.56a1.814 1.814 0 0 0-.59-1.293 1.72 1.72 0 0 0-1.296-.56h-.384V.56h8.962v.294h-.383c-.511 0-.953.186-1.327.559-.373.353-.56.784-.56 1.294V19c0 .51.187.951.56 1.323.374.354.816.53 1.327.53h.383v.294h-8.962v-.294h.384ZM46.054 20.853c.511 0 .944-.177 1.298-.53.373-.372.57-.813.59-1.323V2.618c-.04-.51-.188-.883-.443-1.118-.472-.431-.953-.647-1.445-.647h-.383V.559h11.29c.964 0 1.76-.069 2.389-.206.629-.157 1.012-.265 1.15-.324v5.147l-.295-.029v-.323c0-1.216-.452-2.079-1.356-2.589-.433-.255-.944-.392-1.533-.411h-4.953v8.558h3.891c.728-.02 1.327-.264 1.799-.735.471-.49.707-1.088.707-1.794v-.265h.295v6.794h-.295v-.235c0-.725-.236-1.324-.707-1.794-.452-.47-1.032-.716-1.74-.735h-3.95v8.264h3.862c1.435 0 2.633-.411 3.596-1.235.983-.823 1.71-1.99 2.182-3.5h.295l-1.356 6h-15.27v-.294h.383ZM28.183 45.118h.471v.294H19.81v-.265h.443c.334-.02.619-.157.855-.412.235-.255.334-.539.294-.853l-1.15-10.676-5.542 9.53c-.727 1.215-1.1 2.303-1.12 3.264h-.295L5.72 33.294 4.57 43.882c-.039.314.06.608.295.883.236.255.521.382.855.382h.442v.265H0v-.294h.472c.55 0 1.022-.167 1.415-.5.412-.334.658-.785.737-1.353L5.07 24.412h.265l9.139 15 8.784-15h.266l2.506 18.853c.098.568.344 1.02.737 1.353.412.333.884.5 1.415.5Z" fill="#fff"/><path d="M28.88 45.118c.51 0 .942-.177 1.296-.53.374-.372.57-.813.59-1.323V26.882c-.04-.51-.187-.882-.442-1.117-.472-.432-.954-.647-1.445-.647h-.383v-.294h11.29c.964 0 1.76-.07 2.388-.206.63-.157 1.013-.265 1.15-.324v5.147l-.295-.03v-.323c0-1.216-.452-2.078-1.356-2.588-.432-.255-.943-.392-1.533-.412h-4.952v8.56h3.891c.727-.02 1.327-.266 1.798-.736.472-.49.708-1.088.708-1.794v-.265h.295v6.794h-.295v-.235c0-.726-.236-1.324-.708-1.794-.452-.47-1.032-.716-1.739-.736h-3.95v8.265h3.862c1.434 0 2.633-.412 3.596-1.235.983-.824 1.71-1.99 2.182-3.5h.294l-1.356 6h-15.27v-.294h.383ZM56.807 26.03v17.264c.02.51.206.941.56 1.294.373.353.816.53 1.327.53h.353l.03.294h-8.962v-.294h.383c.492 0 .914-.177 1.268-.53a1.9 1.9 0 0 0 .619-1.264V26.029h-3.98c-.904.02-1.621.304-2.152.853-.53.55-.796 1.265-.796 2.147v.353h-.294v-5.117c.805.333 1.965.51 3.478.53h11.88c.61 0 1.268-.06 1.975-.177.728-.118 1.229-.236 1.504-.353v5.117h-.295v-.353c0-1.215-.462-2.078-1.385-2.588-.433-.255-.953-.392-1.563-.412h-3.95Z" fill="#fff"/></svg>