<svg xmlns="http://www.w3.org/2000/svg" width="88" height="63" fill="none" viewBox="0 0 88 63"><path fill="#fff" d="M19.196 2.64v23.48q.04 1.04.76 1.76a2.53 2.53 0 0 0 1.8.72h.48l.04.4h-12.16v-.4h.52q1 0 1.72-.72.76-.72.84-1.72V2.64h-5.4q-1.84.04-2.92 1.16t-1.08 2.92v.48h-.4V.24q1.64.68 4.72.72h16.12q1.24 0 2.68-.24 1.48-.24 2.04-.48V7.2h-.4v-.48q0-2.48-1.88-3.52-.88-.52-2.12-.56Zm29.94 25.96q1.04 0 1.6-.52.921-.92.96-1.96v-10.2h-12.96v10.16q0 1.04.76 1.8.76.72 1.8.72h.48l.04.4h-12.16v-.4h.52q1.04 0 1.76-.72.76-.76.8-1.8V3.92a2.47 2.47 0 0 0-.8-1.76 2.33 2.33 0 0 0-1.76-.76h-.52V1h12.16l-.04.4h-.48q-1.04 0-1.8.76a2.33 2.33 0 0 0-.76 1.76V14.2h12.96V3.92a2.47 2.47 0 0 0-.8-1.76 2.33 2.33 0 0 0-1.76-.76h-.52V1h12.16v.4h-.52q-1.04 0-1.8.76a2.33 2.33 0 0 0-.76 1.76v22.16q0 1.04.76 1.8.76.72 1.8.72h.52v.4h-12.16v-.4Zm13.994 0q1.04 0 1.76-.72.76-.76.8-1.8V3.8q-.081-1.04-.6-1.52-.96-.88-1.96-.88h-.52V1h15.32q1.959 0 3.24-.28Q82.45.4 82.73.28v7l-.4-.04V6.8q0-2.48-1.84-3.52-.88-.52-2.08-.56h-6.72v11.64h5.28q1.48-.04 2.44-1 .96-1 .96-2.44v-.36h.4v9.24h-.4v-.32q0-1.48-.96-2.44-.92-.96-2.36-1h-5.36v11.24h5.24q2.92 0 4.88-1.68 2-1.68 2.96-4.76h.4L83.33 29H62.61v-.4Zm-24.25 33h.64v.4h-12v-.36h.6q.68-.04 1.16-.56t.4-1.16L28.12 45.4 20.6 58.36q-1.48 2.48-1.52 4.44h-.4L8.4 45.52l-1.56 14.4q-.08.64.4 1.2.48.52 1.16.52H9V62H.64v-.4h.64q1.12 0 1.92-.68.84-.68 1-1.84l3.32-25.64h.36l12.4 20.4 11.92-20.4h.36l3.4 25.64q.2 1.16 1 1.84.84.68 1.92.68m.945 0q1.04 0 1.76-.72.76-.76.8-1.8V36.8q-.08-1.04-.6-1.52-.96-.88-1.96-.88h-.52V34h15.32q1.96 0 3.24-.28 1.28-.32 1.56-.44v7l-.4-.04v-.44q0-2.48-1.84-3.52-.88-.52-2.08-.56h-6.72v11.64h5.28q1.48-.04 2.44-1 .96-1 .96-2.44v-.36h.4v9.24h-.4v-.32q0-1.48-.96-2.44-.92-.96-2.36-1h-5.36v11.24h5.24q2.92 0 4.88-1.68 2-1.68 2.96-4.76h.4L60.025 62h-20.72v-.4Zm37.894-25.96v23.48q.04 1.04.76 1.76.76.72 1.8.72h.48l.04.4H68.64v-.4h.52q1 0 1.72-.72.76-.72.84-1.72V35.64h-5.4q-1.84.04-2.92 1.16t-1.08 2.92v.48h-.4v-6.96q1.64.68 4.72.72h16.12q1.24 0 2.68-.24 1.48-.24 2.04-.48v6.96h-.4v-.48q0-2.48-1.88-3.52-.88-.52-2.12-.56Z"/></svg>