<svg xmlns="http://www.w3.org/2000/svg" width="64" height="46" fill="none"><path fill="#fff" d="M13.676 1.765v17.264q.03.765.56 1.294.56.53 1.326.53h.354l.03.294H6.983v-.294h.383q.737 0 1.268-.53a1.9 1.9 0 0 0 .619-1.264V1.765h-3.98q-1.356.03-2.152.853t-.796 2.147v.353H2.03V0Q3.24.5 5.51.53h11.88q.915 0 1.975-.177Q20.456.177 20.87 0v5.118h-.295v-.353q0-1.824-1.386-2.589-.648-.382-1.562-.411zM35.742 20.853q.766 0 1.179-.382.678-.677.707-1.442v-7.5h-9.551V19q0 .765.56 1.323.56.53 1.327.53h.353l.03.294h-8.962v-.294h.383q.767 0 1.297-.53.56-.558.59-1.323V2.706a1.81 1.81 0 0 0-.59-1.294 1.72 1.72 0 0 0-1.297-.56h-.383V.56h8.962l-.03.294h-.353q-.767 0-1.327.559-.56.53-.56 1.294v7.559h9.551v-7.56a1.81 1.81 0 0 0-.59-1.293 1.72 1.72 0 0 0-1.296-.56h-.384V.56h8.962v.294h-.383q-.766 0-1.327.559-.56.53-.56 1.294V19q0 .765.56 1.323.56.53 1.327.53h.383v.294h-8.962v-.294zM46.055 20.853q.765 0 1.297-.53.56-.558.59-1.323V2.618q-.06-.765-.443-1.118-.707-.647-1.445-.647h-.383V.559h11.29q1.446 0 2.389-.206.943-.235 1.15-.324v5.147l-.295-.029v-.323q0-1.824-1.356-2.589-.65-.382-1.533-.411h-4.953v8.558h3.891q1.092-.03 1.799-.735.707-.735.707-1.794v-.265h.295v6.794h-.295v-.235q0-1.088-.707-1.794-.678-.706-1.74-.735h-3.95v8.264h3.862q2.152 0 3.596-1.235 1.474-1.235 2.182-3.5h.295l-1.356 6h-15.27v-.294zM28.183 45.118h.471v.294H19.81v-.265h.443q.501-.03.855-.412.353-.382.294-.853l-1.15-10.676-5.542 9.53Q13.62 44.558 13.59 46h-.295L5.72 33.294 4.57 43.882q-.058.47.295.883.354.382.855.382h.442v.265H0v-.294h.472q.825 0 1.415-.5.618-.501.737-1.353L5.07 24.412h.265l9.139 15 8.785-15h.265l2.506 18.853q.147.853.737 1.353.618.5 1.415.5"/><path fill="#fff" d="M28.88 45.118q.765 0 1.296-.53.56-.558.59-1.323V26.882q-.06-.765-.442-1.117-.708-.647-1.445-.647h-.383v-.294h11.29q1.446-.001 2.388-.206.945-.235 1.15-.324v5.147l-.295-.03v-.323q0-1.823-1.356-2.588-.648-.382-1.533-.412h-4.952v8.56h3.891q1.091-.03 1.798-.736.708-.735.708-1.794v-.265h.295v6.794h-.295v-.235q0-1.089-.708-1.794-.678-.706-1.739-.736h-3.95v8.265h3.862q2.151 0 3.596-1.235 1.474-1.236 2.182-3.5h.294l-1.356 6h-15.27v-.294zM56.807 26.03v17.264q.03.765.56 1.294.56.53 1.327.53h.353l.03.294h-8.962v-.294h.383q.737 0 1.268-.53a1.9 1.9 0 0 0 .619-1.264V26.029h-3.98q-1.356.03-2.152.853-.795.825-.796 2.147v.353h-.294v-5.117q1.208.5 3.478.53h11.88q.915 0 1.975-.177 1.092-.177 1.504-.353v5.117h-.295v-.353q0-1.823-1.385-2.588-.649-.382-1.563-.412z"/></svg>