<svg width="128" height="128" viewBox="0 0 128 128" fill="none" xmlns="http://www.w3.org/2000/svg">
<g clip-path="url(#clip0_10711_11906)">
<circle cx="64" cy="64" r="64" fill="white"/>
<path fill-rule="evenodd" clip-rule="evenodd" d="M71.867 47.2971C71.867 49.4356 72.7052 51.4028 74.2885 52.9901C76.5151 55.2185 78.9538 55.5229 80.6129 55.3892C82.5867 55.2271 84.5721 54.3234 85.9279 52.9694L86.2759 52.6205L86.276 52.6204C87.2719 51.6218 87.8826 51.0094 88.4775 50.4312L92.5656 54.4229L95.4362 51.5337L95.475 51.4625L91.4473 47.4227L94.312 44.5478L91.3173 41.5455L88.452 44.4233C88.452 44.4233 80.0799 36.0094 79.0412 34.9575C78.4832 34.3895 78.1411 33.7916 78.1411 32.8421C78.1411 31.8359 78.594 31.1645 78.9793 30.7811C79.5392 30.2179 80.3639 29.8677 81.1186 29.8677C82.2696 29.8677 82.9797 30.4791 83.2224 30.7383L83.2848 30.8009L83.3472 30.7412L85.049 29.0409L86.2235 27.8635L86.2738 27.8043L86.1942 27.7153C85.4241 26.9256 83.732 25.6 81.1085 25.6C79.1093 25.6 77.2578 26.3994 75.9005 27.8491C74.6286 29.203 73.9032 31.0173 73.9032 32.8282C73.9032 35.8358 75.6107 37.6842 76.8184 38.8097L74.2707 41.3094C72.7887 42.7932 71.867 45.0909 71.867 47.2971ZM77.2756 44.3285L79.8055 41.7904L85.4688 47.414C85.2102 47.681 84.1134 48.7906 82.9058 49.9907C81.4473 51.4283 79.0316 51.7304 77.2756 49.9729C76.5094 49.1999 76.1049 48.2418 76.1049 47.1947C76.1049 46.1399 76.5444 45.0654 77.2756 44.3285ZM95.733 65.19C91.8624 61.3234 86.7127 59.1961 81.2368 59.1961C75.7614 59.1961 70.6112 61.3234 66.7396 65.19C62.869 69.0604 60.7364 74.1998 60.7364 79.6678C60.7364 85.1368 62.869 90.2728 66.7396 94.1394C70.6112 98.0084 75.7614 100.136 81.2368 100.136C86.7127 100.136 91.8624 98.0084 95.733 94.1394C99.6056 90.2728 101.739 85.1368 101.739 79.6678C101.739 74.1998 99.6056 69.0604 95.733 65.19ZM81.2368 94.87C77.169 94.87 73.3436 93.2869 70.4688 90.4155C67.5925 87.5446 66.0036 83.7251 66.0036 79.6678C66.0036 75.6024 67.5925 71.7862 70.4688 68.9154C73.3436 66.0387 77.169 64.458 81.2368 64.458C85.3046 64.458 89.1286 66.0387 92.0067 68.9154C94.8792 71.7862 96.4662 75.6024 96.4662 79.6678C96.4662 88.0494 89.6356 94.87 81.2368 94.87ZM60.7695 50.1406C60.7695 58.8517 55.9979 66.7962 48.3019 70.9025C50.5004 72.2964 52.351 74.2211 53.6316 76.4848C54.9848 78.8581 55.7011 81.5642 55.7011 84.3097C55.7011 88.549 54.0409 92.5386 51.0348 95.5425C48.0349 98.5412 44.0364 100.194 39.7872 100.194H31.9959L31.9844 26.6131H37.2116C43.5038 26.6131 49.4223 29.0588 53.8759 33.5076C58.3286 37.9515 60.7695 43.8599 60.7695 50.1406ZM50.1449 37.2277C46.7096 33.7996 42.1391 31.9033 37.2856 31.8807V68.4034C42.1391 68.3808 46.7096 66.484 50.1449 63.0574C53.6032 59.6102 55.4966 55.0217 55.4966 50.1406C55.4966 45.2654 53.6032 40.6802 50.1449 37.2277ZM37.2856 94.9291H39.7814C45.646 94.9291 50.4176 90.1653 50.4176 84.3097C50.4176 81.4725 49.3141 78.8076 47.3066 76.797C45.2958 74.7946 42.6033 73.6937 39.7593 73.6937C39.7593 73.6937 37.7176 73.6821 37.2856 73.6821V94.9291Z" fill="black"/>
</g>
<defs>
<clipPath id="clip0_10711_11906">
<rect width="128" height="128" fill="white"/>
</clipPath>
</defs>
</svg>
