<?xml version="1.0" standalone="no"?>
<!DOCTYPE svg PUBLIC "-//W3C//DTD SVG 20010904//EN"
 "http://www.w3.org/TR/2001/REC-SVG-20010904/DTD/svg10.dtd">
<svg version="1.0" xmlns="http://www.w3.org/2000/svg"
 width="192.000000pt" height="192.000000pt" viewBox="0 0 192.000000 192.000000"
 preserveAspectRatio="xMidYMid meet">
<metadata>
Created by potrace 1.14, written by Peter Selinger 2001-2017
</metadata>
<g transform="translate(0.000000,192.000000) scale(0.100000,-0.100000)"
fill="#000000" stroke="none">
<path d="M61 1573 c1 -63 3 -72 10 -47 16 54 42 69 128 70 l78 2 0 -267 c1
-252 0 -267 -19 -288 -12 -13 -27 -19 -37 -16 -9 4 -13 2 -8 -3 10 -11 267
-13 261 -2 -3 5 -14 8 -24 8 -36 0 -40 31 -40 304 l0 265 73 -2 c86 -3 119
-20 134 -69 9 -29 10 -23 10 44 l-1 76 -35 -6 c-50 -9 -470 -8 -503 1 l-28 7
1 -77z"/>
<path d="M1775 1640 c-16 -3 -110 -6 -207 -5 -98 0 -178 -1 -178 -2 0 -1 11
-13 25 -27 l24 -24 0 -261 0 -260 -26 -21 c-14 -11 -29 -17 -34 -14 -5 3 -9 1
-9 -3 0 -9 445 -12 453 -3 8 7 47 164 42 168 -2 2 -11 -11 -20 -30 -40 -78
-79 -99 -192 -104 l-83 -3 0 124 0 125 73 0 c63 0 76 -3 94 -22 12 -13 23 -32
26 -43 3 -11 5 27 5 85 0 58 -2 96 -5 85 -3 -11 -14 -30 -26 -42 -18 -20 -31
-23 -94 -23 l-73 0 0 124 c0 90 3 125 13 128 19 7 149 2 175 -6 25 -8 56 -61
46 -78 -4 -6 -3 -8 3 -5 10 6 12 132 2 140 -2 2 -17 1 -34 -3z"/>
<path d="M643 1627 c-2 -4 -1 -7 4 -6 18 3 32 -2 47 -17 14 -13 16 -52 16
-275 0 -261 -5 -299 -36 -299 -8 0 -13 -4 -10 -8 6 -11 233 -9 243 2 4 5 3 6
-3 3 -7 -4 -23 2 -35 12 -23 18 -24 26 -26 140 -1 67 2 121 5 122 9 1 242 1
265 0 15 -1 17 -14 17 -119 0 -106 -2 -121 -21 -140 -11 -12 -24 -20 -30 -17
-5 4 -9 2 -9 -3 0 -4 58 -8 129 -8 71 0 127 4 125 8 -3 5 -12 8 -21 8 -39 0
-42 25 -43 297 l0 262 26 20 c15 11 31 18 37 14 5 -3 8 -2 5 3 -7 11 -255 11
-265 -1 -5 -4 -3 -5 3 -2 7 4 23 -3 38 -14 26 -20 26 -23 26 -144 l0 -124
-142 2 -143 2 -1 121 c-1 128 6 154 45 157 11 0 18 4 15 7 -9 8 -255 6 -261
-3z"/>
<path d="M150 910 c0 -8 -5 -44 -10 -80 -5 -36 -12 -90 -15 -120 -3 -30 -8
-66 -10 -80 -2 -14 -7 -50 -10 -80 -4 -30 -9 -63 -11 -74 -2 -10 -6 -44 -10
-75 -6 -62 -26 -101 -50 -101 -8 0 -13 -3 -10 -8 4 -6 26 -7 131 -2 29 1 29 2
6 11 -23 9 -23 11 -16 97 4 48 9 96 11 106 2 11 6 44 9 74 3 31 7 57 9 59 2 2
52 -77 111 -177 59 -99 111 -182 115 -185 4 -3 11 10 14 29 4 19 18 50 31 70
14 20 25 39 25 40 0 2 31 57 70 123 52 87 70 112 71 93 0 -25 3 -53 13 -125 3
-22 9 -75 12 -117 5 -66 4 -79 -10 -84 -9 -3 -16 -9 -16 -13 0 -5 414 -6 665
-2 l41 1 17 83 c21 99 21 113 1 67 -18 -43 -50 -77 -88 -97 -28 -15 -167 -25
-183 -14 -5 3 -9 59 -9 124 0 98 3 117 16 118 91 6 133 0 155 -21 13 -12 26
-32 28 -44 2 -11 3 26 4 83 l0 104 -19 -36 c-20 -41 -49 -50 -133 -45 l-50 3
0 125 0 125 92 0 c102 0 126 -12 142 -69 8 -25 9 -16 10 46 l1 78 -32 -7 c-18
-4 -113 -7 -210 -7 -98 -1 -178 -2 -178 -4 0 -2 10 -12 21 -21 21 -17 22 -24
21 -285 0 -193 -4 -271 -12 -282 -8 -8 -30 -14 -56 -14 -54 0 -70 21 -79 105
-4 33 -8 62 -10 65 -2 3 -6 39 -10 80 -4 41 -8 77 -10 80 -2 3 -6 32 -10 65
-3 33 -8 69 -9 80 -2 11 -7 49 -11 83 -6 52 -10 61 -20 50 -7 -7 -63 -101
-125 -208 -63 -107 -119 -203 -125 -213 -10 -15 -29 11 -139 191 -143 236
-155 254 -156 232z"/>
<path d="M1354 856 c0 -68 2 -71 20 -34 17 34 54 48 129 48 l67 0 0 -267 c-1
-287 -3 -303 -50 -303 -13 0 -21 -2 -18 -5 5 -6 151 -9 228 -5 25 2 35 5 23 7
-46 9 -48 20 -48 305 l0 268 68 0 c85 0 122 -19 135 -69 9 -32 10 -27 11 42
l1 78 -37 -7 c-48 -9 -447 -9 -494 0 l-35 6 0 -64z"/>
</g>
</svg>
