<svg version="1.2" xmlns="http://www.w3.org/2000/svg" viewBox="0 0 187 65" width="187" height="65">
	<title>Новый проект</title>
	<style>
		.s0 { fill: #1d1d1d } 
	</style>
	<path class="s0" d="m42.3 14.2v36.9h-9.1v-22.1l-8.3 22.1h-7.4l-8.4-22.2v22.2h-9.1v-36.9h10.7l10.5 25.5 10.4-25.5z"/>
	<path class="s0" d="m77.9 21.8l-18.6 43.2h-9.8l6.8-14.9-12-28.3h10.1l6.9 18.3 6.8-18.3z"/>
	<path fill-rule="evenodd" class="s0" d="m102.6 32.2q3.2 0.6 5.2 3.2 2 2.4 2 5.6 0 4.7-3.3 7.4-3.3 2.7-9.1 2.7h-17.4v-36.9h16.8q5.7 0 8.9 2.6 3.2 2.5 3.2 7 0 3.2-1.7 5.4-1.7 2.1-4.6 3zm-13.5-3.1h5.9q2.3 0 3.4-0.9 1.3-1 1.3-2.9 0-1.9-1.3-2.9-1.1-1-3.4-1h-5.9zm6.7 14.7q2.3 0 3.5-1 1.3-1 1.3-3 0-1.9-1.4-3-1.2-1.1-3.5-1.1h-6.6v8.1z"/>
	<path class="s0" d="m118.4 18.7q-2.4 0-4-1.3-1.4-1.5-1.4-3.5 0-2.1 1.4-3.5 1.6-1.4 4-1.4 2.3 0 3.8 1.4 1.6 1.4 1.6 3.5 0 2-1.6 3.5-1.5 1.3-3.8 1.3zm4.5 3.1v29.3h-9.1v-29.3z"/>
	<path class="s0" d="m149.9 51.1l-12.5-16.3v16.3h-9.1v-36.9h9.1v16.2l12.4-16.2h10.7l-14.5 18.1 15 18.8z"/>
	<path class="s0" d="m173.2 21.4v7.5h12.2v6.9h-12.2v8.1h13.8v7.2h-22.9v-36.9h22.9v7.2z"/>
</svg>