<svg width="320" height="568" viewBox="0 0 320 568" fill="none" xmlns="http://www.w3.org/2000/svg">
<rect width="320" height="568" fill="#C2C2C2"/>
<path d="M34.256 113.644V129H31.176V122.466H24.598V129H21.518V113.644H24.598V119.958H31.176V113.644H34.256ZM46.4155 129.154C44.9782 129.154 43.6582 128.817 42.4555 128.142C41.2529 127.467 40.2995 126.536 39.5955 125.348C38.8915 124.145 38.5395 122.789 38.5395 121.278C38.5395 119.782 38.8915 118.44 39.5955 117.252C40.2995 116.049 41.2529 115.111 42.4555 114.436C43.6582 113.761 44.9782 113.424 46.4155 113.424C47.8675 113.424 49.1875 113.761 50.3755 114.436C51.5782 115.111 52.5242 116.049 53.2135 117.252C53.9175 118.44 54.2695 119.782 54.2695 121.278C54.2695 122.789 53.9175 124.145 53.2135 125.348C52.5242 126.536 51.5782 127.467 50.3755 128.142C49.1729 128.817 47.8529 129.154 46.4155 129.154ZM46.4155 126.404C47.3395 126.404 48.1535 126.199 48.8575 125.788C49.5615 125.363 50.1115 124.761 50.5075 123.984C50.9035 123.207 51.1015 122.305 51.1015 121.278C51.1015 120.251 50.9035 119.357 50.5075 118.594C50.1115 117.817 49.5615 117.223 48.8575 116.812C48.1535 116.401 47.3395 116.196 46.4155 116.196C45.4915 116.196 44.6702 116.401 43.9515 116.812C43.2475 117.223 42.6975 117.817 42.3015 118.594C41.9055 119.357 41.7075 120.251 41.7075 121.278C41.7075 122.305 41.9055 123.207 42.3015 123.984C42.6975 124.761 43.2475 125.363 43.9515 125.788C44.6702 126.199 45.4915 126.404 46.4155 126.404ZM75.303 113.644V129H72.223V119.012L68.109 129H65.777L61.641 119.012V129H58.561V113.644H62.059L66.943 125.062L71.827 113.644H75.303ZM83.4281 116.13V119.98H88.5981V122.422H83.4281V126.492H89.2581V129H80.3481V113.622H89.2581V116.13H83.4281Z" fill="#1D1D1D"/>
<path d="M30.934 180.074H24.818L23.806 183H20.572L26.094 167.622H29.68L35.202 183H31.946L30.934 180.074ZM30.098 177.61L27.876 171.186L25.654 177.61H30.098ZM47.978 175.124C48.8434 175.285 49.5547 175.718 50.112 176.422C50.6694 177.126 50.948 177.933 50.948 178.842C50.948 179.663 50.7427 180.389 50.332 181.02C49.936 181.636 49.3567 182.12 48.594 182.472C47.8314 182.824 46.9294 183 45.888 183H39.266V167.644H45.602C46.6434 167.644 47.538 167.813 48.286 168.15C49.0487 168.487 49.6207 168.957 50.002 169.558C50.398 170.159 50.596 170.841 50.596 171.604C50.596 172.499 50.354 173.247 49.87 173.848C49.4007 174.449 48.77 174.875 47.978 175.124ZM42.346 173.98H45.162C45.8954 173.98 46.46 173.819 46.856 173.496C47.252 173.159 47.45 172.682 47.45 172.066C47.45 171.45 47.252 170.973 46.856 170.636C46.46 170.299 45.8954 170.13 45.162 170.13H42.346V173.98ZM45.448 180.492C46.196 180.492 46.7754 180.316 47.186 179.964C47.6114 179.612 47.824 179.113 47.824 178.468C47.824 177.808 47.604 177.295 47.164 176.928C46.724 176.547 46.13 176.356 45.382 176.356H42.346V180.492H45.448ZM62.5308 183.154C61.0934 183.154 59.7734 182.817 58.5708 182.142C57.3681 181.467 56.4148 180.536 55.7108 179.348C55.0068 178.145 54.6548 176.789 54.6548 175.278C54.6548 173.782 55.0068 172.44 55.7108 171.252C56.4148 170.049 57.3681 169.111 58.5708 168.436C59.7734 167.761 61.0934 167.424 62.5308 167.424C63.9828 167.424 65.3028 167.761 66.4908 168.436C67.6934 169.111 68.6394 170.049 69.3288 171.252C70.0328 172.44 70.3848 173.782 70.3848 175.278C70.3848 176.789 70.0328 178.145 69.3288 179.348C68.6394 180.536 67.6934 181.467 66.4908 182.142C65.2881 182.817 63.9681 183.154 62.5308 183.154ZM62.5308 180.404C63.4548 180.404 64.2688 180.199 64.9728 179.788C65.6768 179.363 66.2268 178.761 66.6228 177.984C67.0188 177.207 67.2168 176.305 67.2168 175.278C67.2168 174.251 67.0188 173.357 66.6228 172.594C66.2268 171.817 65.6768 171.223 64.9728 170.812C64.2688 170.401 63.4548 170.196 62.5308 170.196C61.6068 170.196 60.7854 170.401 60.0668 170.812C59.3628 171.223 58.8128 171.817 58.4168 172.594C58.0208 173.357 57.8228 174.251 57.8228 175.278C57.8228 176.305 58.0208 177.207 58.4168 177.984C58.8128 178.761 59.3628 179.363 60.0668 179.788C60.7854 180.199 61.6068 180.404 62.5308 180.404ZM77.7122 167.644V177.148C77.7122 178.189 77.9835 178.989 78.5262 179.546C79.0689 180.089 79.8315 180.36 80.8142 180.36C81.8115 180.36 82.5815 180.089 83.1242 179.546C83.6669 178.989 83.9382 178.189 83.9382 177.148V167.644H87.0402V177.126C87.0402 178.431 86.7542 179.539 86.1822 180.448C85.6249 181.343 84.8695 182.017 83.9162 182.472C82.9775 182.927 81.9289 183.154 80.7702 183.154C79.6262 183.154 78.5849 182.927 77.6462 182.472C76.7222 182.017 75.9889 181.343 75.4462 180.448C74.9035 179.539 74.6322 178.431 74.6322 177.126V167.644H77.7122ZM102.466 167.644V170.13H98.374V183H95.294V170.13H91.202V167.644H102.466ZM116.992 167.644V177.148C116.992 178.189 117.263 178.989 117.806 179.546C118.348 180.089 119.111 180.36 120.094 180.36C121.091 180.36 121.861 180.089 122.404 179.546C122.946 178.989 123.218 178.189 123.218 177.148V167.644H126.32V177.126C126.32 178.431 126.034 179.539 125.462 180.448C124.904 181.343 124.149 182.017 123.196 182.472C122.257 182.927 121.208 183.154 120.05 183.154C118.906 183.154 117.864 182.927 116.926 182.472C116.002 182.017 115.268 181.343 114.726 180.448C114.183 179.539 113.912 178.431 113.912 177.126V167.644H116.992ZM136.597 183.154C135.527 183.154 134.559 182.971 133.693 182.604C132.843 182.237 132.168 181.709 131.669 181.02C131.171 180.331 130.914 179.517 130.899 178.578H134.199C134.243 179.209 134.463 179.707 134.859 180.074C135.27 180.441 135.827 180.624 136.531 180.624C137.25 180.624 137.815 180.455 138.225 180.118C138.636 179.766 138.841 179.311 138.841 178.754C138.841 178.299 138.702 177.925 138.423 177.632C138.145 177.339 137.793 177.111 137.367 176.95C136.957 176.774 136.385 176.583 135.651 176.378C134.654 176.085 133.84 175.799 133.209 175.52C132.593 175.227 132.058 174.794 131.603 174.222C131.163 173.635 130.943 172.858 130.943 171.89C130.943 170.981 131.171 170.189 131.625 169.514C132.08 168.839 132.718 168.326 133.539 167.974C134.361 167.607 135.299 167.424 136.355 167.424C137.939 167.424 139.223 167.813 140.205 168.59C141.203 169.353 141.753 170.423 141.855 171.802H138.467C138.438 171.274 138.211 170.841 137.785 170.504C137.375 170.152 136.825 169.976 136.135 169.976C135.534 169.976 135.05 170.13 134.683 170.438C134.331 170.746 134.155 171.193 134.155 171.78C134.155 172.191 134.287 172.535 134.551 172.814C134.83 173.078 135.167 173.298 135.563 173.474C135.974 173.635 136.546 173.826 137.279 174.046C138.277 174.339 139.091 174.633 139.721 174.926C140.352 175.219 140.895 175.659 141.349 176.246C141.804 176.833 142.031 177.603 142.031 178.556C142.031 179.377 141.819 180.14 141.393 180.844C140.968 181.548 140.345 182.113 139.523 182.538C138.702 182.949 137.727 183.154 136.597 183.154Z" fill="#1D1D1D"/>
<path d="M20.77 229.3C20.77 227.789 21.1073 226.44 21.782 225.252C22.4713 224.049 23.4027 223.118 24.576 222.458C25.764 221.783 27.0913 221.446 28.558 221.446C30.274 221.446 31.7773 221.886 33.068 222.766C34.3587 223.646 35.2607 224.863 35.774 226.418H32.232C31.88 225.685 31.3813 225.135 30.736 224.768C30.1053 224.401 29.372 224.218 28.536 224.218C27.6413 224.218 26.842 224.431 26.138 224.856C25.4487 225.267 24.906 225.853 24.51 226.616C24.1287 227.379 23.938 228.273 23.938 229.3C23.938 230.312 24.1287 231.207 24.51 231.984C24.906 232.747 25.4487 233.341 26.138 233.766C26.842 234.177 27.6413 234.382 28.536 234.382C29.372 234.382 30.1053 234.199 30.736 233.832C31.3813 233.451 31.88 232.893 32.232 232.16H35.774C35.2607 233.729 34.3587 234.954 33.068 235.834C31.792 236.699 30.2887 237.132 28.558 237.132C27.0913 237.132 25.764 236.802 24.576 236.142C23.4027 235.467 22.4713 234.536 21.782 233.348C21.1073 232.16 20.77 230.811 20.77 229.3ZM47.5327 237.154C46.0954 237.154 44.7754 236.817 43.5727 236.142C42.3701 235.467 41.4167 234.536 40.7127 233.348C40.0087 232.145 39.6567 230.789 39.6567 229.278C39.6567 227.782 40.0087 226.44 40.7127 225.252C41.4167 224.049 42.3701 223.111 43.5727 222.436C44.7754 221.761 46.0954 221.424 47.5327 221.424C48.9847 221.424 50.3047 221.761 51.4927 222.436C52.6954 223.111 53.6414 224.049 54.3307 225.252C55.0347 226.44 55.3867 227.782 55.3867 229.278C55.3867 230.789 55.0347 232.145 54.3307 233.348C53.6414 234.536 52.6954 235.467 51.4927 236.142C50.2901 236.817 48.9701 237.154 47.5327 237.154ZM47.5327 234.404C48.4567 234.404 49.2707 234.199 49.9747 233.788C50.6787 233.363 51.2287 232.761 51.6247 231.984C52.0207 231.207 52.2187 230.305 52.2187 229.278C52.2187 228.251 52.0207 227.357 51.6247 226.594C51.2287 225.817 50.6787 225.223 49.9747 224.812C49.2707 224.401 48.4567 224.196 47.5327 224.196C46.6087 224.196 45.7874 224.401 45.0687 224.812C44.3647 225.223 43.8147 225.817 43.4187 226.594C43.0227 227.357 42.8247 228.251 42.8247 229.278C42.8247 230.305 43.0227 231.207 43.4187 231.984C43.8147 232.761 44.3647 233.363 45.0687 233.788C45.7874 234.199 46.6087 234.404 47.5327 234.404ZM76.4202 221.644V237H73.3402V227.012L69.2262 237H66.8942L62.7582 227.012V237H59.6782V221.644H63.1762L68.0602 233.062L72.9442 221.644H76.4202ZM92.6633 226.396C92.6633 227.217 92.4653 227.987 92.0693 228.706C91.6879 229.425 91.0793 230.004 90.2433 230.444C89.4219 230.884 88.3806 231.104 87.1193 231.104H84.5453V237H81.4653V221.644H87.1193C88.3073 221.644 89.3193 221.849 90.1553 222.26C90.9913 222.671 91.6146 223.235 92.0253 223.954C92.4506 224.673 92.6633 225.487 92.6633 226.396ZM86.9873 228.618C87.8379 228.618 88.4686 228.427 88.8793 228.046C89.2899 227.65 89.4953 227.1 89.4953 226.396C89.4953 224.9 88.6593 224.152 86.9873 224.152H84.5453V228.618H86.9873ZM106.266 234.074H100.15L99.138 237H95.904L101.426 221.622H105.012L110.534 237H107.278L106.266 234.074ZM105.43 231.61L103.208 225.186L100.986 231.61H105.43ZM122.518 237L119.13 231.016H117.678V237H114.598V221.644H120.362C121.55 221.644 122.562 221.857 123.398 222.282C124.234 222.693 124.857 223.257 125.268 223.976C125.693 224.68 125.906 225.472 125.906 226.352C125.906 227.364 125.613 228.281 125.026 229.102C124.439 229.909 123.567 230.466 122.408 230.774L126.082 237H122.518ZM117.678 228.706H120.252C121.088 228.706 121.711 228.508 122.122 228.112C122.533 227.701 122.738 227.137 122.738 226.418C122.738 225.714 122.533 225.171 122.122 224.79C121.711 224.394 121.088 224.196 120.252 224.196H117.678V228.706ZM133.772 224.13V227.98H138.942V230.422H133.772V234.492H139.602V237H130.692V221.622H139.602V224.13H133.772ZM160.355 229.124C161.22 229.285 161.932 229.718 162.489 230.422C163.046 231.126 163.325 231.933 163.325 232.842C163.325 233.663 163.12 234.389 162.709 235.02C162.313 235.636 161.734 236.12 160.971 236.472C160.208 236.824 159.306 237 158.265 237H151.643V221.644H157.979C159.02 221.644 159.915 221.813 160.663 222.15C161.426 222.487 161.998 222.957 162.379 223.558C162.775 224.159 162.973 224.841 162.973 225.604C162.973 226.499 162.731 227.247 162.247 227.848C161.778 228.449 161.147 228.875 160.355 229.124ZM154.723 227.98H157.539C158.272 227.98 158.837 227.819 159.233 227.496C159.629 227.159 159.827 226.682 159.827 226.066C159.827 225.45 159.629 224.973 159.233 224.636C158.837 224.299 158.272 224.13 157.539 224.13H154.723V227.98ZM157.825 234.492C158.573 234.492 159.152 234.316 159.563 233.964C159.988 233.612 160.201 233.113 160.201 232.468C160.201 231.808 159.981 231.295 159.541 230.928C159.101 230.547 158.507 230.356 157.759 230.356H154.723V234.492H157.825ZM170.86 221.644V237H167.78V221.644H170.86ZM184.571 237L178.983 230.158V237H175.903V221.644H178.983V228.53L184.571 221.644H188.289L181.953 229.256L188.465 237H184.571ZM195.571 224.13V227.98H200.741V230.422H195.571V234.492H201.401V237H192.491V221.622H201.401V224.13H195.571ZM211.502 237.154C210.431 237.154 209.463 236.971 208.598 236.604C207.747 236.237 207.072 235.709 206.574 235.02C206.075 234.331 205.818 233.517 205.804 232.578H209.104C209.148 233.209 209.368 233.707 209.764 234.074C210.174 234.441 210.732 234.624 211.436 234.624C212.154 234.624 212.719 234.455 213.13 234.118C213.54 233.766 213.746 233.311 213.746 232.754C213.746 232.299 213.606 231.925 213.328 231.632C213.049 231.339 212.697 231.111 212.272 230.95C211.861 230.774 211.289 230.583 210.556 230.378C209.558 230.085 208.744 229.799 208.114 229.52C207.498 229.227 206.962 228.794 206.508 228.222C206.068 227.635 205.848 226.858 205.848 225.89C205.848 224.981 206.075 224.189 206.53 223.514C206.984 222.839 207.622 222.326 208.444 221.974C209.265 221.607 210.204 221.424 211.26 221.424C212.844 221.424 214.127 221.813 215.11 222.59C216.107 223.353 216.657 224.423 216.76 225.802H213.372C213.342 225.274 213.115 224.841 212.69 224.504C212.279 224.152 211.729 223.976 211.04 223.976C210.438 223.976 209.954 224.13 209.588 224.438C209.236 224.746 209.06 225.193 209.06 225.78C209.06 226.191 209.192 226.535 209.456 226.814C209.734 227.078 210.072 227.298 210.468 227.474C210.878 227.635 211.45 227.826 212.184 228.046C213.181 228.339 213.995 228.633 214.626 228.926C215.256 229.219 215.799 229.659 216.254 230.246C216.708 230.833 216.936 231.603 216.936 232.556C216.936 233.377 216.723 234.14 216.298 234.844C215.872 235.548 215.249 236.113 214.428 236.538C213.606 236.949 212.631 237.154 211.502 237.154Z" fill="#1D1D1D"/>
<path d="M26.886 275.644C28.4993 275.644 29.9147 275.959 31.132 276.59C32.364 277.221 33.31 278.123 33.97 279.296C34.6447 280.455 34.982 281.804 34.982 283.344C34.982 284.884 34.6447 286.233 33.97 287.392C33.31 288.536 32.364 289.423 31.132 290.054C29.9147 290.685 28.4993 291 26.886 291H21.518V275.644H26.886ZM26.776 288.382C28.3893 288.382 29.636 287.942 30.516 287.062C31.396 286.182 31.836 284.943 31.836 283.344C31.836 281.745 31.396 280.499 30.516 279.604C29.636 278.695 28.3893 278.24 26.776 278.24H24.598V288.382H26.776ZM42.3675 278.13V281.98H47.5375V284.422H42.3675V288.492H48.1975V291H39.2875V275.622H48.1975V278.13H42.3675ZM63.4465 275.644V278.13H59.3545V291H56.2745V278.13H52.1825V275.644H63.4465ZM77.1098 288.074H70.9938L69.9818 291H66.7478L72.2698 275.622H75.8558L81.3778 291H78.1218L77.1098 288.074ZM76.2738 285.61L74.0518 279.186L71.8298 285.61H76.2738ZM88.5218 275.644V291H85.4418V275.644H88.5218ZM96.6449 288.558H101.705V291H93.5649V275.644H96.6449V288.558ZM110.965 291.154C109.894 291.154 108.926 290.971 108.061 290.604C107.21 290.237 106.535 289.709 106.037 289.02C105.538 288.331 105.281 287.517 105.267 286.578H108.567C108.611 287.209 108.831 287.707 109.227 288.074C109.637 288.441 110.195 288.624 110.899 288.624C111.617 288.624 112.182 288.455 112.593 288.118C113.003 287.766 113.209 287.311 113.209 286.754C113.209 286.299 113.069 285.925 112.791 285.632C112.512 285.339 112.16 285.111 111.735 284.95C111.324 284.774 110.752 284.583 110.019 284.378C109.021 284.085 108.207 283.799 107.577 283.52C106.961 283.227 106.425 282.794 105.971 282.222C105.531 281.635 105.311 280.858 105.311 279.89C105.311 278.981 105.538 278.189 105.993 277.514C106.447 276.839 107.085 276.326 107.907 275.974C108.728 275.607 109.667 275.424 110.723 275.424C112.307 275.424 113.59 275.813 114.573 276.59C115.57 277.353 116.12 278.423 116.223 279.802H112.835C112.805 279.274 112.578 278.841 112.153 278.504C111.742 278.152 111.192 277.976 110.503 277.976C109.901 277.976 109.417 278.13 109.051 278.438C108.699 278.746 108.523 279.193 108.523 279.78C108.523 280.191 108.655 280.535 108.919 280.814C109.197 281.078 109.535 281.298 109.931 281.474C110.341 281.635 110.913 281.826 111.647 282.046C112.644 282.339 113.458 282.633 114.089 282.926C114.719 283.219 115.262 283.659 115.717 284.246C116.171 284.833 116.399 285.603 116.399 286.556C116.399 287.377 116.186 288.14 115.761 288.844C115.335 289.548 114.712 290.113 113.891 290.538C113.069 290.949 112.094 291.154 110.965 291.154Z" fill="#1D1D1D"/>
<path d="M20.77 337.3C20.77 335.789 21.1073 334.44 21.782 333.252C22.4713 332.049 23.4027 331.118 24.576 330.458C25.764 329.783 27.0913 329.446 28.558 329.446C30.274 329.446 31.7773 329.886 33.068 330.766C34.3587 331.646 35.2607 332.863 35.774 334.418H32.232C31.88 333.685 31.3813 333.135 30.736 332.768C30.1053 332.401 29.372 332.218 28.536 332.218C27.6413 332.218 26.842 332.431 26.138 332.856C25.4487 333.267 24.906 333.853 24.51 334.616C24.1287 335.379 23.938 336.273 23.938 337.3C23.938 338.312 24.1287 339.207 24.51 339.984C24.906 340.747 25.4487 341.341 26.138 341.766C26.842 342.177 27.6413 342.382 28.536 342.382C29.372 342.382 30.1053 342.199 30.736 341.832C31.3813 341.451 31.88 340.893 32.232 340.16H35.774C35.2607 341.729 34.3587 342.954 33.068 343.834C31.792 344.699 30.2887 345.132 28.558 345.132C27.0913 345.132 25.764 344.802 24.576 344.142C23.4027 343.467 22.4713 342.536 21.782 341.348C21.1073 340.16 20.77 338.811 20.77 337.3ZM47.5327 345.154C46.0954 345.154 44.7754 344.817 43.5727 344.142C42.3701 343.467 41.4167 342.536 40.7127 341.348C40.0087 340.145 39.6567 338.789 39.6567 337.278C39.6567 335.782 40.0087 334.44 40.7127 333.252C41.4167 332.049 42.3701 331.111 43.5727 330.436C44.7754 329.761 46.0954 329.424 47.5327 329.424C48.9847 329.424 50.3047 329.761 51.4927 330.436C52.6954 331.111 53.6414 332.049 54.3307 333.252C55.0347 334.44 55.3867 335.782 55.3867 337.278C55.3867 338.789 55.0347 340.145 54.3307 341.348C53.6414 342.536 52.6954 343.467 51.4927 344.142C50.2901 344.817 48.9701 345.154 47.5327 345.154ZM47.5327 342.404C48.4567 342.404 49.2707 342.199 49.9747 341.788C50.6787 341.363 51.2287 340.761 51.6247 339.984C52.0207 339.207 52.2187 338.305 52.2187 337.278C52.2187 336.251 52.0207 335.357 51.6247 334.594C51.2287 333.817 50.6787 333.223 49.9747 332.812C49.2707 332.401 48.4567 332.196 47.5327 332.196C46.6087 332.196 45.7874 332.401 45.0687 332.812C44.3647 333.223 43.8147 333.817 43.4187 334.594C43.0227 335.357 42.8247 336.251 42.8247 337.278C42.8247 338.305 43.0227 339.207 43.4187 339.984C43.8147 340.761 44.3647 341.363 45.0687 341.788C45.7874 342.199 46.6087 342.404 47.5327 342.404ZM72.8122 345H69.7322L62.7582 334.462V345H59.6782V329.622H62.7582L69.7322 340.182V329.622H72.8122V345ZM88.3059 329.644V332.13H84.2139V345H81.1339V332.13H77.0419V329.644H88.3059ZM101.969 342.074H95.8532L94.8412 345H91.6072L97.1292 329.622H100.715L106.237 345H102.981L101.969 342.074ZM101.133 339.61L98.9112 333.186L96.6892 339.61H101.133ZM109.553 337.3C109.553 335.789 109.891 334.44 110.565 333.252C111.255 332.049 112.186 331.118 113.359 330.458C114.547 329.783 115.875 329.446 117.341 329.446C119.057 329.446 120.561 329.886 121.851 330.766C123.142 331.646 124.044 332.863 124.557 334.418H121.015C120.663 333.685 120.165 333.135 119.519 332.768C118.889 332.401 118.155 332.218 117.319 332.218C116.425 332.218 115.625 332.431 114.921 332.856C114.232 333.267 113.689 333.853 113.293 334.616C112.912 335.379 112.721 336.273 112.721 337.3C112.721 338.312 112.912 339.207 113.293 339.984C113.689 340.747 114.232 341.341 114.921 341.766C115.625 342.177 116.425 342.382 117.319 342.382C118.155 342.382 118.889 342.199 119.519 341.832C120.165 341.451 120.663 340.893 121.015 340.16H124.557C124.044 341.729 123.142 342.954 121.851 343.834C120.575 344.699 119.072 345.132 117.341 345.132C115.875 345.132 114.547 344.802 113.359 344.142C112.186 343.467 111.255 342.536 110.565 341.348C109.891 340.16 109.553 338.811 109.553 337.3ZM139.638 329.644V332.13H135.546V345H132.466V332.13H128.374V329.644H139.638ZM149.187 345.154C148.117 345.154 147.149 344.971 146.283 344.604C145.433 344.237 144.758 343.709 144.259 343.02C143.761 342.331 143.504 341.517 143.489 340.578H146.789C146.833 341.209 147.053 341.707 147.449 342.074C147.86 342.441 148.417 342.624 149.121 342.624C149.84 342.624 150.405 342.455 150.815 342.118C151.226 341.766 151.431 341.311 151.431 340.754C151.431 340.299 151.292 339.925 151.013 339.632C150.735 339.339 150.383 339.111 149.957 338.95C149.547 338.774 148.975 338.583 148.241 338.378C147.244 338.085 146.43 337.799 145.799 337.52C145.183 337.227 144.648 336.794 144.193 336.222C143.753 335.635 143.533 334.858 143.533 333.89C143.533 332.981 143.761 332.189 144.215 331.514C144.67 330.839 145.308 330.326 146.129 329.974C146.951 329.607 147.889 329.424 148.945 329.424C150.529 329.424 151.813 329.813 152.795 330.59C153.793 331.353 154.343 332.423 154.445 333.802H151.057C151.028 333.274 150.801 332.841 150.375 332.504C149.965 332.152 149.415 331.976 148.725 331.976C148.124 331.976 147.64 332.13 147.273 332.438C146.921 332.746 146.745 333.193 146.745 333.78C146.745 334.191 146.877 334.535 147.141 334.814C147.42 335.078 147.757 335.298 148.153 335.474C148.564 335.635 149.136 335.826 149.869 336.046C150.867 336.339 151.681 336.633 152.311 336.926C152.942 337.219 153.485 337.659 153.939 338.246C154.394 338.833 154.621 339.603 154.621 340.556C154.621 341.377 154.409 342.14 153.983 342.844C153.558 343.548 152.935 344.113 152.113 344.538C151.292 344.949 150.317 345.154 149.187 345.154Z" fill="#1D1D1D"/>
<path d="M25.58 438.704C26.052 438.792 26.44 439.028 26.744 439.412C27.048 439.796 27.2 440.236 27.2 440.732C27.2 441.18 27.088 441.576 26.864 441.92C26.648 442.256 26.332 442.52 25.916 442.712C25.5 442.904 25.008 443 24.44 443H20.828V434.624H24.284C24.852 434.624 25.34 434.716 25.748 434.9C26.164 435.084 26.476 435.34 26.684 435.668C26.9 435.996 27.008 436.368 27.008 436.784C27.008 437.272 26.876 437.68 26.612 438.008C26.356 438.336 26.012 438.568 25.58 438.704ZM22.508 438.08H24.044C24.444 438.08 24.752 437.992 24.968 437.816C25.184 437.632 25.292 437.372 25.292 437.036C25.292 436.7 25.184 436.44 24.968 436.256C24.752 436.072 24.444 435.98 24.044 435.98H22.508V438.08ZM24.2 441.632C24.608 441.632 24.924 441.536 25.148 441.344C25.38 441.152 25.496 440.88 25.496 440.528C25.496 440.168 25.376 439.888 25.136 439.688C24.896 439.48 24.572 439.376 24.164 439.376H22.508V441.632H24.2ZM34.4269 443.084C33.6429 443.084 32.9229 442.9 32.2669 442.532C31.6109 442.164 31.0909 441.656 30.7069 441.008C30.3229 440.352 30.1309 439.612 30.1309 438.788C30.1309 437.972 30.3229 437.24 30.7069 436.592C31.0909 435.936 31.6109 435.424 32.2669 435.056C32.9229 434.688 33.6429 434.504 34.4269 434.504C35.2189 434.504 35.9389 434.688 36.5869 435.056C37.2429 435.424 37.7589 435.936 38.1349 436.592C38.5189 437.24 38.7109 437.972 38.7109 438.788C38.7109 439.612 38.5189 440.352 38.1349 441.008C37.7589 441.656 37.2429 442.164 36.5869 442.532C35.9309 442.9 35.2109 443.084 34.4269 443.084ZM34.4269 441.584C34.9309 441.584 35.3749 441.472 35.7589 441.248C36.1429 441.016 36.4429 440.688 36.6589 440.264C36.8749 439.84 36.9829 439.348 36.9829 438.788C36.9829 438.228 36.8749 437.74 36.6589 437.324C36.4429 436.9 36.1429 436.576 35.7589 436.352C35.3749 436.128 34.9309 436.016 34.4269 436.016C33.9229 436.016 33.4749 436.128 33.0829 436.352C32.6989 436.576 32.3989 436.9 32.1829 437.324C31.9669 437.74 31.8589 438.228 31.8589 438.788C31.8589 439.348 31.9669 439.84 32.1829 440.264C32.3989 440.688 32.6989 441.016 33.0829 441.248C33.4749 441.472 33.9229 441.584 34.4269 441.584ZM45.8488 443.084C45.0648 443.084 44.3448 442.9 43.6888 442.532C43.0328 442.164 42.5128 441.656 42.1288 441.008C41.7448 440.352 41.5528 439.612 41.5528 438.788C41.5528 437.972 41.7448 437.24 42.1288 436.592C42.5128 435.936 43.0328 435.424 43.6888 435.056C44.3448 434.688 45.0648 434.504 45.8488 434.504C46.6408 434.504 47.3608 434.688 48.0088 435.056C48.6648 435.424 49.1808 435.936 49.5568 436.592C49.9408 437.24 50.1328 437.972 50.1328 438.788C50.1328 439.612 49.9408 440.352 49.5568 441.008C49.1808 441.656 48.6648 442.164 48.0088 442.532C47.3528 442.9 46.6328 443.084 45.8488 443.084ZM45.8488 441.584C46.3528 441.584 46.7968 441.472 47.1808 441.248C47.5648 441.016 47.8648 440.688 48.0808 440.264C48.2968 439.84 48.4048 439.348 48.4048 438.788C48.4048 438.228 48.2968 437.74 48.0808 437.324C47.8648 436.9 47.5648 436.576 47.1808 436.352C46.7968 436.128 46.3528 436.016 45.8488 436.016C45.3448 436.016 44.8968 436.128 44.5048 436.352C44.1208 436.576 43.8208 436.9 43.6048 437.324C43.3888 437.74 43.2808 438.228 43.2808 438.788C43.2808 439.348 43.3888 439.84 43.6048 440.264C43.8208 440.688 44.1208 441.016 44.5048 441.248C44.8968 441.472 45.3448 441.584 45.8488 441.584ZM58.1107 443L55.0627 439.268V443H53.3827V434.624H55.0627V438.38L58.1107 434.624H60.1387L56.6827 438.776L60.2347 443H58.1107ZM73.3351 441.404H69.9991L69.4471 443H67.6831L70.6951 434.612H72.6511L75.6631 443H73.8871L73.3351 441.404ZM72.8791 440.06L71.6671 436.556L70.4551 440.06H72.8791ZM89.3483 434.624V435.98H87.1163V443H85.4363V435.98H83.2043V434.624H89.3483ZM94.2541 435.98V438.08H97.0741V439.412H94.2541V441.632H97.4341V443H92.5741V434.612H97.4341V435.98H94.2541ZM103.853 443.084C103.269 443.084 102.741 442.984 102.269 442.784C101.805 442.584 101.437 442.296 101.165 441.92C100.893 441.544 100.753 441.1 100.745 440.588H102.545C102.569 440.932 102.689 441.204 102.905 441.404C103.129 441.604 103.433 441.704 103.817 441.704C104.209 441.704 104.517 441.612 104.741 441.428C104.965 441.236 105.077 440.988 105.077 440.684C105.077 440.436 105.001 440.232 104.849 440.072C104.697 439.912 104.505 439.788 104.273 439.7C104.049 439.604 103.737 439.5 103.337 439.388C102.793 439.228 102.349 439.072 102.005 438.92C101.669 438.76 101.377 438.524 101.129 438.212C100.889 437.892 100.769 437.468 100.769 436.94C100.769 436.444 100.893 436.012 101.141 435.644C101.389 435.276 101.737 434.996 102.185 434.804C102.633 434.604 103.145 434.504 103.721 434.504C104.585 434.504 105.285 434.716 105.821 435.14C106.365 435.556 106.665 436.14 106.721 436.892H104.873C104.857 436.604 104.733 436.368 104.501 436.184C104.277 435.992 103.977 435.896 103.601 435.896C103.273 435.896 103.009 435.98 102.809 436.148C102.617 436.316 102.521 436.56 102.521 436.88C102.521 437.104 102.593 437.292 102.737 437.444C102.889 437.588 103.073 437.708 103.289 437.804C103.513 437.892 103.825 437.996 104.225 438.116C104.769 438.276 105.213 438.436 105.557 438.596C105.901 438.756 106.197 438.996 106.445 439.316C106.693 439.636 106.817 440.056 106.817 440.576C106.817 441.024 106.701 441.44 106.469 441.824C106.237 442.208 105.897 442.516 105.449 442.748C105.001 442.972 104.469 443.084 103.853 443.084ZM115.973 434.624V435.98H113.741V443H112.061V435.98H109.829V434.624H115.973ZM128.378 443L126.53 439.736H125.738V443H124.058V434.624H127.202C127.85 434.624 128.402 434.74 128.858 434.972C129.314 435.196 129.654 435.504 129.878 435.896C130.11 436.28 130.226 436.712 130.226 437.192C130.226 437.744 130.066 438.244 129.746 438.692C129.426 439.132 128.95 439.436 128.318 439.604L130.322 443H128.378ZM125.738 438.476H127.142C127.598 438.476 127.938 438.368 128.162 438.152C128.386 437.928 128.498 437.62 128.498 437.228C128.498 436.844 128.386 436.548 128.162 436.34C127.938 436.124 127.598 436.016 127.142 436.016H125.738V438.476ZM135.426 434.624V443H133.746V434.624H135.426ZM142.014 434.624C142.894 434.624 143.666 434.796 144.33 435.14C145.002 435.484 145.518 435.976 145.878 436.616C146.246 437.248 146.43 437.984 146.43 438.824C146.43 439.664 146.246 440.4 145.878 441.032C145.518 441.656 145.002 442.14 144.33 442.484C143.666 442.828 142.894 443 142.014 443H139.086V434.624H142.014ZM141.954 441.572C142.834 441.572 143.514 441.332 143.994 440.852C144.474 440.372 144.714 439.696 144.714 438.824C144.714 437.952 144.474 437.272 143.994 436.784C143.514 436.288 142.834 436.04 141.954 436.04H140.766V441.572H141.954ZM151.367 435.98V438.08H154.187V439.412H151.367V441.632H154.547V443H149.687V434.612H154.547V435.98H151.367Z" fill="#1D1D1D"/>
<line x1="20.5" y1="454.5" x2="155.5" y2="454.5" stroke="#1D1D1D" stroke-linecap="round"/>
<path d="M29.472 402.28H26.448V405.384H24.336V402.28H21.312V400.328H24.336V397.224H26.448V400.328H29.472V402.28ZM31.3573 397.4V395.336H35.2133V407H32.9093V397.4H31.3573ZM41.9426 404.472C42.9666 403.619 43.7826 402.909 44.3906 402.344C44.9986 401.768 45.5053 401.171 45.9106 400.552C46.316 399.933 46.5186 399.325 46.5186 398.728C46.5186 398.184 46.3906 397.757 46.1346 397.448C45.8786 397.139 45.484 396.984 44.9506 396.984C44.4173 396.984 44.0066 397.165 43.7186 397.528C43.4306 397.88 43.2813 398.365 43.2706 398.984H41.0946C41.1373 397.704 41.516 396.733 42.2306 396.072C42.956 395.411 43.8733 395.08 44.9826 395.08C46.1986 395.08 47.132 395.405 47.7826 396.056C48.4333 396.696 48.7586 397.544 48.7586 398.6C48.7586 399.432 48.5346 400.227 48.0866 400.984C47.6386 401.741 47.1266 402.403 46.5506 402.968C45.9746 403.523 45.2226 404.195 44.2946 404.984H49.0146V406.84H41.1106V405.176L41.9426 404.472ZM50.4581 398.408C50.5115 397.341 50.8848 396.52 51.5781 395.944C52.2821 395.357 53.2048 395.064 54.3461 395.064C55.1248 395.064 55.7915 395.203 56.3461 395.48C56.9008 395.747 57.3168 396.115 57.5941 396.584C57.8821 397.043 58.0261 397.565 58.0261 398.152C58.0261 398.824 57.8501 399.395 57.4981 399.864C57.1568 400.323 56.7461 400.632 56.2661 400.792V400.856C56.8848 401.048 57.3648 401.389 57.7061 401.88C58.0581 402.371 58.2341 403 58.2341 403.768C58.2341 404.408 58.0848 404.979 57.7861 405.48C57.4981 405.981 57.0661 406.376 56.4901 406.664C55.9248 406.941 55.2421 407.08 54.4421 407.08C53.2368 407.08 52.2555 406.776 51.4981 406.168C50.7408 405.56 50.3408 404.664 50.2981 403.48H52.4741C52.4955 404.003 52.6715 404.424 53.0021 404.744C53.3435 405.053 53.8075 405.208 54.3941 405.208C54.9381 405.208 55.3541 405.059 55.6421 404.76C55.9408 404.451 56.0901 404.056 56.0901 403.576C56.0901 402.936 55.8875 402.477 55.4821 402.2C55.0768 401.923 54.4475 401.784 53.5941 401.784H53.1301V399.944H53.5941C55.1088 399.944 55.8661 399.437 55.8661 398.424C55.8661 397.965 55.7275 397.608 55.4501 397.352C55.1835 397.096 54.7941 396.968 54.2821 396.968C53.7808 396.968 53.3915 397.107 53.1141 397.384C52.8475 397.651 52.6928 397.992 52.6501 398.408H50.4581ZM59.9083 404.728V402.968L65.1403 395.48H67.7483V402.776H69.1562V404.728H67.7483V407H65.5083V404.728H59.9083ZM65.6523 397.88L62.3723 402.776H65.6523V397.88ZM82.2349 397.272H77.0509V400.008C77.2749 399.731 77.5949 399.507 78.0109 399.336C78.4269 399.155 78.8695 399.064 79.3389 399.064C80.1922 399.064 80.8909 399.251 81.4349 399.624C81.9789 399.997 82.3735 400.477 82.6189 401.064C82.8642 401.64 82.9869 402.259 82.9869 402.92C82.9869 404.147 82.6349 405.133 81.9309 405.88C81.2375 406.627 80.2455 407 78.9549 407C77.7389 407 76.7682 406.696 76.0429 406.088C75.3175 405.48 74.9069 404.685 74.8109 403.704H76.9869C77.0829 404.131 77.2962 404.472 77.6269 404.728C77.9682 404.984 78.4002 405.112 78.9229 405.112C79.5522 405.112 80.0269 404.915 80.3469 404.52C80.6669 404.125 80.8269 403.603 80.8269 402.952C80.8269 402.291 80.6615 401.789 80.3309 401.448C80.0109 401.096 79.5362 400.92 78.9069 400.92C78.4589 400.92 78.0855 401.032 77.7869 401.256C77.4882 401.48 77.2749 401.779 77.1469 402.152H75.0029V395.304H82.2349V397.272ZM92.5318 397.272H87.3478V400.008C87.5718 399.731 87.8918 399.507 88.3078 399.336C88.7238 399.155 89.1664 399.064 89.6358 399.064C90.4891 399.064 91.1878 399.251 91.7318 399.624C92.2758 399.997 92.6704 400.477 92.9158 401.064C93.1611 401.64 93.2838 402.259 93.2838 402.92C93.2838 404.147 92.9318 405.133 92.2278 405.88C91.5344 406.627 90.5424 407 89.2518 407C88.0358 407 87.0651 406.696 86.3398 406.088C85.6144 405.48 85.2038 404.685 85.1078 403.704H87.2838C87.3798 404.131 87.5931 404.472 87.9238 404.728C88.2651 404.984 88.6971 405.112 89.2198 405.112C89.8491 405.112 90.3238 404.915 90.6438 404.52C90.9638 404.125 91.1238 403.603 91.1238 402.952C91.1238 402.291 90.9584 401.789 90.6278 401.448C90.3078 401.096 89.8331 400.92 89.2038 400.92C88.7558 400.92 88.3824 401.032 88.0838 401.256C87.7851 401.48 87.5718 401.779 87.4438 402.152H85.2998V395.304H92.5318V397.272ZM102.829 397.272H97.6446V400.008C97.8686 399.731 98.1886 399.507 98.6046 399.336C99.0206 399.155 99.4633 399.064 99.9326 399.064C100.786 399.064 101.485 399.251 102.029 399.624C102.573 399.997 102.967 400.477 103.213 401.064C103.458 401.64 103.581 402.259 103.581 402.92C103.581 404.147 103.229 405.133 102.525 405.88C101.831 406.627 100.839 407 99.5486 407C98.3326 407 97.362 406.696 96.6366 406.088C95.9113 405.48 95.5006 404.685 95.4046 403.704H97.5806C97.6766 404.131 97.89 404.472 98.2206 404.728C98.562 404.984 98.994 405.112 99.5166 405.112C100.146 405.112 100.621 404.915 100.941 404.52C101.261 404.125 101.421 403.603 101.421 402.952C101.421 402.291 101.255 401.789 100.925 401.448C100.605 401.096 100.13 400.92 99.5006 400.92C99.0526 400.92 98.6793 401.032 98.3806 401.256C98.082 401.48 97.8686 401.779 97.7406 402.152H95.5966V395.304H102.829V397.272ZM113.126 397.272H107.942V400.008C108.166 399.731 108.486 399.507 108.902 399.336C109.318 399.155 109.76 399.064 110.23 399.064C111.083 399.064 111.782 399.251 112.326 399.624C112.87 399.997 113.264 400.477 113.51 401.064C113.755 401.64 113.878 402.259 113.878 402.92C113.878 404.147 113.526 405.133 112.822 405.88C112.128 406.627 111.136 407 109.846 407C108.63 407 107.659 406.696 106.934 406.088C106.208 405.48 105.798 404.685 105.702 403.704H107.878C107.974 404.131 108.187 404.472 108.518 404.728C108.859 404.984 109.291 405.112 109.814 405.112C110.443 405.112 110.918 404.915 111.238 404.52C111.558 404.125 111.718 403.603 111.718 402.952C111.718 402.291 111.552 401.789 111.222 401.448C110.902 401.096 110.427 400.92 109.798 400.92C109.35 400.92 108.976 401.032 108.678 401.256C108.379 401.48 108.166 401.779 108.038 402.152H105.894V395.304H113.126V397.272ZM122.654 400.344V402.232H115.87V400.344H122.654ZM132.751 397.272H127.567V400.008C127.791 399.731 128.111 399.507 128.527 399.336C128.943 399.155 129.385 399.064 129.855 399.064C130.708 399.064 131.407 399.251 131.951 399.624C132.495 399.997 132.889 400.477 133.135 401.064C133.38 401.64 133.503 402.259 133.503 402.92C133.503 404.147 133.151 405.133 132.447 405.88C131.753 406.627 130.761 407 129.471 407C128.255 407 127.284 406.696 126.559 406.088C125.833 405.48 125.423 404.685 125.327 403.704H127.503C127.599 404.131 127.812 404.472 128.143 404.728C128.484 404.984 128.916 405.112 129.439 405.112C130.068 405.112 130.543 404.915 130.863 404.52C131.183 404.125 131.343 403.603 131.343 402.952C131.343 402.291 131.177 401.789 130.847 401.448C130.527 401.096 130.052 400.92 129.423 400.92C128.975 400.92 128.601 401.032 128.303 401.256C128.004 401.48 127.791 401.779 127.663 402.152H125.519V395.304H132.751V397.272ZM143.047 397.272H137.863V400.008C138.087 399.731 138.407 399.507 138.823 399.336C139.239 399.155 139.682 399.064 140.151 399.064C141.005 399.064 141.703 399.251 142.247 399.624C142.791 399.997 143.186 400.477 143.431 401.064C143.677 401.64 143.799 402.259 143.799 402.92C143.799 404.147 143.447 405.133 142.743 405.88C142.05 406.627 141.058 407 139.767 407C138.551 407 137.581 406.696 136.855 406.088C136.13 405.48 135.719 404.685 135.623 403.704H137.799C137.895 404.131 138.109 404.472 138.439 404.728C138.781 404.984 139.213 405.112 139.735 405.112C140.365 405.112 140.839 404.915 141.159 404.52C141.479 404.125 141.639 403.603 141.639 402.952C141.639 402.291 141.474 401.789 141.143 401.448C140.823 401.096 140.349 400.92 139.719 400.92C139.271 400.92 138.898 401.032 138.599 401.256C138.301 401.48 138.087 401.779 137.959 402.152H135.815V395.304H143.047V397.272ZM152.576 400.344V402.232H145.792V400.344H152.576ZM162.672 397.272H157.488V400.008C157.712 399.731 158.032 399.507 158.448 399.336C158.864 399.155 159.307 399.064 159.776 399.064C160.63 399.064 161.328 399.251 161.872 399.624C162.416 399.997 162.811 400.477 163.056 401.064C163.302 401.64 163.424 402.259 163.424 402.92C163.424 404.147 163.072 405.133 162.368 405.88C161.675 406.627 160.683 407 159.392 407C158.176 407 157.206 406.696 156.48 406.088C155.755 405.48 155.344 404.685 155.248 403.704H157.424C157.52 404.131 157.734 404.472 158.064 404.728C158.406 404.984 158.838 405.112 159.36 405.112C159.99 405.112 160.464 404.915 160.784 404.52C161.104 404.125 161.264 403.603 161.264 402.952C161.264 402.291 161.099 401.789 160.768 401.448C160.448 401.096 159.974 400.92 159.344 400.92C158.896 400.92 158.523 401.032 158.224 401.256C157.926 401.48 157.712 401.779 157.584 402.152H155.44V395.304H162.672V397.272ZM172.969 397.272H167.785V400.008C168.009 399.731 168.329 399.507 168.745 399.336C169.161 399.155 169.604 399.064 170.073 399.064C170.927 399.064 171.625 399.251 172.169 399.624C172.713 399.997 173.108 400.477 173.353 401.064C173.599 401.64 173.721 402.259 173.721 402.92C173.721 404.147 173.369 405.133 172.665 405.88C171.972 406.627 170.98 407 169.689 407C168.473 407 167.503 406.696 166.777 406.088C166.052 405.48 165.641 404.685 165.545 403.704H167.721C167.817 404.131 168.031 404.472 168.361 404.728C168.703 404.984 169.135 405.112 169.657 405.112C170.287 405.112 170.761 404.915 171.081 404.52C171.401 404.125 171.561 403.603 171.561 402.952C171.561 402.291 171.396 401.789 171.065 401.448C170.745 401.096 170.271 400.92 169.641 400.92C169.193 400.92 168.82 401.032 168.521 401.256C168.223 401.48 168.009 401.779 167.881 402.152H165.737V395.304H172.969V397.272Z" fill="#1D1D1D"/>
<path d="M49.4111 27.5291V52.5535H43.0849V37.546L37.2767 52.5535H32.1714L26.3262 37.5103V52.5535H20V27.5291H27.473L34.761 44.8537L41.9751 27.5291H49.4111Z" fill="#1D1D1D"/>
<path d="M74.1804 32.6623L61.2321 62H54.425L59.1604 51.8762L50.7625 32.6623H57.8286L62.6009 45.1032L67.3363 32.6623H74.1804Z" fill="#1D1D1D"/>
<path d="M91.3238 39.7205C92.8283 40.0294 94.0368 40.7542 94.9493 41.8949C95.8619 43.0119 96.3182 44.2952 96.3182 45.7448C96.3182 47.8361 95.5536 49.4997 94.0245 50.7355C92.52 51.9475 90.4113 52.5535 87.6983 52.5535H75.6009V27.5291H87.2914C89.9304 27.5291 91.9897 28.1113 93.4696 29.2758C94.974 30.4403 95.7262 32.0206 95.7262 34.0169C95.7262 35.4903 95.3193 36.7142 94.5054 37.6886C93.7162 38.6629 92.6557 39.3402 91.3238 39.7205ZM81.9271 37.6529H86.0705C87.1064 37.6529 87.8956 37.439 88.4382 37.0113C89.0055 36.5597 89.2891 35.9062 89.2891 35.0507C89.2891 34.1951 89.0055 33.5416 88.4382 33.0901C87.8956 32.6385 87.1064 32.4128 86.0705 32.4128H81.9271V37.6529ZM86.5885 47.6341C87.649 47.6341 88.4629 47.4084 89.0301 46.9568C89.6221 46.4816 89.918 45.8043 89.918 44.925C89.918 44.0457 89.6097 43.3565 88.9931 42.8574C88.4012 42.3583 87.575 42.1088 86.5145 42.1088H81.9271V47.6341H86.5885Z" fill="#1D1D1D"/>
<path d="M102.302 30.5947C101.192 30.5947 100.279 30.2858 99.5642 29.6679C98.8736 29.0263 98.5283 28.242 98.5283 27.3152C98.5283 26.3646 98.8736 25.5804 99.5642 24.9625C100.279 24.3208 101.192 24 102.302 24C103.387 24 104.275 24.3208 104.965 24.9625C105.681 25.5804 106.038 26.3646 106.038 27.3152C106.038 28.242 105.681 29.0263 104.965 29.6679C104.275 30.2858 103.387 30.5947 102.302 30.5947ZM105.446 32.6623V52.5535H99.1203V32.6623H105.446Z" fill="#1D1D1D"/>
<path d="M124.221 52.5535L115.49 41.5028V52.5535H109.164V27.5291H115.49V38.5084L124.147 27.5291H131.583L121.52 39.7917L131.953 52.5535H124.221Z" fill="#1D1D1D"/>
<path d="M140.418 32.4128V37.4747H148.89V42.1801H140.418V47.6698H150V52.5535H134.092V27.5291H150V32.4128H140.418Z" fill="#1D1D1D"/>
<path d="M295.194 37.4171C295.639 36.9722 295.639 36.2507 295.194 35.8057C294.749 35.3607 294.028 35.3607 293.583 35.8057L288 41.3886L282.417 35.8057C281.972 35.3607 281.251 35.3607 280.806 35.8057C280.361 36.2507 280.361 36.9722 280.806 37.4171L286.389 43L280.806 48.5829C280.361 49.0278 280.361 49.7493 280.806 50.1943C281.251 50.6393 281.972 50.6393 282.417 50.1943L288 44.6114L293.583 50.1943C294.028 50.6393 294.749 50.6393 295.194 50.1943C295.639 49.7493 295.639 49.0278 295.194 48.5829L289.611 43L295.194 37.4171Z" fill="#1D1D1D"/>
</svg>
