<svg width="94" height="37" viewBox="0 0 94 37" fill="none" xmlns="http://www.w3.org/2000/svg">
<path d="M0.36 36V1.44H14.064C16.4 1.44 18.312 1.912 19.8 2.856C21.304 3.784 22.416 4.976 23.136 6.432C23.872 7.888 24.24 9.392 24.24 10.944C24.24 12.848 23.784 14.464 22.872 15.792C21.976 17.12 20.752 18.016 19.2 18.48V17.28C21.376 17.776 23.024 18.808 24.144 20.376C25.28 21.944 25.848 23.728 25.848 25.728C25.848 27.776 25.456 29.568 24.672 31.104C23.888 32.64 22.72 33.84 21.168 34.704C19.632 35.568 17.728 36 15.456 36H0.36ZM6.216 30.552H14.736C15.744 30.552 16.648 30.352 17.448 29.952C18.248 29.536 18.872 28.96 19.32 28.224C19.784 27.472 20.016 26.584 20.016 25.56C20.016 24.632 19.816 23.8 19.416 23.064C19.016 22.328 18.432 21.744 17.664 21.312C16.896 20.864 15.976 20.64 14.904 20.64H6.216V30.552ZM6.216 15.24H13.992C14.824 15.24 15.568 15.08 16.224 14.76C16.88 14.44 17.4 13.968 17.784 13.344C18.168 12.72 18.36 11.952 18.36 11.04C18.36 9.84 17.976 8.84 17.208 8.04C16.44 7.24 15.368 6.84 13.992 6.84H6.216V15.24ZM42.0893 36.72C40.1693 36.72 38.3533 36.44 36.6413 35.88C34.9453 35.304 33.5293 34.4 32.3933 33.168C31.4813 32.16 30.8093 31.064 30.3773 29.88C29.9613 28.68 29.7293 27.4 29.6813 26.04C29.6813 24.712 29.8733 23.424 30.2573 22.176C30.6573 20.928 31.2653 19.824 32.0813 18.864C32.4013 18.48 32.7453 18.144 33.1133 17.856C33.4973 17.552 33.8813 17.28 34.2653 17.04C33.3213 15.984 32.6013 14.96 32.1053 13.968C31.6253 12.976 31.3853 11.808 31.3853 10.464C31.3853 8.448 31.9293 6.64 33.0173 5.04C34.1053 3.44 35.5853 2.288 37.4573 1.584C38.2733 1.28 39.0973 1.072 39.9293 0.959999C40.7773 0.847998 41.6013 0.791997 42.4013 0.791997C43.9053 0.791997 45.3533 1.024 46.7453 1.488C48.1373 1.936 49.3213 2.672 50.2973 3.696C50.9213 4.288 51.4413 4.96 51.8573 5.712C52.2733 6.448 52.5853 7.208 52.7933 7.992L47.0813 9.216C46.8573 8.496 46.4653 7.88 45.9053 7.368C45.4253 6.904 44.8573 6.6 44.2013 6.456C43.5453 6.296 42.8973 6.216 42.2573 6.216C41.2333 6.216 40.3293 6.4 39.5453 6.768C38.7613 7.136 38.1773 7.632 37.7933 8.256C37.4253 8.88 37.2413 9.64 37.2413 10.536C37.2413 11.336 37.3853 11.976 37.6733 12.456C37.9773 12.936 38.3453 13.424 38.7773 13.92C39.0653 14.24 39.4173 14.592 39.8333 14.976C40.2493 15.36 40.6813 15.76 41.1293 16.176L49.8173 24.216C49.8333 23.896 49.8413 23.552 49.8413 23.184C49.8413 22.8 49.8413 22.44 49.8413 22.104V17.88H54.9293V24.144C54.9293 25.008 54.9053 25.848 54.8573 26.664C54.8093 27.464 54.7133 28.128 54.5693 28.656L58.8653 32.592L55.1453 36.552L51.8093 33.384C50.9933 34.152 50.0973 34.776 49.1213 35.256C48.1453 35.736 47.1613 36.08 46.1693 36.288C45.4493 36.464 44.7613 36.576 44.1053 36.624C43.4493 36.688 42.7773 36.72 42.0893 36.72ZM42.3293 31.224C42.8253 31.224 43.2893 31.2 43.7213 31.152C44.1693 31.104 44.6013 31.008 45.0173 30.864C45.6093 30.688 46.1133 30.48 46.5293 30.24C46.9613 30 47.3373 29.752 47.6573 29.496L38.5133 21.096C38.0813 21.256 37.6893 21.464 37.3373 21.72C37.0013 21.96 36.7133 22.232 36.4733 22.536C36.1693 22.936 35.9293 23.408 35.7533 23.952C35.5933 24.48 35.5133 25.064 35.5133 25.704C35.5293 26.44 35.6493 27.096 35.8733 27.672C36.0973 28.232 36.3933 28.736 36.7613 29.184C37.3373 29.92 38.1613 30.448 39.2333 30.768C40.3053 31.072 41.3373 31.224 42.3293 31.224ZM77.3666 36.72C73.9106 36.72 70.9506 35.968 68.4866 34.464C66.0226 32.944 64.1266 30.832 62.7986 28.128C61.4866 25.424 60.8306 22.288 60.8306 18.72C60.8306 15.152 61.4866 12.016 62.7986 9.312C64.1266 6.608 66.0226 4.504 68.4866 3C70.9506 1.48 73.9106 0.719999 77.3666 0.719999C80.8226 0.719999 83.7826 1.48 86.2466 3C88.7266 4.504 90.6226 6.608 91.9346 9.312C93.2626 12.016 93.9266 15.152 93.9266 18.72C93.9266 22.288 93.2626 25.424 91.9346 28.128C90.6226 30.832 88.7266 32.944 86.2466 34.464C83.7826 35.968 80.8226 36.72 77.3666 36.72ZM77.3666 31.272C79.6866 31.288 81.6146 30.776 83.1506 29.736C84.7026 28.696 85.8626 27.232 86.6306 25.344C87.4146 23.456 87.8066 21.248 87.8066 18.72C87.8066 16.192 87.4146 14 86.6306 12.144C85.8626 10.272 84.7026 8.816 83.1506 7.776C81.6146 6.736 79.6866 6.2 77.3666 6.168C75.0466 6.152 73.1186 6.664 71.5826 7.704C70.0466 8.744 68.8866 10.208 68.1026 12.096C67.3346 13.984 66.9506 16.192 66.9506 18.72C66.9506 21.248 67.3346 23.448 68.1026 25.32C68.8706 27.176 70.0226 28.624 71.5586 29.664C73.1106 30.704 75.0466 31.24 77.3666 31.272Z" fill="black"/>
</svg>
