<?xml version="1.0" standalone="no"?>
<!DOCTYPE svg PUBLIC "-//W3C//DTD SVG 20010904//EN"
 "http://www.w3.org/TR/2001/REC-SVG-20010904/DTD/svg10.dtd">
<svg version="1.0" xmlns="http://www.w3.org/2000/svg"
 width="684.000000pt" height="684.000000pt" viewBox="0 0 684.000000 684.000000"
 preserveAspectRatio="xMidYMid meet">
<metadata>
Created by potrace 1.14, written by Peter Selinger 2001-2017
</metadata>
<g transform="translate(0.000000,684.000000) scale(0.100000,-0.100000)"
fill="#000000" stroke="none">
<path d="M1889 3667 c-47 -14 -102 -47 -131 -82 -25 -29 -60 -104 -53 -115 3
-5 1 -11 -3 -14 -9 -5 -8 -67 2 -120 12 -65 69 -134 144 -173 62 -33 268 -32
289 0 5 7 8 71 9 142 l1 130 -93 0 c-52 0 -94 -2 -95 -5 0 -3 -2 -15 -5 -27
-3 -17 2 -24 19 -28 13 -4 27 -5 33 -4 5 1 21 1 37 0 l27 -1 0 -80 c0 -88 7
-80 -72 -84 -73 -4 -151 33 -183 87 -22 36 -46 127 -35 127 5 0 7 8 5 18 -9
47 61 139 123 163 39 15 140 12 190 -5 l42 -15 0 38 c0 36 -2 39 -37 48 -56
14 -162 14 -214 0z"/>
<path d="M2652 3670 c-77 -31 -105 -124 -58 -193 l26 -38 -39 -46 c-81 -91
-57 -204 53 -247 59 -24 126 -4 180 53 l29 30 36 -35 c20 -18 39 -34 43 -34 9
0 48 41 48 50 0 3 -16 20 -35 37 -29 26 -33 34 -23 45 40 42 41 47 17 68 -29
23 -48 25 -55 6 -14 -35 -37 -23 -129 66 -96 92 -109 116 -82 150 16 21 38 27
64 17 16 -6 28 -2 47 16 14 13 26 26 26 28 0 3 -15 12 -34 21 -37 18 -79 20
-114 6z m86 -339 l52 -50 -32 -30 c-38 -35 -78 -47 -107 -31 -50 26 -52 93 -4
135 16 13 31 25 34 25 3 0 29 -22 57 -49z"/>
<path d="M3403 3666 c-18 -5 -33 -14 -33 -18 0 -4 -6 -8 -13 -8 -19 0 -62 -48
-88 -100 -45 -86 -32 -241 26 -311 89 -108 283 -122 384 -27 55 51 76 109 76
208 0 71 -4 93 -25 135 -27 54 -35 62 -94 101 -32 22 -52 26 -120 29 -45 1
-96 -3 -113 -9z m213 -98 c80 -73 79 -251 -2 -322 -45 -39 -124 -51 -184 -28
-117 46 -143 264 -42 355 59 53 167 51 228 -5z"/>
<path d="M5465 3669 c-59 -18 -93 -62 -96 -124 -3 -53 21 -94 80 -131 25 -16
47 -28 49 -26 6 7 62 -30 81 -54 28 -36 26 -58 -6 -93 -34 -36 -78 -44 -139
-26 -46 14 -52 11 -60 -29 -5 -31 33 -47 116 -48 117 -1 190 57 190 152 0 76
-33 116 -148 175 -50 26 -74 45 -78 61 -8 31 2 56 27 72 26 16 110 18 138 3
21 -12 31 2 31 43 0 20 -7 24 -46 30 -60 8 -102 6 -139 -5z"/>
<path d="M36 3417 c0 -139 3 -258 7 -263 8 -14 191 -9 246 6 41 11 90 52 93
79 6 63 5 79 -5 104 -8 18 -30 37 -61 52 -28 14 -44 25 -36 25 27 0 80 45 87
75 10 45 11 75 1 81 -4 3 -6 9 -4 13 8 12 -46 57 -83 70 -19 6 -82 11 -140 11
l-106 0 1 -253z m234 168 c41 -41 29 -107 -23 -125 -34 -12 -127 -14 -128 -2
-4 28 -5 139 -1 146 3 4 33 6 68 4 47 -3 70 -9 84 -23z m-3 -221 c44 -29 51
-95 12 -130 -20 -18 -158 -34 -160 -18 -4 25 -5 150 -2 160 6 16 122 7 150
-12z"/>
<path d="M676 3618 c-36 -79 -134 -303 -172 -390 -18 -43 -29 -78 -24 -79 6
-1 21 -1 35 -1 40 0 45 1 45 12 0 5 11 34 25 64 l25 54 124 -1 c69 0 129 -3
133 -6 5 -3 20 -32 33 -65 22 -52 28 -59 56 -61 41 -3 62 9 47 27 -6 7 -23 42
-38 78 -15 36 -37 88 -50 115 -12 28 -28 67 -36 88 -7 20 -17 37 -21 37 -4 0
-7 3 -6 8 2 4 -13 44 -32 89 l-35 83 -43 0 c-41 0 -43 -1 -66 -52z m89 -83
c14 -31 25 -59 25 -63 0 -5 11 -32 25 -60 14 -29 25 -56 25 -61 0 -5 -47 -9
-104 -9 l-104 0 51 124 c28 68 52 124 54 124 1 0 14 -25 28 -55z"/>
<path d="M1129 3663 c0 -5 -1 -122 -2 -260 -2 -219 0 -253 13 -254 8 0 23 -2
32 -4 10 -2 21 2 25 8 5 7 8 101 8 209 1 109 4 200 8 204 4 4 7 2 7 -5 0 -6
18 -41 40 -77 22 -36 40 -72 40 -79 0 -7 3 -15 8 -17 9 -4 132 -217 132 -229
0 -5 8 -9 18 -10 71 -4 84 -4 89 4 3 5 5 108 5 230 0 322 5 287 -42 287 l-39
0 0 -177 c0 -98 0 -191 0 -208 l-1 -30 -18 30 c-10 17 -38 65 -61 108 -23 42
-63 114 -90 160 -26 45 -50 90 -54 100 -5 13 -18 17 -62 17 -30 0 -55 -3 -56
-7z"/>
<path d="M3914 3410 c0 -143 2 -261 5 -261 23 -5 285 -3 293 2 5 3 8 19 6 35
l-3 29 -112 -2 -113 -1 0 229 0 229 -38 0 -38 0 0 -260z"/>
<path d="M4319 3638 c0 -18 -1 -48 -2 -66 -1 -19 1 -36 6 -39 4 -2 5 -9 1 -14
-8 -13 -7 -174 1 -219 3 -19 17 -54 30 -77 64 -108 262 -116 339 -12 32 42 33
46 42 134 7 72 7 45 5 198 l-1 127 -40 0 -40 0 0 -172 c0 -193 -8 -238 -48
-267 -90 -64 -203 -11 -209 99 -1 25 -3 47 -3 50 -6 19 -4 117 3 127 4 6 4 14
-2 17 -6 4 -6 18 -1 35 4 16 5 32 2 36 -4 3 -7 21 -7 38 0 30 -3 32 -37 35
-37 3 -38 2 -39 -30z"/>
<path d="M4928 3663 c-6 -13 -2 -502 4 -508 3 -3 17 -8 31 -11 37 -6 44 14 42
134 -1 56 1 103 4 103 4 1 48 2 100 3 l94 1 3 27 c1 15 -2 31 -9 35 -6 3 -52
7 -101 7 l-91 1 0 72 c-1 42 3 74 10 76 5 2 51 3 102 2 82 -1 92 1 97 18 11
44 1 47 -144 47 -77 0 -140 -3 -142 -7z"/>
<path d="M5859 3668 c-4 -12 -3 -518 1 -519 27 -6 288 -3 296 3 16 12 5 58
-15 59 -9 1 -59 2 -111 3 l-94 1 -1 82 c-1 50 3 84 9 86 6 2 53 3 104 2 l92
-2 0 34 c0 18 -3 33 -7 34 -5 0 -51 1 -103 2 l-95 2 0 65 c-1 36 0 70 2 75 2
7 45 11 113 10 l110 -2 0 34 0 33 -150 0 c-82 0 -150 -1 -151 -2z"/>
<path d="M6339 3663 c-4 -41 0 -506 5 -511 14 -13 66 -8 70 8 2 8 3 100 2 203
0 104 2 191 5 193 7 4 109 -171 109 -186 0 -6 5 -10 10 -10 6 0 10 -6 10 -12
1 -7 26 -56 58 -108 l57 -95 45 0 45 0 5 45 c3 25 4 143 2 263 l-3 218 -37 -3
-37 -3 0 -208 c0 -114 -1 -207 -2 -207 -1 0 -21 35 -45 78 -23 42 -50 89 -58
103 -8 15 -41 74 -74 133 l-59 106 -53 0 c-30 0 -54 -3 -55 -7z"/>
</g>
</svg>
