<svg width="96" height="32" viewBox="0 0 96 32" fill="none" xmlns="http://www.w3.org/2000/svg">
<g clip-path="url(#clip0_41317_169)">
<path d="M26.68 20.5067C25.04 20.5067 23.4533 20.24 21.9733 19.76C21.5067 19.6 20.9867 19.72 20.6267 20.08L18.5333 22.7067C14.76 20.9067 11.2267 17.5067 9.34667 13.6L11.9467 11.3867C12.3067 11.0133 12.4133 10.4933 12.2667 10.0267C11.7733 8.54667 11.52 6.96 11.52 5.32C11.52 4.6 10.92 4 10.2 4H5.58667C4.86667 4 4 4.32 4 5.32C4 17.7067 14.3067 28 26.68 28C27.6267 28 28 27.16 28 26.4267V21.8267C28 21.1067 27.4 20.5067 26.68 20.5067Z" fill="white"/>
</g>
<g clip-path="url(#clip1_41317_169)">
<path d="M68 22.6667C68 23.403 68.597 24 69.3333 24H90.6667C91.403 24 92 23.403 92 22.6667C92 21.9303 91.403 21.3333 90.6667 21.3333H69.3333C68.597 21.3333 68 21.9303 68 22.6667ZM68 16C68 16.7364 68.597 17.3333 69.3333 17.3333H90.6667C91.403 17.3333 92 16.7364 92 16C92 15.2636 91.403 14.6667 90.6667 14.6667H69.3333C68.597 14.6667 68 15.2636 68 16ZM69.3333 8C68.597 8 68 8.59695 68 9.33333C68 10.0697 68.597 10.6667 69.3333 10.6667H90.6667C91.403 10.6667 92 10.0697 92 9.33333C92 8.59695 91.403 8 90.6667 8H69.3333Z" fill="white"/>
</g>
<defs>
<clipPath id="clip0_41317_169">
<rect width="32" height="32" fill="white"/>
</clipPath>
<clipPath id="clip1_41317_169">
<rect width="32" height="32" fill="white" transform="translate(64)"/>
</clipPath>
</defs>
</svg>
