<?xml version="1.0" standalone="no"?>
<!DOCTYPE svg PUBLIC "-//W3C//DTD SVG 20010904//EN"
 "http://www.w3.org/TR/2001/REC-SVG-20010904/DTD/svg10.dtd">
<svg version="1.0" xmlns="http://www.w3.org/2000/svg"
 width="864.000000pt" height="864.000000pt" viewBox="0 0 864.000000 864.000000"
 preserveAspectRatio="xMidYMid meet">
<metadata>
Created by potrace 1.14, written by Peter Selinger 2001-2017
</metadata>
<g transform="translate(0.000000,864.000000) scale(0.100000,-0.100000)"
fill="#000000" stroke="none">
<path d="M4362 7463 l3 -378 616 -3 615 -2 107 -398 c59 -218 107 -402 107
-407 0 -10 -3695 -995 -3727 -995 -10 0 -13 112 -13 525 l0 525 380 0 380 0 0
375 0 375 -1145 0 -1145 0 0 -375 0 -375 383 -2 382 -3 3 -942 2 -943 285 0
285 0 732 194 c2388 634 3380 896 3391 896 8 0 29 -62 57 -166 25 -91 48 -170
51 -176 5 -8 128 21 369 85 199 52 363 97 365 99 8 8 -598 2218 -621 2265 -32
67 -118 145 -192 175 l-57 23 -808 3 -807 2 2 -377z"/>
<path d="M6472 4809 c-663 -64 -1238 -457 -1534 -1049 -325 -652 -239 -1436
223 -2010 269 -334 657 -573 1080 -664 655 -142 1330 62 1789 540 767 799 690
2061 -170 2764 -376 308 -900 466 -1388 419z m370 -764 c385 -67 717 -326 862
-672 256 -613 -54 -1301 -684 -1516 -135 -46 -238 -60 -410 -54 -167 5 -238
19 -387 76 -363 140 -637 481 -704 875 -19 114 -6 351 26 466 30 110 95 251
156 341 134 198 357 365 591 443 162 55 380 71 550 41z"/>
<path d="M1515 4054 c-204 -31 -345 -74 -510 -155 -424 -209 -715 -586 -816
-1059 -32 -150 -33 -429 -1 -576 68 -315 196 -551 421 -774 228 -227 469 -356
786 -422 144 -29 421 -32 560 -5 280 55 534 176 740 354 246 213 418 508 491
843 27 121 27 458 1 580 -64 302 -202 556 -417 770 -218 218 -472 356 -776
421 -75 16 -142 22 -274 24 -96 2 -188 1 -205 -1z m354 -770 c209 -47 404
-203 501 -399 50 -103 70 -177 77 -295 26 -431 -319 -790 -757 -790 -394 0
-712 279 -760 666 -29 235 59 469 238 635 88 81 159 123 267 161 144 49 283
57 434 22z"/>
</g>
</svg>
