<svg aria-hidden="true" style="position: absolute; width: 0; height: 0; overflow: hidden;" version="1.1" xmlns="http://www.w3.org/2000/svg" xmlns:xlink="http://www.w3.org/1999/xlink">
<defs>


<symbol id="icon-logo" viewBox="0 0 187 56">
<path d="M42.3067 5.20075V42.0788H33.2068V19.9625L24.8518 42.0788H17.508L9.09993 19.9099V42.0788H0V5.20075H10.7496L21.2332 30.7317L31.6103 5.20075H42.3067Z"/>
  <path d="M77.9364 12.7655L59.3108 56H49.5191L56.3307 41.0807L44.2507 12.7655H54.415L61.2798 31.0994L68.0915 12.7655H77.9364Z"/>
  <path d="M102.597 23.167C104.761 23.6223 106.499 24.6904 107.812 26.3715C109.124 28.0175 109.781 29.9087 109.781 32.045C109.781 35.127 108.681 37.5785 106.481 39.3996C104.317 41.1857 101.284 42.0788 97.3814 42.0788H79.9798V5.20075H96.7961C100.592 5.20075 103.554 6.05879 105.683 7.77486C107.847 9.49093 108.929 11.8199 108.929 14.7617C108.929 16.9331 108.344 18.7367 107.173 20.1726C106.038 21.6085 104.512 22.6066 102.597 23.167ZM89.0797 20.1201H95.0399C96.53 20.1201 97.6653 19.8049 98.4458 19.1745C99.2617 18.5091 99.6697 17.546 99.6697 16.2852C99.6697 15.0244 99.2617 14.0613 98.4458 13.3959C97.6653 12.7305 96.53 12.3978 95.0399 12.3978H89.0797V20.1201ZM95.785 34.8293C97.3105 34.8293 98.4812 34.4966 99.2972 33.8311C100.149 33.1307 100.574 32.1326 100.574 30.8368C100.574 29.541 100.131 28.5253 99.244 27.7899C98.3925 27.0544 97.204 26.6867 95.6785 26.6867H89.0797V34.8293H95.785Z"/>
  <path d="M118.388 9.71857C116.792 9.71857 115.479 9.26329 114.45 8.35272C113.457 7.40713 112.96 6.25141 112.96 4.88556C112.96 3.48468 113.457 2.32896 114.45 1.41839C115.479 0.472796 116.792 0 118.388 0C119.949 0 121.226 0.472796 122.22 1.41839C123.248 2.32896 123.763 3.48468 123.763 4.88556C123.763 6.25141 123.248 7.40713 122.22 8.35272C121.226 9.26329 119.949 9.71857 118.388 9.71857ZM122.911 12.7655V42.0788H113.811V12.7655H122.911Z"/>
  <path d="M149.918 42.0788L137.359 25.7936V42.0788H128.259V5.20075H137.359V21.3809L149.811 5.20075H160.508L146.033 23.272L161.04 42.0788H149.918Z"/>
  <path d="M173.217 12.3978V19.8574H185.404V26.7917H173.217V34.8818H187V42.0788H164.117V5.20075H187V12.3978H173.217Z"/>
</symbol>

<symbol id="icon-phone" viewBox="0 0 24 24">
<path d="M22.68 16.5067C21.04 16.5067 19.4533 16.24 17.9733 15.76C17.5067 15.6 16.9867 15.72 16.6267 16.08L14.5333 18.7067C10.76 16.9067 7.22667 13.5067 5.34667 9.6L7.94667 7.38667C8.30667 7.01333 8.41333 6.49333 8.26667 6.02667C7.77333 4.54667 7.52 2.96 7.52 1.32C7.52 0.6 6.92 0 6.2 0H1.58667C0.866667 0 0 0.32 0 1.32C0 13.7067 10.3067 24 22.68 24C23.6267 24 24 23.16 24 22.4267V17.8267C24 17.1067 23.4 16.5067 22.68 16.5067Z" />
</symbol>
</defs>
</svg>
